<?xml version="1.0" standalone="no"?>
<!DOCTYPE svg PUBLIC "-//W3C//DTD SVG 1.1//EN" "http://www.w3.org/Graphics/SVG/1.1/DTD/svg11.dtd" >
<svg xmlns="http://www.w3.org/2000/svg" xmlns:xlink="http://www.w3.org/1999/xlink" version="1.1">
<metadata>
Created by FontForge 20190801 at Fri Feb 13 18:04:24 2015
 By Jimmy Wärting
Copyright (c) 2014, Ek Type. All rights reserved.
</metadata>
<defs>
<font id="Modak" horiz-adv-x="0" >
  <font-face 
    font-family="Modak"
    font-weight="400"
    font-stretch="normal"
    units-per-em="2048"
    panose-1="1 0 0 0 0 0 0 0 0 0"
    ascent="1638"
    descent="-410"
    x-height="1093"
    cap-height="1308"
    bbox="-1059 -1049 3985 2035"
    underline-thickness="102"
    underline-position="-154"
    unicode-range="U+000D-F04CB"
  />
<missing-glyph horiz-adv-x="1278" 
d="M542 319q0 -17 12 -29t29 -12t30 12t13 29t-13 30t-30 13t-29 -13t-12 -30zM345 -1q-111 0 -173 58t-62 161v1004q0 103 62 161t173 58h588q111 0 173 -58t62 -161v-1004q0 -103 -62 -161t-173 -58h-588zM593 483h7q5 0 8 1q-2 8 -2 12v12q0 55 81 136q29 30 64 61
q125 116 125 217t-69.5 158t-163.5 57t-164 -57.5t-70 -152.5q0 -42 34 -42h8q3 0 9 2v30q0 81 55 125.5t128.5 44.5t126.5 -43t53 -116.5t-59 -137.5q-24 -27 -56 -54q-77 -68 -126 -135q-28 -38 -28 -78t39 -40z" />
    <glyph glyph-name="uniFB01" unicode="fi" horiz-adv-x="1517" 
d="M426 -13q-119 0 -190 43q-79 45 -79 133v469h31q50 0 50 33q0 4 -2 12h-166q-58 83 -58 205t58 211h87q23 167 129.5 254.5t282.5 87.5q126 0 219.5 -37t142.5 -87q30 83 102.5 132.5t166.5 49.5q120 0 201.5 -81.5t81.5 -204.5q0 -99 -62 -173.5t-151 -93.5
q0 -38 29 -38q51 0 104 40q40 -31 49 -42v-396q0 -149 72 -194q1 -5 1 -19v-18q0 -147 -80 -221q-74 -70 -197.5 -70t-203.5 70q-101 89 -101 260v650q18 13 39 21t44 20q-70 37 -99 119q-8 -47 -23 -85q-69 -27 -193 -27q-51 0 -111.5 7t-89.5 14q-7 -7 -7 -20
q0 -17 48 -31.5t150.5 -14.5t188.5 15v-303h-206v-621q-109 -69 -258 -69z" />
    <glyph glyph-name="uniFB02" unicode="fl" horiz-adv-x="1530" 
d="M426 -13q-119 0 -190 43q-79 45 -79 133v469h31q50 0 50 33q0 4 -2 12h-166q-58 83 -58 205t58 211h87q24 166 130 254t282 88q115 0 200.5 -29t133.5 -69v-300q-69 -27 -192 -27q-51 0 -111.5 7t-89.5 14q-7 -7 -7 -20q0 -17 48 -31.5t155.5 -14.5t176.5 12
q7 -16 13.5 -60.5t6.5 -87.5q0 -92 -34 -152h-185v-621q-109 -69 -258 -69zM1465 1207v-703q0 -149 72 -194q1 -5 1 -19v-18q0 -143 -72.5 -217t-205.5 -74t-211 74q-93 88 -93 266v1039q105 64 240.5 64t202 -57.5t66.5 -160.5z" />
    <glyph glyph-name="uniFB03" unicode="ffi" horiz-adv-x="2263" 
d="M1172 -13q-119 0 -190 43q-79 45 -79 133v469h31q50 0 50 33q0 4 -2 12h-298v-621q-109 -69 -258 -69q-119 0 -190 43q-79 45 -79 133v469h31q50 0 50 33q0 4 -2 12h-166q-58 83 -58 205t58 211h87q23 167 129.5 254.5t282.5 87.5q116 0 210 -32.5t145 -85.5
q-79 -130 -82 -298q-63 -9 -118 -9t-118 6.5t-94 14.5q-7 -7 -7 -20q0 -17 50.5 -31.5t160.5 -14.5t179 12v32q0 198 105 312t315 114q126 0 219.5 -37t142.5 -87q30 83 102.5 132.5t166.5 49.5q120 0 201.5 -81.5t81.5 -204.5q0 -99 -62 -173.5t-151 -93.5q0 -38 29 -38
q51 0 104 40q40 -31 49 -42v-396q0 -149 72 -194q1 -5 1 -19v-18q0 -147 -80 -221q-74 -70 -197.5 -70t-203.5 70q-101 89 -101 260v650q18 13 39 21t44 20q-70 37 -99 119q-8 -47 -23 -85q-69 -27 -193 -27q-51 0 -111.5 7t-89.5 14q-7 -7 -7 -20q0 -17 48 -31.5
t150.5 -14.5t188.5 15v-303h-206v-621q-109 -69 -258 -69z" />
    <glyph glyph-name="uF01D6" unicode="fj" horiz-adv-x="1518" 
d="M426 -13q-119 0 -190 43q-79 45 -79 133v469h31q50 0 50 33q0 4 -2 12h-166q-58 83 -58 205t58 211h87q23 167 129.5 254.5t282.5 87.5q126 0 219.5 -37t142.5 -87q30 83 102.5 132.5t166.5 49.5q120 0 201.5 -81.5t81.5 -204.5q0 -99 -62 -173.5t-151 -93.5
q0 -38 29 -38q51 0 104 40q1 0 4.5 -2.5t22 -14.5t40.5 -34v-824q0 -221 -109 -335q-98 -101 -251.5 -101t-235.5 71t-82 195q0 45 12 86.5t25 61.5q58 13 135 13t175 -24q7 -3 23 -3q26 0 26 34q-121 35 -203 35q-42 75 -42 198v664q18 13 39 21t44 20q-70 37 -99 119
q-8 -47 -23 -85q-69 -27 -193 -27q-51 0 -111.5 7t-89.5 14q-7 -7 -7 -20q0 -17 48 -31.5t150.5 -14.5t188.5 15v-303h-206v-621q-109 -69 -258 -69z" />
    <glyph glyph-name="uF01D7" unicode="ff" horiz-adv-x="1682" 
d="M1172 -13q-119 0 -190 43q-79 45 -79 133v469h31q50 0 50 33q0 4 -2 12h-298v-621q-109 -69 -258 -69q-119 0 -190 43q-79 45 -79 133v469h31q50 0 50 33q0 4 -2 12h-166q-58 83 -58 205t58 211h87q23 167 129.5 254.5t282.5 87.5q116 0 210 -32.5t145 -85.5
q-79 -130 -82 -298q-63 -9 -118 -9t-118 6.5t-94 14.5q-7 -7 -7 -20q0 -17 50.5 -31.5t160.5 -14.5t179 12v32q0 198 105 312t315 114q126 0 219 -36t136 -82q10 -33 10 -80v-19q0 -103 -30 -181q-69 -27 -193 -27q-51 0 -111.5 7t-89.5 14q-7 -7 -7 -20q0 -17 48 -31.5
t155.5 -14.5t176.5 12q7 -16 13.5 -60.5t6.5 -87.5q0 -92 -34 -152h-185v-621q-109 -69 -258 -69z" />
    <glyph glyph-name="uF01D8" unicode="ffl" horiz-adv-x="2276" 
d="M1172 -13q-119 0 -190 43q-79 45 -79 133v469h31q50 0 50 33q0 4 -2 12h-298v-621q-109 -69 -258 -69q-119 0 -190 43q-79 45 -79 133v469h31q50 0 50 33q0 4 -2 12h-166q-58 83 -58 205t58 211h87q23 167 129.5 254.5t282.5 87.5q116 0 210 -32.5t145 -85.5
q-79 -130 -82 -298q-63 -9 -118 -9t-118 6.5t-94 14.5q-7 -7 -7 -20q0 -17 50.5 -31.5t160.5 -14.5t179 12v32q0 198 105 312t315 114q114 0 200.5 -30t133.5 -69v-299q-69 -27 -192 -27q-51 0 -111.5 7t-89.5 14q-7 -7 -7 -20q0 -17 48 -31.5t155.5 -14.5t176.5 12
q7 -16 13.5 -60.5t6.5 -87.5q0 -91 -34 -151l-185 -1v-621q-109 -69 -258 -69zM2211 1207v-703q0 -149 72 -194q1 -5 1 -19v-18q0 -143 -72.5 -217t-205.5 -74t-211 74q-93 88 -93 266v1039q105 64 240.5 64t202 -57.5t66.5 -160.5z" />
    <glyph glyph-name="uF01DA" unicode="ss" horiz-adv-x="2086" 
d="M1610 784q-26 -8 -26 -31v-5q0 -5 1 -6q11 1 29 1h24q114 0 213.5 -34.5t162.5 -110.5q70 -86 70 -217q0 -204 -141 -308t-372.5 -104t-355.5 76q-132 80 -132 231q0 58 18.5 104.5t39.5 63.5q55 -46 159.5 -79.5t221.5 -33.5q47 0 47 26q0 12 -3 20q-7 -1 -17 -1h-11
q-212 0 -339 84q-144 95 -144 268t129 280q143 118 393 118q123 0 229.5 -26t182.5 -69q19 -41 19 -121q0 -122 -67 -187q-51 28 -124.5 46.5t-132.5 18.5t-74 -4zM567 784q-26 -8 -26 -31v-5q0 -5 1 -6q11 1 29 1h24q114 0 213.5 -34.5t162.5 -110.5q70 -86 70 -217
q0 -204 -141 -308t-377 -104t-369.5 78t-133.5 229q0 56 24 102.5t54 65.5q55 -46 159.5 -79.5t221.5 -33.5q47 0 47 26q0 12 -3 20q-7 -1 -17 -1h-11q-212 0 -339 84q-144 95 -144 268t129 280q143 118 393 118q123 0 229.5 -26t182.5 -69q19 -41 19 -121q0 -122 -67 -187
q-51 28 -124.5 46.5t-132.5 18.5t-74 -4z" />
    <glyph glyph-name="uF01DB" unicode="www" horiz-adv-x="3937" 
d="M514 557q0 -58 5 -78q6 -32 33 -32h9q3 0 9 2q-3 27 -3 77.5t5 169.5t5 340q95 65 246 65q87 0 161 -24t102 -52q0 -146 11.5 -303t27.5 -269q7 -10 22 -10q29 0 29 28q0 11 -9.5 96t-18.5 227t-9 232q35 39 103 60.5t156 21.5q184 0 251 -77q43 -50 43 -166t-42 -359
l-9 -57q7 -9 20.5 -9t20 9.5t12.5 34.5q52 260 56 466q1 51 3 87q36 26 114 46q79 18 156.5 18t151.5 -24t102 -52q0 -146 11.5 -303t27.5 -269q8 -10 22 -10q29 0 29 28q0 11 -9.5 96t-18.5 227t-9 232q73 81 259 81q233 0 280 -125q14 -41 14 -107q0 -126 -41 -369
q-7 -38 -10 -57q8 -9 21 -9t19.5 9.5t12.5 34.5q52 260 56 466q1 51 3 87q99 68 227 68q100 0 165.5 -39t90.5 -111q0 -33 -7 -140q-20 -251 -61 -383q11 -6 27.5 -6t25.5 26q4 9 17 52.5t31 199.5t22 278q2 39 4 59q38 29 101.5 46.5t132.5 17.5q117 0 191 -64.5t74 -172.5
q0 -80 -33.5 -228t-87 -297.5t-87.5 -211.5q-48 -85 -117.5 -117t-209.5 -32q-44 0 -130 9t-111 19q-21 34 -49.5 100t-40.5 102q-38 -6 -38 -33q0 -8 13 -44.5t19 -49.5q-3 -6 -15 -31.5t-26 -44.5q-77 -27 -201 -27q-151 0 -214 66q-17 17 -42.5 49.5t-35.5 63.5
q-21 -92 -93.5 -135.5t-156.5 -43.5q-41 0 -149.5 9t-131.5 19q-21 34 -49.5 100t-40.5 102q-38 -6 -38 -33q0 -8 13 -44.5t19 -49.5q-3 -6 -15 -31.5t-26 -44.5q-27 -10 -102.5 -18.5t-148.5 -8.5q-163 0 -244 66q-4 8 -22 26t-38 51q-12 17 -18 36q-21 -92 -93.5 -135.5
t-156.5 -43.5q-44 0 -130 9t-111 19q-21 34 -49.5 100t-40.5 102q-38 -6 -38 -33q0 -8 13 -44.5t19 -49.5q-3 -6 -15 -31.5t-26 -44.5q-77 -27 -217 -27t-237 41q-74 123 -128.5 276.5t-88.5 390.5q-66 82 -66 198t60 205h247q142 0 198 -67q43 -52 43 -168z" />
    <glyph glyph-name="uF01DC" unicode="ft" horiz-adv-x="1616" 
d="M426 -13q-119 0 -190 43q-79 45 -79 133v469h31q50 0 50 33q0 4 -2 12h-166q-58 83 -58 205t58 211h87q24 160 131.5 251t280.5 91q206 0 328 -94q-9 -185 -51 -320q-61 -11 -123.5 -11t-123 7t-89.5 14q-7 -7 -7 -20q0 -17 48 -31.5t155 -14.5t181 13q2 7 13.5 40
t22 66.5t23.5 73t23.5 72t20 62.5t16.5 47q73 20 171.5 20t195.5 -21v-245h173q58 -85 58 -193q0 -60 -15.5 -122t-42.5 -100h-143v-151q0 -128 107 -128h43q21 -76 21 -132q0 -138 -86.5 -211.5t-251 -73.5t-262 91.5t-97.5 269.5v289h62q50 0 50 33q0 4 -2 12h-303v-621
q-109 -69 -258 -69z" />
    <glyph glyph-name="uF01DE" unicode="rf" horiz-adv-x="1723" 
d="M315 -13q-119 0 -190 43q-79 45 -79 133v515q-59 83 -59 204.5t59 210.5h153q118 0 169 -76q-25 -28 -44 -71t-19 -61.5t9.5 -27.5t27.5 -9q35 136 133 203q83 56 200 56q164 0 252 -108q0 226 125 338q110 97 304 97q126 0 219 -36t136 -82q10 -33 10 -80v-19
q0 -103 -30 -181q-69 -27 -193 -27q-51 0 -112 6.5t-89 14.5q-7 -7 -7 -20q0 -18 48 -31q48 -15 155.5 -15t176.5 12q7 -16 13.5 -60.5t6.5 -87.5q0 -91 -34 -151h-185v-622q-109 -69 -258 -69q-119 0 -190 43q-79 45 -79 133v556q0 44 -28 44q-11 0 -22 -8q0 -69 -13 -120
q-86 -38 -206 -38q-60 0 -108.5 8.5t-70.5 15.5q-8 -8 -8 -23t19.5 -22.5t65.5 -16.5v-502q-109 -69 -258 -69z" />
    <glyph glyph-name="uF01E0" unicode="rt" horiz-adv-x="1683" 
d="M315 -13q-119 0 -190 43q-79 45 -79 133v515q-59 83 -59 204.5t59 210.5h153q118 0 169 -76q-25 -28 -44 -71t-19 -61.5t9.5 -27.5t27.5 -9q35 139 133 204q81 55 200 55q86 0 156 -34q43 -22 101 -74q51 110 100 239q12 31 23 58.5t17 43.5q74 19 172.5 19t195.5 -21
v-245h173q58 -88 58 -207q0 -54 -15 -111t-43 -97h-143v-151q0 -128 107 -128h43q21 -76 21 -132q0 -138 -86.5 -211.5t-251 -73.5t-262 91.5t-97.5 269.5v375q0 44 -28 44q-11 0 -22 -8q0 -69 -13 -120q-86 -38 -206 -38q-60 0 -108.5 8.5t-70.5 15.5q-8 -8 -8 -23
t19.5 -22.5t65.5 -16.5v-502q-109 -69 -258 -69z" />
    <glyph glyph-name="uF01E4" unicode="Ti" horiz-adv-x="1729" 
d="M1664 900v-396q0 -149 72 -194q1 -5 1 -19v-18q0 -147 -80 -221q-74 -70 -197.5 -70t-203.5 70q-101 89 -101 260v577q-51 -64 -147 -64h-293q-3 -7 -3 -15q0 -18 21 -24q22 -7 94 -7h69v-703q-46 -40 -123 -67t-187 -27t-187 49q-87 53 -87 150v644h-233
q-72 103 -72 225q0 83 26.5 144.5t65.5 95.5h983q-12 -39 -12 -79.5t13 -67t37 -26.5q11 0 20 3q-15 38 -15 87q0 126 83 206t203.5 80t202 -81.5t81.5 -204.5q0 -99 -62 -173.5t-151 -93.5q0 -38 29 -38q51 0 104 40q40 -31 49 -42z" />
    <glyph glyph-name="uF01E5" unicode="Tj" horiz-adv-x="1740" 
d="M1165 298v591q-51 -64 -147 -64h-303q-3 -7 -3 -15q0 -18 21 -24q22 -7 94 -7h69v-703q-46 -40 -123 -67t-187 -27t-187 49q-87 53 -87 150v644h-233q-72 103 -72 225q0 83 26.5 144.5t65.5 95.5h992q-12 -39 -12 -76q0 -97 47 -97q11 0 20 3q-11 39 -11 87q0 126 83 206
t203.5 80t202 -81.5t81.5 -204.5q0 -99 -62 -173.5t-151 -93.5q0 -38 29 -38q51 0 104 40q1 0 21 -12.5t46 -38.5v-824q0 -221 -109 -335q-98 -101 -251.5 -101t-235.5 71t-82 195q0 45 12 86.5t25 61.5q58 13 135 13t175 -24q7 -3 23 -3q26 0 26 34q-121 35 -203 35
q-42 75 -42 198z" />
    <glyph glyph-name=".notdef" horiz-adv-x="1278" 
d="M542 319q0 -17 12 -29t29 -12t30 12t13 29t-13 30t-30 13t-29 -13t-12 -30zM345 -1q-111 0 -173 58t-62 161v1004q0 103 62 161t173 58h588q111 0 173 -58t62 -161v-1004q0 -103 -62 -161t-173 -58h-588zM593 483h7q5 0 8 1q-2 8 -2 12v12q0 55 81 136q29 30 64 61
q125 116 125 217t-69.5 158t-163.5 57t-164 -57.5t-70 -152.5q0 -42 34 -42h8q3 0 9 2v30q0 81 55 125.5t128.5 44.5t126.5 -43t53 -116.5t-59 -137.5q-24 -27 -56 -54q-77 -68 -126 -135q-28 -38 -28 -78t39 -40z" />
    <glyph glyph-name="uF0001" unicode="&#xf0001;" 
 />
    <glyph glyph-name="uni000D" unicode="&#xd;" horiz-adv-x="512" 
 />
    <glyph glyph-name="uni0000" 
 />
    <glyph glyph-name="space" unicode=" " horiz-adv-x="480" 
 />
    <glyph glyph-name="exclam" unicode="!" horiz-adv-x="578" 
d="M438 585q-52 23 -92 23t-40 -37v-4q114 -8 193 -91.5t79 -200t-85 -201.5q-86 -84 -205 -84t-203.5 84.5t-84.5 202.5q0 80 40.5 147.5t107.5 106.5q-60 104 -96 239t-36 280v326q42 30 109 49t136 19q150 0 216.5 -75.5t66.5 -254.5v-64q0 -231 -106 -465z" />
    <glyph glyph-name="quotedbl" unicode="&#x22;" horiz-adv-x="931" 
d="M493 833v505q22 10 82 24q49 9 112.5 9t129 -13.5t94.5 -41.5l-34 -483q-60 -57 -193.5 -57t-190.5 57zM242 1371q126 0 197 -34v-504q-60 -57 -198 -57q-57 0 -108 14t-77 43l-36 483q24 27 88.5 41t133.5 14z" />
    <glyph glyph-name="numbersign" unicode="#" horiz-adv-x="1354" 
d="M659 80l13 81q45 0 45 26q0 11 -2 19h-91l-20 -146q-99 -70 -234 -70q-104 0 -161 40q-64 43 -64 133h7q50 0 50 31q0 4 -2 12h-113q-67 94 -67 199q0 59 16 104.5t51 98.5h97q46 0 46 26q0 11 -2 19h-97q-57 92 -57 199q0 59 16 104.5t51 98.5h117q50 0 50 31q0 4 -2 12
h-40l18 125q67 31 119 46.5t121 15.5q103 0 157 -50t54 -135q0 -22 -3 -45h58q43 0 43 25q0 10 -2 18h-39q1 4 1 13v11q0 45 -34 98q113 65 248 65q103 0 157 -50t54 -135q0 -22 -3 -45h51q36 -53 52 -99t16 -104q0 -104 -68 -199h-102q-46 0 -46 -25q0 -12 2 -20h106
q58 -100 58 -203.5t-68 -198.5h-109l-20 -146q-84 -70 -226.5 -70t-201.5 90zM681 719h-13l-19 -128q0 -16 8.5 -22t26.5 -6h14q19 123 19 135q0 9 -7.5 15t-28.5 6z" />
    <glyph glyph-name="dollar" unicode="$" horiz-adv-x="1131" 
d="M568 364q39 0 39 27t-18.5 63.5t-52.5 67.5q-90 83 -240 83q-72 0 -126 -18q-82 30 -131 109t-49 179q0 187 140 299q118 94 314 123q1 3 1 11q0 28 -30 28q-17 0 -58 -12v108q91 64 214.5 64t229.5 -64v-142q165 -30 252 -80q23 -67 23 -149q0 -156 -72 -235
q-39 28 -120.5 50t-154.5 22t-98.5 -12t-25.5 -25q0 -9 3 -17q35 9 90 9q193 0 318 -95q145 -112 145 -327q0 -156 -111.5 -274.5t-313.5 -158.5q-1 -3 -1 -11q0 -28 30 -28q17 0 58 12v-108q-91 -64 -214.5 -64t-229.5 64v131q-163 22 -292 94q-75 102 -75 213t77 185
t189.5 74t184 -46t105.5 -150z" />
    <glyph glyph-name="percent" unicode="%" horiz-adv-x="1407" 
d="M440 800q0 -47 26.5 -47t26.5 47q0 99 -6.5 129t-31.5 30q-10 0 -15 -4v-155zM960 356q0 -47 26.5 -47t26.5 47q0 99 -6.5 129t-31.5 30q-10 0 -15 -4v-155zM20 855q0 201 115.5 328t314.5 127q108 0 194.5 -44t141.5 -123l102 149q44 18 101 18q120 0 226 -83
q100 -80 127 -186l-127 -190q-83 39 -146 39q-37 0 -37 -30q0 -8 1 -10q163 -19 259 -133q95 -114 95 -292q0 -198 -113.5 -316.5t-316.5 -118.5q-109 0 -195 43.5t-142 122.5l-101 -148q-44 -18 -101 -18q-119 0 -225 84q-102 79 -128 185l127 190q83 -39 146 -39
q37 0 37 30v5q-1 1 -1 4q-168 18 -259 123q-95 106 -95 283z" />
    <glyph glyph-name="ampersand" unicode="&#x26;" horiz-adv-x="1291" 
d="M273 793q-35 28 -60.5 87t-25.5 124q0 141 100 227t286 86q162 0 256 -96q82 -83 82 -205q0 -83 -62 -100l-195 -55q-242 -68 -242 -271q0 -108 75 -181q68 -68 163 -68q36 0 63 14t27 40q0 14 -9.5 22t-24.5 8q-36 0 -55 -39q-82 6 -134.5 64.5t-52.5 139.5t50.5 140
t156.5 90l195 56q90 26 90 119q56 21 109 21q89 0 153 -64q63 -66 63 -162t-54 -152.5t-128 -78.5l-16 -5v-5q0 -28 31 -28q13 0 28 9q44 -50 44 -133t-36.5 -162.5t-106.5 -138.5q-156 -133 -423 -133t-433 126q-172 127 -172 336q0 280 258 368z" />
    <glyph glyph-name="quotesingle" unicode="'" horiz-adv-x="492" 
d="M242 776q-58 0 -109 14t-77 43l-36 483q24 27 88.5 41t134 14t135 -13.5t94.5 -41.5l-34 -483q-60 -57 -196 -57z" />
    <glyph glyph-name="parenleft" unicode="(" horiz-adv-x="587" 
d="M482 679v-4q0 -173 36.5 -345.5t88.5 -302.5q-45 -53 -127.5 -90.5t-157.5 -43.5q-115 101 -205 284q-117 238 -117 496.5t112 486.5q87 177 210 281q73 -6 157 -43q83 -39 128 -91q-125 -316 -125 -628z" />
    <glyph glyph-name="parenright" unicode=")" horiz-adv-x="587" 
d="M-20 1307q45 52 128 90t157 44q123 -104 210 -281q112 -228 112 -487.5t-116 -495.5q-89 -181 -206 -284q-76 6 -156 44q-83 37 -129 90q52 130 88.5 302.5t36.5 345.5v4q0 312 -125 628z" />
    <glyph glyph-name="asterisk" unicode="*" horiz-adv-x="726" 
d="M641 863q0 -58 -63 -104q-44 -32 -91 -32t-124 57q-77 -57 -122.5 -57t-86 27.5t-55 54.5t-14.5 58.5t19 101.5q-99 70 -99 148q0 19 8 46q22 63 64.5 84.5t126.5 23.5q24 79 60 113.5t99 34.5t99 -34.5t60 -113.5q84 -2 127 -23.5t64 -84.5q8 -27 8 -46
q0 -44 -25.5 -78.5t-73.5 -69.5q19 -70 19 -106z" />
    <glyph glyph-name="plus" unicode="+" horiz-adv-x="1071" 
d="M531 1196q128 0 198 -51q73 -56 73 -165v-130h175q44 -64 64 -121t20 -128.5t-20.5 -128t-63.5 -116.5h-255q-2 -6 -2 -16q0 -26 30 -30h52v-168q-91 -102 -259 -102q-130 0 -198 52q-73 54 -73 164v100h-179q-83 114 -83 244q0 72 21 130.5t62 119.5h208q50 0 50 27
q0 11 -2 19h-77v198q93 102 259 102z" />
    <glyph glyph-name="comma" unicode="," horiz-adv-x="617" 
d="M365 75q0 11 -13 24q-42 -23 -109 -23q-91 0 -157 64t-66 166q0 124 80.5 194t201.5 70q143 0 227 -100q78 -95 78 -243q0 -186 -105 -293q-95 -98 -229 -98q-91 0 -145.5 36.5t-54.5 109.5q0 48 30 83q63 -34 139 -34q123 0 123 44z" />
    <glyph glyph-name="hyphen" unicode="-" horiz-adv-x="721" 
d="M690.5 482.5q-20.5 -56.5 -63.5 -116.5h-534q-83 114 -83 244q0 72 21 130.5t62 119.5h534q44 -64 64 -121t20 -128.5t-20.5 -128z" />
    <glyph glyph-name="period" unicode="." horiz-adv-x="608" 
d="M105 483q85 85 203 85t205 -85q85 -87 85 -205.5t-85 -203.5q-86 -84 -205 -84t-203.5 84.5t-84.5 203t85 205.5z" />
    <glyph glyph-name="slash" unicode="/" horiz-adv-x="714" 
d="M460 1309q80 0 155 -34q59 -29 99 -79l-156 -1115q-78 -91 -251 -91q-90 0 -160.5 32t-106.5 84l153 1098q85 105 267 105z" />
    <glyph glyph-name="zero" unicode="0" horiz-adv-x="1194" 
d="M797 414q-30 22 -82 76q-62 62 -106.5 123t-88.5 142t-49 101q-31 0 -31 -36q0 -27 32 -90.5t97.5 -153t118.5 -136.5q55 -50 80 -50t29 24zM597 -16q-265 0 -416 169q-159 176 -159 491t161.5 497t413.5 182t413.5 -182t161.5 -496.5t-158 -491.5q-152 -169 -417 -169z
" />
    <glyph glyph-name="one" unicode="1" horiz-adv-x="737" 
d="M175 628q59 0 105 11t46 33q0 14 -9 23q-61 -22 -133 -22q-98 0 -165 67.5t-67 194.5q0 84 35 163q126 15 196 50q98 50 168 161h179q86 0 127 -32q48 -39 48 -137v-1062q-51 -47 -118.5 -71.5t-138.5 -24.5q-117 0 -190 56q-83 63 -83 184v406z" />
    <glyph glyph-name="two" unicode="2" horiz-adv-x="1132" 
d="M1107 844q0 -161 -95 -268q-107 -120 -313 -161q0 -38 34 -38q60 0 147 38t135 90q95 -95 95 -250.5t-89 -244.5h-899q-77 115 -77 254.5t54 234.5q197 38 357 139t160 214q0 30 -13.5 49t-37.5 19q-49 0 -49 -51.5t35 -75.5q-49 -73 -151 -134t-200 -88
q-178 118 -178 319t159 319q148 110 379.5 110t383.5 -122q163 -132 163 -353z" />
    <glyph glyph-name="three" unicode="3" horiz-adv-x="1170" 
d="M296 639h17q3 -1 16 -1q18 -114 94 -179t174 -65q78 0 78 30q0 14 -5 22q-25 -5 -65 -5q-95 0 -160 60t-65 160t62.5 159.5t163.5 59.5h18q8 0 22 -2q3 6 3 13q0 32 -53 32q-88 0 -161.5 -51t-100.5 -150q-150 0 -231 71q-69 60 -69 157q0 163 148.5 269t387 106
t393.5 -119q154 -119 154 -308q0 -125 -90 -206q-44 21 -77 21t-33 -27q0 -12 6 -17q79 0 144 -58q81 -72 81 -205q0 -202 -171 -318q-157 -106 -399.5 -106t-399 109t-156.5 290q0 111 71.5 184.5t202.5 73.5z" />
    <glyph glyph-name="four" unicode="4" horiz-adv-x="1190" 
d="M496 611h107v134h-22q-37 -71 -85 -115v-19zM506 165h81q32 0 46 5.5t14 19t-4 22.5h-303q-168 0 -257 105q-81 94 -81 254q0 83 14 145q148 127 275 289q70 90 207 303h255q125 0 204 -67.5t79 -184.5v-382h-21q-43 0 -43 -34v-13h161q35 -88 35 -201q0 -78 -33 -136.5
t-100 -73.5v-153q-112 -81 -270.5 -81t-258.5 75v108z" />
    <glyph glyph-name="five" unicode="5" horiz-adv-x="1158" 
d="M131 633q-33 12 -52 44t-19 70q0 6 4 43q15 210 45 405q11 72 34 89.5t93 17.5h766q52 -87 52 -228t-60 -225q-62 38 -119 57q-89 28 -191 28h-112l-6 -45h93q207 0 336 -107q141 -118 141 -332t-158 -341t-433 -127q-245 0 -384 105.5t-139 265.5q0 127 84.5 199
t198.5 72t192 -65q88 -75 94 -200q46 0 46 43q0 106 -87 186.5t-244 80.5q-95 0 -175 -36z" />
    <glyph glyph-name="six" unicode="6" horiz-adv-x="1181" 
d="M604 516q-38 0 -60 -12q0 -34 19.5 -55t52.5 -21q51 0 51 41q0 47 -63 47zM1057 1142q0 -77 -20 -151t-59 -123q-110 51 -248 51q-90 0 -161 -24.5t-71 -53.5q0 -12 7 -22q123 55 225 55q218 0 330 -127q99 -114 99 -299q0 -217 -165 -347q-151 -118 -363 -118
q-259 0 -425 160q-184 176 -184 490q0 181 68.5 337.5t207.5 251.5q151 101 358 101q266 0 400 -123q1 -8 1 -29v-29z" />
    <glyph glyph-name="seven" unicode="7" horiz-adv-x="987" 
d="M975 1022q0 -78 -27 -179l-281 -490q-67 -118 -67 -223q0 -49 8 -80q-82 -68 -230 -68t-230.5 85t-82.5 208q0 94 59 204l160 306h158q45 0 45 32v7q0 5 -1 8h-442q-42 37 -67 101.5t-25 135.5t27 134.5t72 98.5h569q355 0 355 -280z" />
    <glyph glyph-name="eight" unicode="8" horiz-adv-x="1198" 
d="M534 872q0 -16 27.5 -24.5t69.5 -16.5q17 17 17 37.5t-15.5 31t-42.5 10.5q-56 0 -56 -38zM571 482q-22 -21 -22 -38.5t15.5 -28t42.5 -10.5q56 0 56 38q0 21 -92 39zM255 586q29 0 29 34q-88 34 -143 88q-83 79 -83 197q0 182 143.5 300.5t377 118.5t387.5 -115
t154 -291q0 -52 -16.5 -97t-45.5 -68q-12 7 -22 15q-67 41 -103 41q-31 0 -31 -34q131 -44 200 -124q74 -90 74 -230q0 -204 -168 -325q-159 -113 -410 -113t-412 120q-164 120 -164 328q0 86 26 142.5t63 87.5q20 -23 69 -49t75 -26z" />
    <glyph glyph-name="nine" unicode="9" horiz-adv-x="1186" 
d="M581 770q33 0 59 8q0 36 -19 58t-52 22q-51 0 -51 -41q0 -47 63 -47zM612 364q0 11 -4 16q-37 -7 -99 -7q-120 0 -232.5 50t-183.5 151.5t-71 248.5q0 222 150.5 361.5t409.5 139.5t420.5 -180.5t161.5 -467.5q0 -308 -179 -501t-492 -193q-93 0 -193 20q-97 17 -136 37
q-49 80 -49 183q0 56 17.5 108.5t45.5 90.5q46 -35 138.5 -64t194 -29t101.5 36z" />
    <glyph glyph-name="colon" unicode=":" horiz-adv-x="608" 
d="M361 504q0 -36 35 -36q48 0 95 32q50 -40 78.5 -98.5t28.5 -124.5q0 -118 -84.5 -202.5t-204 -84.5t-204.5 84t-85 203q0 73 37 142t107 109q-67 39 -105.5 104t-38.5 144q0 120 85.5 205.5t204 85.5t203.5 -85q85 -87 85 -200.5t-66.5 -188.5t-170.5 -89z" />
    <glyph glyph-name="semicolon" unicode=";" horiz-adv-x="618" 
d="M366 75q0 11 -13 24q-42 -23 -109 -23q-91 0 -157 64t-66 166q0 162 131 229q-61 39 -96.5 102.5t-35.5 138.5q0 120 85.5 205.5t204 85.5t203.5 -85q85 -87 85 -200.5t-66.5 -188.5t-170.5 -89q0 -36 35 -36q25 0 54 11t45 23q55 -43 84 -115.5t29 -159.5
q0 -186 -105 -293q-95 -98 -229 -98q-92 0 -144 36q-56 37 -56 110q0 48 30 83q63 -34 139 -34q123 0 123 44z" />
    <glyph glyph-name="less" unicode="&#x3c;" horiz-adv-x="924" 
d="M698 589l123 -84q98 -67 98 -174q0 -84 -53 -157q-41 -57 -147 -135l-638 343q-76 120 -76 242q0 151 77 258l637 319q84 -63 132 -140t48 -155q0 -115 -72 -182q-89 -83 -317 -139q0 -32 41 -32t147 36z" />
    <glyph glyph-name="equal" unicode="=" horiz-adv-x="954" 
d="M949 353q0 -117 -76 -220h-793q-75 101 -75 220q0 66 17.5 116.5t57.5 109.5h793q40 -59 58 -109.5t18 -116.5zM931 742q-18 -51 -58 -106h-793q-75 104 -75 221q0 66 17.5 116t57.5 109h793q40 -59 58 -109.5t18 -115t-18 -115.5z" />
    <glyph glyph-name="greater" unicode="&#x3e;" horiz-adv-x="902" 
d="M217 628q-109 48 -160.5 118t-51.5 151t48 158t131 139l637 -319q39 -56 57.5 -117t18.5 -141q0 -124 -75 -243l-612 -332q-99 71 -150 139.5t-51 153.5q0 64 33 115q40 62 139 107l213 94q-3 26 -27 26q-9 0 -15.5 -0.5t-134.5 -48.5z" />
    <glyph glyph-name="question" unicode="?" horiz-adv-x="1077" 
d="M563 969q0 49 -39 49q-41 0 -41 -43q0 -14 3.5 -23t4.5 -13q-11 -9 -57 -28q-184 -75 -237 -164q-85 26 -146 106.5t-61 184.5q0 183 151 303t376 120q277 0 426 -141q134 -128 134 -331q0 -122 -53 -217.5t-128.5 -160t-152.5 -101.5q-28 27 -61 42.5t-52.5 15.5
t-27.5 -6.5t-8 -25.5q92 -27 148 -100t56 -169q0 -113 -85 -195q-87 -82 -205 -82t-203 82t-85 195q0 96 54 169q-64 66 -64 153q0 105 57 168q49 52 190 115q58 24 82 46.5t24 50.5z" />
    <glyph glyph-name="at" unicode="@" horiz-adv-x="1737" 
d="M881 548q-33 0 -33 -30q0 -28 38 -28q26 0 39 13t13 45h-57zM840 203q87 0 126 12t39 38q0 6 -3 14q-76 -21 -166 -21q-135 0 -218 64q-93 70 -93 191.5t76.5 187t199.5 65.5q90 0 166 -21q2 10 2 13q0 23 -48.5 37.5t-119.5 14.5q-148 0 -237.5 -77t-89.5 -219.5
t101.5 -220.5t264.5 -78zM860 -213q-236 0 -428 106.5t-300 292.5q-112 190 -112 425q0 194 63 351t176.5 266.5t267.5 166t333 56.5q257 0 451 -103.5t300 -287.5q106 -186 106 -425q0 -405 -222 -625q-223 -223 -635 -223zM615 971q129 43 251 43q183 0 277.5 -85.5
t94.5 -237.5v-158q0 -59 28 -87t68 -28q24 0 24 28q-35 7 -52 26t-17 59v192q0 134 -97 227q-117 112 -326 112q-85 0 -172 -21q-85 -24 -85 -47q0 -13 6 -23z" />
    <glyph glyph-name="A" unicode="A" horiz-adv-x="1349" 
d="M678 649q17 0 29 7q-26 152 -35 180q-11 29 -33 29q-10 0 -24 -6l38 -202q8 -8 25 -8zM455 357q-10 -14 -10 -26q0 -29 54.5 -48.5t132.5 -24.5q13 -144 28 -164q-19 -37 -105 -74.5t-194 -37.5q-143 0 -245 61.5t-102 158.5q0 26 5 46l213 952q80 51 191 80t231 29
q172 0 294 -58q139 -66 169 -191l228 -943q-104 -135 -339 -135q-114 0 -193 41t-92 117l-22 122q60 1 116 23t56 46q0 16 -13 26q-38 -27 -93 -41t-102 -14q-135 0 -208 55z" />
    <glyph glyph-name="B" unicode="B" horiz-adv-x="1226" 
d="M575 391q4 -3 23 -3t29 13t10 46v19q0 37 -8.5 53t-28 16t-26.5 -4q1 -5 1 -17v-123zM575 768q4 -3 23 -3t29 15t10 49v6q0 36 -8.5 51.5t-28 15.5t-26.5 -4q1 -5 1 -17v-113zM32 1153q0 23 38 52q80 61 282 95q105 17 231 17q300 0 454 -116q135 -102 135 -268
q0 -60 -21 -117.5t-60 -86.5q-53 27 -102 27q-23 0 -35 -9t-12 -33q147 -6 229 -106q73 -91 73 -226q0 -209 -175 -304q-164 -89 -494 -89q-231 0 -339 14.5t-156 68.5t-48 164v917z" />
    <glyph glyph-name="C" unicode="C" horiz-adv-x="1268" 
d="M680 398q10 0 18 5v91q68 46 190.5 75t238.5 29q53 -54 88.5 -161.5t37.5 -194.5q-20 -40 -67.5 -86t-114.5 -85q-166 -98 -381 -98q-308 0 -485 179q-183 181 -183 501.5t200 503.5q88 82 205 123.5t246 41.5q252 0 413 -122t161 -301q0 -135 -83 -199.5t-225 -64.5
q-78 0 -157 38.5t-94 72.5q0 82 3 129q-2 1 -7 1h-7q-15 0 -23.5 -8.5t-15 -35.5t-6.5 -147q0 -287 48 -287z" />
    <glyph glyph-name="D" unicode="D" horiz-adv-x="1264" 
d="M637 690q0 100 -9 137.5t-33 37.5q-15 0 -27 -10q2 -18 6 -48t4 -128v-65q0 -68 -3 -99t-5 -53l-2 -24q12 -10 27 -10q24 0 33 37.5t9 137.5v87zM264 -1q-111 0 -171.5 59t-60.5 178v900q0 76 152.5 128.5t340.5 52.5q331 0 517 -160q200 -172 200 -513
q0 -307 -193.5 -476t-531.5 -169h-253z" />
    <glyph glyph-name="E" unicode="E" horiz-adv-x="1112" 
d="M482 1290h577q29 -48 43 -104.5t14 -101.5q0 -101 -39.5 -152t-110.5 -51h-403q-37 0 -37 -29v-8q0 -6 2 -8h478q18 -31 31 -78q12 -51 12 -91q0 -119 -44 -186h-217q-152 0 -206 -11.5t-67 -19.5q-13 -9 -13 -23t14 -22q52 17 109 24q75 7 163 7h281q61 -86 61 -207
q0 -68 -17 -130t-51 -100h-749q-124 0 -199 60q-82 64 -82 188v951q0 48 110 70t340 22z" />
    <glyph glyph-name="F" unicode="F" horiz-adv-x="1093" 
d="M615 329v-253q-46 -40 -122.5 -67t-186 -27t-188.5 49q-87 53 -87 151v1016q0 92 451 92h587q29 -53 43 -118.5t14 -117.5q0 -229 -201 -229h-346q-38 0 -38 -32v-7q0 -6 2 -8h442q51 -87 51 -196q0 -136 -61 -212h-490q-8 -8 -8 -18q0 -16 24.5 -19t55.5 -3t58 -1z" />
    <glyph glyph-name="G" unicode="G" horiz-adv-x="1344" 
d="M692 833h593q57 -83 57 -201.5t-49 -192.5h-41v-300q-197 -171 -520 -171q-197 0 -350 70q-167 75 -259 219q-101 158 -101 388q0 327 196 506q186 171 504 171q157 0 296.5 -47t220.5 -117q0 -60 -14.5 -147t-36.5 -133h-527q-32 -34 -60.5 -98t-28.5 -147
q0 -114 57 -179q50 -59 128 -59q32 0 32 22v23h-11q-66 0 -109.5 51.5t-43.5 147.5q0 120 67 194z" />
    <glyph glyph-name="H" unicode="H" horiz-adv-x="1285" 
d="M1253 1060v-994q-112 -84 -287 -84q-135 0 -214 55q-83 56 -83 162v198h71q41 0 51.5 10.5t10.5 34.5h-314q0 -24 9 -34.5t43 -10.5h76v-331q-77 -50 -146 -67t-141 -17q-135 0 -214 55q-83 56 -83 162v995q52 55 128.5 84.5t159.5 29.5q121 0 205 -60q91 -68 91 -188
v-178h127q0 26 -9.5 35.5t-30.5 9.5h-34v267q52 55 128.5 84.5t159.5 29.5q121 0 205 -60q91 -68 91 -188z" />
    <glyph glyph-name="I" unicode="I" horiz-adv-x="648" 
d="M616 1109v-1033q-46 -40 -123 -67t-187 -27t-187 49q-87 53 -87 150v1033q46 40 123 67t186 27t189 -48q86 -55 86 -151z" />
    <glyph glyph-name="J" unicode="J" horiz-adv-x="1010" 
d="M978 457q0 -211 -134 -343q-142 -142 -392 -142q-143 0 -271 74q-98 56 -149 129q-10 61 -10 111q0 163 99 250q80 70 197 70q89 0 162 -47q74 -50 109 -138q32 0 32 33q0 17 -14.5 45t-41.5 56q-71 73 -171 90v576q50 37 126 62t173 25t175 -34q110 -50 110 -150v-667z
" />
    <glyph glyph-name="K" unicode="K" horiz-adv-x="1273" 
d="M616 1100v-45q-40 -83 -61 -129.5t-21 -63.5q0 -29 33 -29l197 432q69 45 188.5 45t205.5 -66q94 -74 94 -202q0 -107 -73 -210.5t-191 -179.5q-55 31 -99 31t-44 -43q46 -9 83.5 -25.5t88.5 -63.5l266 -245q-29 -324 -324 -324q-109 0 -187 56q-92 65 -144 198l-93 232
h-5q-33 0 -33 -28q0 -18 28 -87q28 -75 84 -200v-77q-105 -94 -305 -94q-108 0 -185 49q-87 53 -87 151v1032q103 94 313 94q109 0 185 -46q86 -55 86 -162z" />
    <glyph glyph-name="L" unicode="L" horiz-adv-x="1068" 
d="M264 -1q-111 0 -171.5 59t-60.5 178v978q53 45 129.5 69.5t158.5 24.5q121 0 205 -60q91 -68 91 -188v-547q-56 -5 -110 -31.5t-54 -54.5q0 -17 19 -29q99 83 294 83h237q66 -116 66 -237q0 -60 -21 -133t-56 -112h-727z" />
    <glyph glyph-name="M" unicode="M" horiz-adv-x="1459" 
d="M1132 -18q-137 0 -215 45q-84 47 -91 133l-9 94q92 22 155 114q17 26 17 45q0 26 -26 26h-3q-1 -1 -4 -1q-70 -147 -227 -147q-80 0 -136.5 35t-103.5 121h-6q-27 0 -27 -23q0 -16 12 -36q40 -67 100 -105q47 -32 99 -38l-8 -189q-60 -39 -126.5 -56.5t-189 -17.5
t-218.5 48q-118 59 -118 164q0 131 52 647q28 269 45 376q103 92 304 92q146 0 242 -54l55 -184l-35 -147q-4 -15 -4 -29q0 -35 40 -36l95 395q41 22 107 38.5t144 16.5q146 0 216.5 -49.5t83.5 -166.5q3 -22 9 -73q91 -782 91 -921q-111 -117 -320 -117z" />
    <glyph glyph-name="N" unicode="N" horiz-adv-x="1246" 
d="M32 185v1002q0 52 83.5 86.5t196.5 34.5q64 0 120.5 -15.5t86.5 -39.5q41 -52 75 -106t153 -252q11 0 20 7t9 21.5t-25 56.5l-108 186v55q51 42 124 65t151 23q127 0 205 -46q91 -55 91 -172v-947q0 -86 -82 -125q-70 -35 -187 -35q-65 0 -126.5 14t-96.5 36
q-71 91 -141 204l-102 170q-29 -4 -29 -31q0 -17 29 -65l125 -202v-53q-116 -75 -261.5 -75t-228 53t-82.5 150z" />
    <glyph glyph-name="O" unicode="O" horiz-adv-x="1347" 
d="M719 690q0 100 -9 137.5t-33 37.5q-15 0 -27 -10q2 -18 6 -48t4 -128v-65q0 -68 -3 -99t-5 -53l-2 -24q12 -10 27 -10q24 0 33 37.5t9 137.5v87zM679 -32q-178 0 -326.5 73.5t-239.5 225t-91 378.5q0 329 198 514q176 163 453 163q301 0 476.5 -186.5t175.5 -490.5
q0 -338 -188 -516q-171 -161 -458 -161z" />
    <glyph glyph-name="P" unicode="P" horiz-adv-x="1199" 
d="M591 671q4 -3 23 -3t29 15t10 49v76q0 36 -8.5 51.5t-28 15.5t-26.5 -4q1 -5 1 -17v-183zM616 219v-153q-44 -37 -124 -60.5t-167 -23.5q-124 0 -203 48q-90 55 -90 159v950q0 32 43.5 64t120.5 58q165 56 377 56q293 0 467 -146t174 -392.5t-157 -383.5
q-151 -130 -419 -130q-61 0 -130.5 14.5t-93.5 25.5q-8 -8 -8 -22q0 -51 210 -64z" />
    <glyph glyph-name="Q" unicode="Q" horiz-adv-x="1439" 
d="M573 473q0 -17 16 -23q24 27 68 47.5t99 20.5q105 0 174 -62l7 -6q13 7 13 25q0 31 -49 59q-57 31 -146 31q-24 0 -44 -4v261q0 43 -29.5 43t-29.5 -44v-274q-79 -32 -79 -74zM655 -1q-173 0 -314 65.5t-225 202.5q-94 155 -94 386t96 389q86 142 233.5 211t317.5 69
q310 0 486.5 -181.5t176.5 -474.5q0 -179 -76 -314h145q36 -108 36 -204q0 -146 -81 -235t-226 -89t-240.5 95.5t-155.5 301.5h-5q-32 0 -32 -32q0 -60 67 -184q-52 -6 -109 -6z" />
    <glyph glyph-name="R" unicode="R" horiz-adv-x="1260" 
d="M591 711q4 -3 23 -3t29 15t10 49v36q0 36 -8.5 51.5t-28 15.5t-26.5 -4q1 -5 1 -17v-143zM1107 483l173 -177q-18 -156 -98.5 -240t-222.5 -84q-107 0 -186 51q-101 64 -151 204l-36 98q-42 1 -106 11q-8 -8 -8 -22q0 -27 81 -32l57 -144v-85q-115 -81 -295 -81
q-129 0 -206 53t-77 154v950q0 44 81 85.5t212 67t262 25.5q300 0 469 -123q178 -129 178 -363q0 -134 -75.5 -229.5t-190.5 -132.5q0 -32 38.5 -32t100.5 46z" />
    <glyph glyph-name="S" unicode="S" horiz-adv-x="1175" 
d="M570 364q33 6 33 33.5t-17.5 62t-51.5 65.5q-89 80 -241 80q-75 0 -140 -25q-69 35 -110 111t-41 164q0 230 192 355q165 107 407 107q180 0 303 -38.5t201 -98.5q23 -66 23 -137t-19 -129t-55 -93q-34 25 -123 51t-162 26t-97.5 -9t-24.5 -28q0 -9 3 -17q35 9 90 9
q195 0 318 -92q145 -110 145 -330q0 -194 -157 -322q-170 -137 -457 -137q-158 0 -274 23.5t-226 82.5q-75 109 -75 221.5t77 186.5t189.5 74t184 -46t105.5 -150z" />
    <glyph glyph-name="T" unicode="T" horiz-adv-x="1207" 
d="M896 779v-703q-46 -40 -123 -67t-187 -27t-187 49q-87 53 -87 150v644h-233q-72 103 -72 225q0 83 26.5 144.5t65.5 95.5h1034q29 -45 48 -109t19 -127q0 -118 -52 -173.5t-140 -55.5h-293q-3 -7 -3 -15q0 -18 21 -24q22 -7 94 -7h69z" />
    <glyph glyph-name="U" unicode="U" horiz-adv-x="1228" 
d="M900 1308q120 0 208 -65t88 -185v-556q0 -254 -155 -391.5t-428.5 -137.5t-425.5 135q-155 135 -155 394v713q118 94 273 94q130 0 206 -68.5t76 -207.5v-583q11 -8 25.5 -8t21 7.5t6.5 28.5v556q0 63 -6 100t-24 74q120 100 290 100z" />
    <glyph glyph-name="V" unicode="V" horiz-adv-x="1266" 
d="M631 1102l-32 -635q12 -3 21 -3q33 0 37 50l44 728q31 27 114 48q79 18 143 18q151 0 226 -69t75 -178q0 -61 -49.5 -273.5t-142.5 -574.5q-34 -127 -153 -183q-104 -48 -275 -48q-108 0 -204 24t-154 69q-79 174 -159 478.5t-120 616.5q94 139 299 139q264 0 330 -207z
" />
    <glyph glyph-name="W" unicode="W" horiz-adv-x="1797" 
d="M587 -17q-97 0 -162 15q-90 19 -132 59q-94 199 -161 436q-93 328 -130 677q45 66 123 102.5t174 36.5q144 0 226.5 -55t82.5 -157q-7 -76 -12.5 -223t-5.5 -266q0 -33 6.5 -51.5t27.5 -18.5q8 0 20 3q-1 9 -1 30v35q0 145 10 334.5t24 282.5q91 56 214 56t198 -34
q90 -42 95 -123q-5 -98 -18.5 -193t-32.5 -219t-24 -164q8 -4 21 -4t24 10t18 48q31 160 51 337.5t26 309.5q92 62 254 62q131 0 209 -69.5t78 -186.5q0 -78 -74 -409q-38 -174 -73 -297.5t-57 -173.5q-46 -101 -137.5 -145.5t-233.5 -44.5q-57 0 -131.5 17t-113.5 38
q-20 31 -45 94t-31 95q-39 -1 -39 -42q0 -32 31 -118q-105 -84 -299 -84z" />
    <glyph glyph-name="X" unicode="X" horiz-adv-x="1286" 
d="M652 235l-116 -226q-75 -28 -163 -28q-155 0 -254 88t-99 237q0 132 89 235t252 173q-12 33 -41 33t-106 -53q-75 39 -131.5 129t-56.5 208t87 202t240 84q132 0 217 -49l106 -211l86 216q85 38 190 38q149 0 242 -82q93 -84 93 -235q0 -125 -89.5 -234.5t-229.5 -173.5
q11 -29 39.5 -29t92.5 44l206 -258q0 -161 -80 -257q-88 -106 -243 -106q-236 0 -331 255z" />
    <glyph glyph-name="Y" unicode="Y" horiz-adv-x="1274" 
d="M442 304q28 0 28 31q-221 147 -337.5 361t-130.5 472q45 67 134.5 103t184.5 36q125 0 215 -49q56 -151 92 -288l-49 -216q-4 -15 -4 -28q0 -34 36 -34q12 38 56 230q11 49 29.5 136.5t47.5 206.5q92 44 210 44q143 0 228 -69.5t85 -200.5q0 -192 -108 -374
q-85 -144 -225 -269v-330q-83 -51 -149 -67.5t-139 -16.5q-138 0 -217 52t-79 155v176q18 -18 46 -39.5t46 -21.5z" />
    <glyph glyph-name="Z" unicode="Z" horiz-adv-x="1142" 
d="M27 1058q0 82 26.5 141.5t62.5 90.5h915q36 -38 65 -113t29 -185q0 -61 -6.5 -87.5t-13.5 -44.5t-14 -38q-106 -150 -267 -302q-145 -5 -215.5 -24.5t-70.5 -47.5q0 -12 10 -23q49 21 134.5 35.5t165.5 14.5h225q67 -119 67 -225t-47 -162t-117 -74q-51 -14 -127 -14
h-733q-104 108 -104 338q0 51 10 95q89 106 208 233t224 227q-4 22 -27 22q-14 0 -38 -19t-74 -73h-215q-73 115 -73 235z" />
    <glyph glyph-name="bracketleft" unicode="[" horiz-adv-x="617" 
d="M463 310q0 -3 2 -13h140q32 -30 52 -84.5t20 -120.5t-25 -117t-54 -74h-350q-122 0 -170 53.5t-48 165.5v1024q0 112 48 165.5t170 53.5h345q32 -30 52 -84.5t20 -120.5t-25 -117t-54 -74h-44v-625h-29q-50 0 -50 -32z" />
    <glyph glyph-name="backslash" unicode="\" horiz-adv-x="756" 
d="M307 1309q80 0 155 -34q59 -29 99 -79l155 -1115q-78 -91 -252 -91q-91 0 -161.5 32t-106.5 84l-156 1098q85 105 267 105z" />
    <glyph glyph-name="bracketright" unicode="]" horiz-adv-x="617" 
d="M104 342h-29v625h-44q-29 23 -54 74t-25 117t20 120.5t52 84.5h345q122 0 170 -53.5t48 -165.5v-1024q0 -112 -48 -165.5t-170 -53.5h-350q-29 23 -54 74t-25 117t20 120.5t52 84.5h140q2 10 2 13q0 32 -50 32z" />
    <glyph glyph-name="asciicircum" unicode="^" horiz-adv-x="938" 
d="M461 874q-21 0 -29 -7.5t-8 -27t30 -168.5l-40 -149q-65 -29 -147 -29t-151 23.5t-96 64.5l186 682q35 19 110.5 32.5t142.5 13.5t141 -11.5t107 -27.5l211 -716q-25 -25 -80.5 -43t-118.5 -18t-97 6t-74 20q-10 34 -17 65q-3 14 -6 26t-8.5 33t-21.5 88.5t-21.5 89
t-6.5 27.5t-6 26z" />
    <glyph glyph-name="underscore" unicode="_" horiz-adv-x="844" 
d="M803.5 116.5q-20.5 -56.5 -63.5 -116.5h-637q-83 114 -83 244q0 72 21 130.5t62 119.5h637q44 -64 64 -121t20 -128.5t-20.5 -128z" />
    <glyph glyph-name="grave" unicode="`" horiz-adv-x="612" 
d="M201 1706q70 0 119.5 -32.5t106.5 -105.5l175 -233q-8 -34 -31.5 -62.5t-52.5 -39.5l-508 171v105q0 82 41 134q49 63 150 63z" />
    <glyph glyph-name="a" unicode="a" horiz-adv-x="1110" 
d="M1043 495q0 -72 16 -116t56 -69q1 -5 1 -19v-18q0 -142 -86 -221q-76 -70 -188 -70q-76 0 -139 36t-90 104q-34 0 -34 -33q0 -28 35 -63q-65 -44 -196 -44q-185 0 -295.5 100.5t-110.5 281t117 279.5q107 89 277 89q58 0 112 -8q36 -7 39 -8q3 10 3 17q0 26 -44 35
t-115 9q-151 0 -258 -61q-49 83 -49 210q0 72 18 107q72 33 183 58.5t234 25.5q254 0 384 -111t130 -315v-196zM524 446q-42 0 -42 -38q0 -36 49 -36q34 0 50 16.5t16 57.5h-73z" />
    <glyph glyph-name="b" unicode="b" horiz-adv-x="1110" 
d="M524 409q10 -10 24 -10q22 0 30 31.5t8 127.5v102q0 27 -7 38t-23 11t-23 -7v-134q0 -60 -9 -159zM564 1228v-89q-84 -5 -154 -25.5t-70 -47.5q0 -16 16 -26q110 54 233 54q220 0 360.5 -151.5t140.5 -394.5q0 -294 -170 -443q-155 -136 -421.5 -136t-392.5 103
q-69 57 -69 148v1141q48 28 115.5 46t136.5 18q115 0 190 -45q85 -53 85 -152z" />
    <glyph glyph-name="c" unicode="c" horiz-adv-x="1074" 
d="M589 -31q-260 0 -414.5 160.5t-154.5 430.5t175 427q156 140 390 140q208 0 345 -102.5t137 -278.5q0 -122 -75.5 -198.5t-198.5 -76.5q-100 0 -166.5 53.5t-78.5 139.5q-44 0 -44 -32q0 -73 72 -134q83 -72 206.5 -72t204.5 53q50 -77 50 -187q0 -128 -110 -219
q-126 -104 -338 -104z" />
    <glyph glyph-name="d" unicode="d" horiz-adv-x="1147" 
d="M602 709q-10 10 -24 10q-22 0 -30 -31.5t-8 -127.5v-102q0 -27 7 -38t23 -11t23 7v134q0 98 9 159zM530 1300q53 62 117 93.5t163 31.5q120 0 195 -67q77 -72 77 -194v-660q0 -149 72 -194q1 -5 1 -19v-18q0 -142 -86 -221q-76 -70 -188 -70q-78 0 -135 33
q-67 38 -94 104q-34 0 -34 -33q0 -15 11.5 -34.5t31.5 -34.5q-59 -35 -153 -35q-127 0 -237.5 58.5t-175.5 176.5q-75 135 -75 327q0 256 143.5 402t366.5 146q132 0 230 -50q11 11 11 23q0 30 -71 51t-143 21q0 102 -27 163z" />
    <glyph glyph-name="e" unicode="e" horiz-adv-x="1132" 
d="M621 -31q-277 0 -437 154q-164 155 -164 424.5t169 427.5q156 147 395 147t383.5 -131.5t144.5 -323.5q0 -171 -119 -258q-110 -82 -300 -82q-142 0 -240 59q-8 -6 -8 -22q0 -30 79 -55q79 -27 179.5 -27t183 25.5t132.5 60.5q24 -21 38.5 -77.5t14.5 -103t-9 -82.5
q-78 -66 -160 -94q-116 -42 -282 -42zM608 646q50 0 50 38q0 36 -53 36t-61 -57q28 -17 64 -17z" />
    <glyph glyph-name="f" unicode="f" horiz-adv-x="936" 
d="M426 -13q-119 0 -190 43q-79 45 -79 133v469h31q50 0 50 33q0 4 -2 12h-166q-58 83 -58 205t58 211h87q24 166 130 254t282 88q126 0 219 -36t136 -82q10 -33 10 -80v-19q0 -103 -30 -181q-69 -27 -193 -27q-51 0 -111.5 7t-89.5 14q-7 -7 -7 -20q0 -17 48 -31.5
t155.5 -14.5t176.5 12q7 -16 13.5 -60.5t6.5 -87.5q0 -92 -34 -152h-185v-621q-109 -69 -258 -69z" />
    <glyph glyph-name="g" unicode="g" horiz-adv-x="1129" 
d="M597 717q0 36 -27 36q-25 0 -25 -30v-103q8 -7 24 -7t22 12t6 44v48zM634 312q-64 0 -109 9q-3 -9 -3 -17q0 -22 31.5 -29.5t80.5 -7.5q156 0 266 46q108 -28 168 -122q49 -77 49 -181q0 -185 -157 -288t-404.5 -103t-382.5 88q-125 80 -125 208q0 49 23 94.5t53 62.5
q50 -42 147.5 -68t200.5 -26t132.5 8t29.5 28q0 10 -6 20q-50 -11 -125 -11q-193 0 -303 55q-134 66 -134 199q0 52 21 96.5t62 66.5q-55 34 -93.5 103t-38.5 170q0 192 144 303t374 111q111 0 214 -37v70q59 23 156.5 23t148.5 -33q62 -40 62 -141q0 -56 -11.5 -90
t-33.5 -71q26 -66 26 -164q0 -177 -125.5 -274.5t-337.5 -97.5z" />
    <glyph glyph-name="h" unicode="h" horiz-adv-x="1146" 
d="M1081 495q0 -72 16 -116t56 -69q1 -5 1 -19v-18q0 -138 -79.5 -214.5t-205 -76.5t-203.5 71q-91 81 -91 246q0 70 6.5 123.5t9 76.5t5.5 43t3 59t-10.5 56t-29 17t-32.5 -8l13 -163q-18 -101 -18 -214t51 -206q-98 -101 -275 -101q-101 0 -175 53q-86 60 -86 159v1167
q48 28 115.5 46t136.5 18q115 0 190 -45q85 -53 85 -152v-95q-87 -5 -167 -50q-69 -40 -69 -73q0 -11 8 -19.5t19 -10.5q42 49 118.5 82t181.5 33t189 -32q106 -40 167 -122q73 -100 73 -251z" />
    <glyph glyph-name="i" unicode="i" horiz-adv-x="611" 
d="M546 900v-396q0 -149 72 -194q1 -5 1 -19v-18q0 -147 -80 -221q-74 -70 -197.5 -70t-203.5 70q-101 89 -101 260v650q18 13 39 21t44 20q-43 22 -78 76.5t-35 127.5q0 126 83 206t203.5 80t202 -81.5t81.5 -204.5q0 -99 -62 -173.5t-151 -93.5q0 -38 29 -38q51 0 104 40
q40 -31 49 -42z" />
    <glyph glyph-name="j" unicode="j" horiz-adv-x="621" 
d="M573 67q0 -221 -109 -335q-98 -101 -251.5 -101t-235.5 71t-82 195q0 45 12 86.5t25 61.5q58 13 135 13t175 -24q7 -3 23 -3q26 0 26 34q-121 35 -203 35q-42 75 -42 198v664q18 13 39 21t44 20q-43 22 -78 76.5t-35 127.5q0 126 83 206t203.5 80t202 -81.5t81.5 -204.5
q0 -99 -62 -173.5t-151 -93.5q0 -38 29 -38q51 0 104 40q1 0 4.5 -2.5t22 -14.5t40.5 -34v-824z" />
    <glyph glyph-name="k" unicode="k" horiz-adv-x="1134" 
d="M534 376l-48 -21q0 -67 26 -143q22 -72 61 -128q-99 -102 -275 -102q-101 0 -175 53q-86 60 -86 159v1167q48 28 115.5 46t136.5 18q115 0 190 -45q85 -53 85 -152v-106q0 -133 -47 -260q-9 -13 -32 -37.5t-36.5 -44.5t-13.5 -34.5t24 -26.5q78 73 122.5 159t81.5 228
q13 2 30 5t56.5 9.5t55.5 6.5q154 0 240 -70.5t86 -193.5t-78 -211q-72 -79 -187 -119q92 -54 232 -77q54 -98 54 -208.5t-70 -184.5q-78 -81 -215.5 -81t-226 105.5t-106.5 288.5z" />
    <glyph glyph-name="l" unicode="l" horiz-adv-x="611" 
d="M546 1207v-703q0 -149 72 -194q1 -5 1 -19v-18q0 -143 -72.5 -217t-205.5 -74t-211 74q-93 88 -93 266v1039q105 64 240.5 64t202 -57.5t66.5 -160.5z" />
    <glyph glyph-name="m" unicode="m" horiz-adv-x="1716" 
d="M1651 495q0 -73 16 -119t56 -71q1 -5 1 -17v-15q0 -137 -80 -214t-206.5 -77t-203.5 69q-91 80 -91 245v316q0 67 -44 67q-17 0 -27 -8l18 -149v-226q0 -136 45 -206q-48 -51 -119.5 -79.5t-145.5 -28.5q-120 0 -186 58q-80 70 -80 221v351q0 67 -44 67q-17 0 -27 -8
l18 -149v-265q0 -112 30 -173q-98 -101 -275 -101q-105 0 -177 53q-83 61 -83 164v478q-59 83 -59 204.5t59 210.5h241q71 0 121 -53q-44 -41 -44 -68q0 -31 35 -31q44 76 121 121q90 51 211 51q92 0 161.5 -39t103.5 -90q47 64 122.5 96.5t157.5 32.5q181 0 281 -112
q98 -112 98 -307z" />
    <glyph glyph-name="n" unicode="n" horiz-adv-x="1155" 
d="M1090 495q0 -72 16 -116t56 -69q1 -5 1 -19v-18q0 -138 -79.5 -214.5t-205 -76.5t-203.5 71q-91 81 -91 246q0 70 6.5 123.5t9 76.5t5.5 43t3 59t-10.5 56t-29 17t-32.5 -8l13 -163q-18 -101 -18 -214t51 -206q-98 -101 -275 -101q-101 0 -175 53q-86 60 -86 159v484
q-59 83 -59 204.5t59 210.5h178q71 0 121 -53q-44 -41 -44 -68q0 -31 35 -31q44 76 134.5 126t205.5 50q173 0 281 -85q136 -107 136 -332z" />
    <glyph glyph-name="o" unicode="o" horiz-adv-x="1160" 
d="M558 557v-175q7 -7 23 -7t23 11t7 38v143q0 96 -8 127.5t-30 31.5q-14 0 -24 -10q9 -99 9 -159zM184 114q-164 158 -164 428.5t154.5 427t405.5 156.5t406 -163q154 -163 154 -424.5t-148.5 -415.5t-403.5 -154t-404 145z" />
    <glyph glyph-name="p" unicode="p" horiz-adv-x="1136" 
d="M558 540v-134q7 -7 23 -7t23 11t7 38v102q0 96 -8 127.5t-30 31.5q-14 0 -24 -10q9 -99 9 -159zM239 971q0 -30 35 -30q60 94 141 139.5t195 45.5t208 -36q129 -51 204 -164q94 -143 94 -375q0 -261 -139.5 -405.5t-386.5 -144.5q-138 0 -215 34q-7 -4 -7 -17
q0 -30 46.5 -43t160.5 -19v-266q-103 -46 -226 -46q-145 0 -219 53q-84 57 -84 175v805q-59 83 -59 206q0 50 16 109t43 101h142q87 0 133 -24q-82 -61 -82 -98z" />
    <glyph glyph-name="q" unicode="q" horiz-adv-x="1138" 
d="M609 709q-10 10 -24 10q-22 0 -30 -31.5t-8 -127.5v-102q0 -27 7 -38t23 -11t23 7v134q0 98 9 159zM1092 898v-674q-16 4 -56 4q-98 0 -160 -46q-53 -38 -53 -78q0 -26 34 -26q57 100 181 100q95 0 158 -77q43 -50 80 -141l-192 -191q-79 -79 -143.5 -111.5t-148.5 -32.5
t-136 22.5t-74 49.5l-30 302q-235 13 -374 145q-158 148 -158 405q0 204 92 343q79 121 222 181q125 53 276 53q183 0 334 -72q69 -33 108.5 -74t39.5 -82z" />
    <glyph glyph-name="r" unicode="r" horiz-adv-x="949" 
d="M315 -13q-119 0 -190 43q-79 45 -79 133v515q-59 83 -59 204.5t59 210.5h153q118 0 169 -76q-25 -28 -44 -71t-19 -61.5t9.5 -27.5t27.5 -9q35 139 133 204q81 55 200 55q148 0 232 -63q30 -80 30 -195.5t-46 -209.5q-34 -18 -94 -30.5t-121 -12.5t-109.5 8.5t-70.5 15.5
q-8 -8 -8 -23t19.5 -22.5t65.5 -16.5v-502q-109 -69 -258 -69z" />
    <glyph glyph-name="s" unicode="s" horiz-adv-x="1043" 
d="M567 784q-26 -8 -26 -31v-5q0 -5 1 -6q11 1 29 1h24q114 0 213.5 -34.5t162.5 -110.5q70 -86 70 -217q0 -204 -141 -308t-377 -104t-369.5 78t-133.5 229q0 56 24 102.5t54 65.5q55 -46 159.5 -79.5t221.5 -33.5q47 0 47 26q0 12 -3 20q-7 -1 -17 -1h-11q-212 0 -339 84
q-144 95 -144 268t129 280q143 118 393 118q123 0 229.5 -26t182.5 -69q19 -41 19 -121q0 -122 -67 -187q-51 28 -124.5 46.5t-132.5 18.5t-74 -4z" />
    <glyph glyph-name="t" unicode="t" horiz-adv-x="887" 
d="M148 632h62q50 0 50 33q0 4 -2 12h-224q-22 70 -22 156.5t13 140.5q57 36 157 110q28 68 73 216q6 20 14 39q78 20 178 20t197 -21v-245h173q58 -88 58 -207q0 -54 -15 -111t-43 -97h-143v-151q0 -128 107 -128h43q21 -76 21 -132q0 -138 -86.5 -211.5t-251 -73.5
t-262 91.5t-97.5 269.5v289z" />
    <glyph glyph-name="u" unicode="u" horiz-adv-x="1149" 
d="M568 436q12 0 26 10q-10 33 -10 103v494q106 64 255 64q84 0 147.5 -22.5t97.5 -59.5v-521q0 -149 72 -194q1 -5 1 -19v-18q0 -146 -77 -221q-70 -70 -193 -70q-77 0 -139.5 35t-93.5 102q-34 0 -34 -33q0 -23 23 -46q-32 -26 -77 -42t-132.5 -16t-170.5 36
q-103 44 -158 135q-67 108 -67 274v251q-51 89 -51 196q0 55 14 114t45 105h220q124 0 194.5 -58.5t70.5 -177.5v-324q0 -97 37 -97z" />
    <glyph glyph-name="v" unicode="v" horiz-adv-x="1046" 
d="M488 489v-24q0 -17 1 -24q12 -5 23 -5q29 0 29 39q0 102 24 384q13 153 16 180q94 63 225.5 63t203.5 -70q64 -64 64 -166q0 -69 -19 -143q-93 -359 -185 -565q-49 -107 -149 -146q-74 -30 -211 -30q-73 0 -144.5 12t-109.5 28q-145 296 -239 655q-31 31 -53 87t-22 116
q0 124 60 213h249q131 0 195 -74q48 -56 62 -163q-20 -186 -20 -367z" />
    <glyph glyph-name="w" unicode="w" horiz-adv-x="1565" 
d="M509 557q0 -58 5 -78q6 -32 33 -32h9q3 0 9 2q-3 27 -3 78t5 167t5 338q99 68 227 68q100 0 165.5 -39t90.5 -111q0 -34 -7 -139q-21 -251 -61 -380q11 -6 23.5 -6t19.5 8q29 33 55 238q21 200 26 307q1 38 3 58q38 29 101.5 46.5t132.5 17.5q117 0 191 -64.5t74 -172.5
q0 -80 -32 -219t-87 -295.5t-89 -218.5q-48 -86 -114.5 -117t-205.5 -31q-42 0 -109 9t-92 19q-21 34 -49.5 100t-40.5 102q-38 -6 -38 -33q0 -8 13 -44.5t19 -49.5q-3 -6 -15 -31.5t-26 -44.5q-77 -27 -222.5 -27t-248.5 41q-80 110 -138.5 263t-98.5 392q-66 86 -66 207
t60 210h242q142 0 198 -67q43 -52 43 -168z" />
    <glyph glyph-name="x" unicode="x" horiz-adv-x="1129" 
d="M328 1126q60 0 138 -26q4 -7 11.5 -21.5t18.5 -35.5t18 -34.5t21.5 -41t19 -37t10.5 -21t9 -17.5l64 209q34 12 86 18.5t90 6.5q143 0 220 -79t77 -200t-89 -213q-75 -78 -196 -117q0 -34 34 -34q29 0 100 38q26 -38 71 -98t98 -132q-4 -141 -82 -225t-196.5 -84
t-192.5 63t-106 169l-80 -193q-69 -40 -174 -40q-125 0 -211.5 80.5t-86.5 214.5q0 165 174 276q25 16 104 52q-8 26 -34 26q-39 0 -92 -40q-54 33 -98.5 103t-44.5 151q0 135 91 212q85 70 228 70z" />
    <glyph glyph-name="y" unicode="y" horiz-adv-x="1094" 
d="M520 505v-23q0 -16 1 -23q10 -5 22 -5q29 0 29 44q0 147 16.5 305.5t35.5 244.5q81 59 216 59t208.5 -52.5t73.5 -126.5q0 -31 -37 -256q-41 -229 -105 -482q-13 -51 -46.5 -143t-71.5 -153q-119 -189 -294 -234q-82 -21 -165 -21q-161 0 -249 80q-81 72 -81 178.5
t63 200.5q15 4 55 4t100 -10q166 -31 169 -31q7 -1 15.5 -2.5t22.5 -1.5t24 8t10 32l-236 45q-87 36 -151 151q-79 142 -107 385q-66 86 -66 206t60 209h257q129 0 193 -74q47 -55 60 -161q-22 -174 -22 -353z" />
    <glyph glyph-name="z" unicode="z" horiz-adv-x="993" 
d="M968 837q0 -27 -8 -78.5t-19 -82.5q-93 -128 -223 -216q-128 -6 -187.5 -26t-59.5 -45q0 -16 11 -24q42 23 116 36.5t142 13.5h193q26 -45 42 -100.5t16 -97.5q0 -116 -63 -172q-50 -45 -137 -45h-713q-89 93 -89 290q0 72 26 171q91 101 258 229q33 26 74 61
q-6 23 -27 23q-4 0 -14 -2q-29 -9 -121 -95h-124q-59 97 -59 208q0 70 22 124t54 84h825q65 -95 65 -256z" />
    <glyph glyph-name="braceleft" unicode="{" horiz-adv-x="646" 
d="M611 -1q-106 -72 -246 -72q-111 0 -186 62.5t-75 185.5v140q0 72 -19 106t-65 35q-30 57 -30 182.5t28 191.5q101 2 101 137v147q0 123 75 185.5t186 62.5q140 0 246 -72q-25 -71 -25 -250v-195q0 -84 -30.5 -128.5t-82.5 -66.5q-36 21 -72.5 21t-40.5 -32
q98 -20 147 -63q67 -59 67 -168v-151q0 -192 22 -258z" />
    <glyph glyph-name="bar" unicode="|" horiz-adv-x="520" 
d="M272 -193q-122 0 -179.5 48.5t-57.5 131.5l1 1469q30 22 87 41t125 19q122 0 179.5 -45t57.5 -125v-1469q-31 -25 -88.5 -47.5t-124.5 -22.5z" />
    <glyph glyph-name="braceright" unicode="}" horiz-adv-x="646" 
d="M20 1290q106 72 246 72q111 0 186 -62.5t75 -185.5v-147q0 -135 101 -137q28 -66 28 -191.5t-30 -182.5q-46 -1 -65 -35t-19 -106v-140q0 -123 -75 -185.5t-186 -62.5q-140 0 -246 72q22 66 22 258v151q0 109 67 168q49 43 147 63q-4 32 -40.5 32t-72.5 -21
q-113 44 -113 195v195q0 177 -25 250z" />
    <glyph glyph-name="asciitilde" unicode="~" horiz-adv-x="1001" 
d="M894 366q-77 -66 -210 -66t-271 46q-27 9 -73 23h-283q-27 94 -27 206t77.5 178.5t209 66.5t263.5 -44q35 -11 81 -25h283q27 -94 27 -206.5t-77 -178.5z" />
    <glyph glyph-name="uni00A0" unicode="&#xa0;" horiz-adv-x="480" 
 />
    <glyph glyph-name="exclamdown" unicode="&#xa1;" horiz-adv-x="678" 
d="M190 849q52 -23 90 -23q42 0 42 40q-115 8 -193.5 92t-78.5 201t85 201t204.5 84t204 -84.5t84.5 -202.5q0 -80 -40.5 -147.5t-107.5 -106.5q60 -104 96 -242.5t36 -276.5v-326q-40 -29 -104.5 -48.5t-140.5 -19.5q-149 0 -216 76t-67 254v64q0 234 106 465z" />
    <glyph glyph-name="cent" unicode="&#xa2;" horiz-adv-x="1086" 
d="M2 559q0 224 121 372q110 133 291 178q0 35 -28 35q-16 0 -47 -10t-55 -22v102q31 42 102.5 68.5t153.5 26.5q127 0 202 -52t75 -156v-22q230 -105 230 -336q0 -119 -75.5 -195.5t-198.5 -76.5q-100 0 -166.5 53.5t-78.5 139.5q-44 0 -44 -32q0 -73 72 -134
q83 -72 207 -72q66 0 124 20t92 48q58 -89 58 -203t-98 -206t-257 -96v-8q0 -34 40.5 -34t94.5 18v-74q-84 -95 -260 -95q-121 0 -197 53t-76 155v48q-129 69 -205.5 201.5t-76.5 305.5z" />
    <glyph glyph-name="sterling" unicode="&#xa3;" horiz-adv-x="1077" 
d="M56 839h100q23 -78 64 -78q13 0 21 8q-59 79 -59 192q0 173 133 266q117 82 293.5 82t275 -79.5t98.5 -196.5q0 -66 -39.5 -112t-113.5 -46h-33q-15 50 -69 50q-38 0 -55 -18.5t-17 -37.5t8 -30h370q29 -78 29 -149t-13 -130.5t-31 -94.5q-70 44 -208 44q-97 0 -189 -44
q-37 -19 -60 -40.5t-23 -39.5t18 -29q46 46 92 70q73 38 174 38q142 0 228 -79q75 -71 75 -173q0 -174 -140 -247q-52 19 -106.5 25.5t-137.5 6.5h-630q-54 81 -54 221q0 76 15 149q64 4 91 22t27 37h-122q-46 89 -46 205.5t34 207.5z" />
    <glyph glyph-name="currency" unicode="&#xa4;" horiz-adv-x="1151" 
d="M543 725v-162q0 -51 7 -66.5t22 -15.5t21 16q5 18 5 66v163q0 47 -5 64q-6 15 -21.5 15t-22 -14.5t-6.5 -65.5zM337 126l-67 -50q-93 36 -165 112t-95 172l46 44q-43 105 -43 239.5t41 242.5l-44 42q24 102 97 179.5t166 114.5l60 -49q112 44 238 44t238 -50l69 55
q93 -37 166 -114.5t97 -179.5l-60 -57q40 -105 40 -230t-37 -227l57 -54q-23 -98 -97 -175q-68 -73 -163 -109l-71 52q-109 -43 -237 -43t-236 41z" />
    <glyph glyph-name="yen" unicode="&#xa5;" horiz-adv-x="1125" 
d="M833 227v-156q-92 -92 -259 -92q-130 0 -198 52q-73 54 -73 164v77h-203q-39 74 -39 174t29 178h123q1 2 1 14t-9 20t-20 9.5t-30 1.5h-40q-163 198 -163 520q48 46 126 78t183 32q134 0 219 -53q15 -36 27.5 -86t38.5 -179q-7 -35 -40 -183q-2 -11 -4 -22.5t-5 -23.5
t-3 -28q0 -32 33 -32q26 85 93 402q11 49 33 139q29 29 92 52.5t137 23.5q132 0 211.5 -68t79.5 -182q0 -152 -129 -333l-75 -102h60q29 -78 29 -178t-39 -174h-284v-9q0 -21 12.5 -28.5t45.5 -7.5h40z" />
    <glyph glyph-name="brokenbar" unicode="&#xa6;" horiz-adv-x="530" 
d="M277 -193q-122 0 -179.5 48.5t-57.5 131.5l1 624q50 36 128 52q-129 35 -129 167v626q33 23 89 41.5t124 18.5q122 0 179.5 -45t57.5 -125v-626q-51 -42 -131 -61q131 -34 131 -158v-624q-31 -25 -88.5 -47.5t-124.5 -22.5z" />
    <glyph glyph-name="section" unicode="&#xa7;" horiz-adv-x="1055" 
d="M1053 583q0 -58 -27.5 -114.5t-66.5 -84.5q-83 74 -251 131q-64 21 -151 46q-181 49 -291 95q-137 56 -193 152q-29 50 -29 118q0 159 114 260q137 122 402 122q233 0 398 -91q19 -41 19 -107.5t-18.5 -112.5t-44.5 -65q-111 67 -278 67q-43 0 -63 -10.5t-20 -26.5
q0 -8 1 -11q13 1 33 1h34q181 0 296 -83q136 -98 136 -286zM2 508q0 74 30.5 127t63.5 66q106 -98 401 -179q175 -47 292 -95q138 -59 193 -153q29 -50 29 -119q0 -159 -114 -260q-137 -122 -402 -122q-131 0 -232 27.5t-166 63.5q-19 41 -19 107.5t18.5 112.5t44.5 65
q111 -67 278 -67q43 0 63 10.5t20 22.5t-1 15q-13 -1 -33 -1h-34q-180 0 -295 83q-137 99 -137 296z" />
    <glyph glyph-name="dieresis" unicode="&#xa8;" horiz-adv-x="714" 
d="M198 1700q101 0 159 -86q59 86 157 86q78 0 134 -56t56 -134.5t-52 -133t-136 -54.5q-103 0 -157 79q-53 -81 -159 -81q-84 0 -137 55t-53 133.5t54.5 135t133.5 56.5z" />
    <glyph glyph-name="copyright" unicode="&#xa9;" horiz-adv-x="1309" 
d="M664 -15q-176 0 -324.5 70.5t-233.5 212.5q-96 158 -96 383.5t91 385.5q80 141 232 219q140 70 313 70q297 0 475 -184t178 -486q0 -339 -185 -513q-167 -158 -450 -158zM512 454q67 -60 167 -60q79 0 127 25t48 47.5t-23 30.5q-61 -58 -146 -58t-139 57q-59 59 -59 162
t56 158.5t142 55.5t142 -46q14 12 14 24q0 25 -44 46t-116 21q-109 0 -179 -68t-70 -196.5t80 -198.5z" />
    <glyph glyph-name="ordfeminine" unicode="&#xaa;" horiz-adv-x="696" 
d="M676 858q0 -98 49 -128q1 -3 1 -9v-9q0 -95 -45.5 -147.5t-138.5 -52.5q-49 0 -87.5 22t-52.5 64q-29 0 -29 -25q0 -15 14 -41q-45 -20 -109 -20q-123 0 -195 67q-75 67 -75 183.5t80 174.5t193 58q60 0 90 -10q4 5 4 15q0 20 -21.5 30t-75.5 10q-99 0 -171 -37
q-47 50 -47 131q0 52 11 78q126 56 269 56q167 0 251.5 -75t84.5 -215v-120zM342 814q-28 0 -28 -24.5t32 -24.5q45 0 45 49h-49z" />
    <glyph glyph-name="guillemotleft" unicode="&#xab;" horiz-adv-x="1261" 
d="M776 998l218 155q114 -34 176 -130q48 -78 48 -173q0 -57 -13 -115l-205 -134v-7q0 -9 7 -16.5t21.5 -7.5t34 9t62.5 37q58 -27 89.5 -93.5t31.5 -132.5q0 -108 -90 -193q-71 -68 -156 -97l-205 162q21 51 21 112q0 160 -203 276l155 112q16 76 16 159q0 45 -8 77z
M15 650q0 118 36 215l454 351q114 -34 176 -130q48 -78 48 -173q0 -68 -13 -125l-255 -177v-7q0 -23 30 -23q17 0 77 35l39 -21q72 -40 113.5 -100.5t41.5 -121.5q0 -105 -83 -193q-64 -66 -149 -107l-464 352q-23 38 -37 100t-14 125z" />
    <glyph glyph-name="logicalnot" unicode="&#xac;" horiz-adv-x="1300" 
d="M1037 912q115 0 168 -54.5t53 -146.5l2 -485q-71 -45 -131 -61t-129 -16q-125 0 -198.5 47.5t-73.5 142.5v105h78q31 0 31 27q0 17 -7 25h-752q-58 83 -58 205t58 211h959z" />
    <glyph glyph-name="uni00AD" unicode="&#xad;" horiz-adv-x="741" 
d="M700.5 482.5q-20.5 -56.5 -63.5 -116.5h-534q-83 114 -83 244q0 72 21 130.5t62 119.5h534q44 -64 64 -121t20 -128.5t-20.5 -128z" />
    <glyph glyph-name="registered" unicode="&#xae;" horiz-adv-x="744" 
d="M370 1064q96 0 96 -72q0 -65 -95 -65q-51 0 -67 3v127q33 7 66 7zM507 991q0 106 -135 106q-30 0 -67.5 -7.5t-37.5 -12.5v-277q0 -15 18 -15q12 0 19 6v107q38 -2 67 -2h9q5 0 8 1l60 -80q25 -32 38.5 -32t21 5.5t7.5 13.5l-91 97q83 16 83 90zM124 643
q-114 99 -114 287t108 289q96 90 256 90t260 -103t100 -273q0 -191 -104 -288q-93 -89 -250 -89t-256 87z" />
    <glyph glyph-name="macron" unicode="&#xaf;" horiz-adv-x="738" 
d="M718 1438q0 -93 -61 -188h-576q-61 91 -61 188t61 188h576q61 -95 61 -188z" />
    <glyph glyph-name="degree" unicode="&#xb0;" horiz-adv-x="654" 
d="M327 1073q-16 0 -21 -15q-7 -17 -7 -67.5t7 -66t22 -15.5t21 16q5 18 5 66t-5 66q-6 16 -22 16zM110 747q-100 85 -100 243.5t100 245.5q84 73 223 73t225 -86q86 -88 86 -239t-87.5 -231t-224.5 -80t-222 74z" />
    <glyph glyph-name="plusminus" unicode="&#xb1;" horiz-adv-x="1030" 
d="M782 472h147q81 -115 81 -242t-81 -230h-829q-80 106 -80 233q0 69 18 121.5t62 117.5h153q8 -82 77 -138.5t193 -56.5q186 0 259 128v67zM511 1308q117 0 183.5 -55.5t66.5 -161.5v-58h178q45 -67 63 -119t18 -120.5t-19.5 -122.5t-61.5 -112h-207v-139q-32 -50 -91 -74
t-119 -24q-102 0 -162 48t-60 150v39h-210q-42 57 -61 111.5t-19 123t18.5 122t61.5 117.5h209q28 0 37.5 7.5t9.5 26.5v10h-74v133q83 98 239 98z" />
    <glyph glyph-name="uni00B2" unicode="&#xb2;" horiz-adv-x="719" 
d="M54 795q128 20 224 75q117 68 117 152q0 22 -12.5 33.5t-29 11.5t-28.5 -10t-12 -32t23 -46q-33 -45 -78 -70.5t-139 -58.5q-115 72 -115 207q0 117 94 189t259 72t259.5 -88t94.5 -223q0 -101 -72 -171t-189 -90q-1 -2 -1 -9q0 -26 30 -26t88.5 27.5t87.5 57.5
q58 -59 58 -157.5t-57 -155.5h-587q-50 74 -50 163t35 149z" />
    <glyph glyph-name="uni00B3" unicode="&#xb3;" horiz-adv-x="760" 
d="M154 874h23q10 -1 23 -1q6 -70 58 -113t118 -43q42 0 42 28q0 5 -2 15q-10 -2 -14 -2h-11q-62 0 -103 38t-41 99t41 99t103 38h11q4 0 14 -2q2 10 2 15q0 28 -42 28q-62 0 -113 -38t-62 -103q-75 0 -127 33q-66 42 -66 125q0 101 98 165q101 64 269.5 64t266.5 -74.5
t98 -195.5q0 -73 -47 -120q-34 17 -52 17t-25 -6.5t-7 -15t5 -20.5q54 0 97 -43q49 -51 49 -136q0 -131 -103.5 -198.5t-275 -67.5t-276.5 71.5t-105 191.5q0 67 39 109.5t115 42.5z" />
    <glyph glyph-name="acute" unicode="&#xb4;" horiz-adv-x="625" 
d="M560 1411q-35 -35 -108 -62l-348 -127q-29 11 -52.5 39.5t-31.5 62.5l226 328q77 54 165.5 54t141 -54.5t52.5 -125t-45 -115.5z" />
    <glyph glyph-name="mu" unicode="&#xb5;" horiz-adv-x="1164" 
d="M128 -273q-75 55 -75 175q0 53 11 126.5t19 93.5q34 -37 62 -37t28 26q0 4 -2 12q-118 57 -118 278v291q-51 89 -51 196q0 55 14 114t45 105h220q124 0 194.5 -58.5t70.5 -177.5v-338q0 -56 11 -76.5t24.5 -20.5t27.5 10q-10 33 -10 103v508q106 64 255 64
q84 0 147.5 -22.5t97.5 -59.5v-535q0 -149 72 -194q1 -5 1 -19v-18q0 -145 -70.5 -218t-189.5 -73q-62 0 -94 22q36 16 36 35t-17 31q-37 -29 -99.5 -49.5t-144.5 -20.5t-125 14q-8 -14 -8 -24q0 -19 29.5 -27t92.5 -8v-205q-102 -76 -243.5 -76t-210.5 53z" />
    <glyph glyph-name="paragraph" unicode="&#xb6;" horiz-adv-x="1144" 
d="M444 1307h75v-825h-69q-199 0 -315.5 110.5t-116.5 295t112 302t314 117.5zM574 -147v1456h528v-1340q0 -101 -80 -153q-73 -49 -193 -49q-156 0 -255 86z" />
    <glyph glyph-name="periodcentered" unicode="&#xb7;" horiz-adv-x="573" 
d="M119 825q69 69 166.5 69t168.5 -69q69 -71 69 -168.5t-69 -166.5q-71 -69 -168.5 -69t-166.5 69t-69 166.5t69 168.5z" />
    <glyph glyph-name="cedilla" unicode="&#xb8;" horiz-adv-x="615" 
d="M225 -34q0 16 -9.5 26t-37.5 16l-45 9v62q0 69 42 109.5t113.5 40.5t111.5 -40t40 -102v-24q73 -30 109 -75q46 -58 46 -140q0 -119 -93 -184q-80 -57 -205 -57t-201 53.5t-76 148.5t75 139q32 -15 73 -15q57 0 57 33z" />
    <glyph glyph-name="uni00B9" unicode="&#xb9;" horiz-adv-x="550" 
d="M126 764q48 0 80 10.5t32 29.5t-7 29q-45 -17 -99 -17q-72 0 -122 50t-50 145q0 67 26 121q9 2 25 6.5t28.5 7.5t23.5 6q81 19 135 66q31 26 59 72h153q66 0 98 -26.5t32 -99.5v-612q-72 -76 -203 -76q-100 0 -155.5 40t-55.5 121v127z" />
    <glyph glyph-name="ordmasculine" unicode="&#xba;" horiz-adv-x="773" 
d="M372 973v-179q5 -4 15 -4q23 0 30.5 23t7.5 83.5t-11 85.5q-5 14 -21 14q-21 0 -21 -23zM129 602q-119 101 -119 290t118 290q103 87 267 87t266 -102t102 -282.5t-104.5 -275.5t-266 -95t-263.5 88z" />
    <glyph glyph-name="guillemotright" unicode="&#xbb;" horiz-adv-x="1249" 
d="M788 698q-16 0 -41 -16l-40 -22l-180 128q-13 58 -13 125q0 95 49 173q60 96 175 130l460 -356q36 -97 36 -215q0 -63 -14 -125t-37 -100l-426 -337q-85 29 -156 97q-90 85 -90 193q0 118 168 211l140 78q0 36 -31 36zM62 1022q56 97 164 129l243 -167q-9 -22 -9 -81
t18 -137l181 -131q-110 -64 -154.5 -124.5t-44.5 -137.5q0 -47 18 -98l-223 -174q-76 24 -145 90q-84 79 -84 181.5t156 189.5l99 54q0 36 -30 36q-11 0 -21 -6l-36 -17l-166 106q-13 45 -13 126t47 161z" />
    <glyph glyph-name="onequarter" unicode="&#xbc;" horiz-adv-x="1486" 
d="M1065 486h-17q-17 -27 -60 -70l1 -16h76v86zM1379 106v-81q-82 -54 -204 -54q-77 0 -122 12.5t-86 37.5v44h26q34 0 34 29q0 9 -5 19h-175q-149 0 -185 131q-34 -1 -34 -38t39 -72l-93 -202q-60 -38 -163 -38t-188.5 46t-97.5 112l190 413q40 -8 80 -8q69 0 69 36
q0 9 -3 16q-29 -5 -66 -5q-109 0 -169.5 44t-60.5 132v140q54 0 88.5 11t34.5 32q0 25 -8 33q-47 -19 -108 -19q-81 0 -135.5 55t-54.5 159q0 70 29 132q13 4 84 22q137 32 213 151h167q75 0 106 -25q39 -33 39 -111v-134l-81 -171q-6 -11 -6 -23q0 -28 36 -33l228 480
q64 39 164.5 39t187 -47.5t97.5 -110.5l-159 -337h-47q-39 0 -39 -35v-7q0 -6 1 -9h180q80 0 133 -32q64 -39 64 -114v-264q-50 0 -50 -29v-8q0 -3 2 -13h107q26 -70 26 -160q0 -126 -85 -146z" />
    <glyph glyph-name="onehalf" unicode="&#xbd;" horiz-adv-x="1521" 
d="M1202 273q0 -23 28 -23q46 0 105 22.5t100 57.5q26 -23 45 -69t19 -85q0 -124 -62 -186h-644q-43 85 -51 183l106 233q30 -8 70 -8q108 0 171 58q52 46 52 102q0 28 -28 28q-6 0 -15 -3q-32 -140 -192 -140q-47 0 -85 20l-247 -531q-60 -38 -163 -38t-188.5 46t-97.5 112
l190 413q40 -8 80 -8q69 0 69 36q0 9 -3 16q-29 -5 -66 -5q-109 0 -169.5 44t-60.5 132v140q54 0 88.5 11t34.5 32q0 25 -8 33q-47 -19 -108 -19q-81 0 -135.5 55t-54.5 159q0 70 29 132q13 4 84 22q137 32 213 151h167q75 0 106 -25q39 -33 39 -111v-134l-81 -171
q-6 -11 -6 -23q0 -28 36 -33l228 480q64 39 164.5 39t187 -47.5t97.5 -110.5l-155 -308q-95 0 -95 -32q0 -13 3 -19q45 9 97 9q183 0 293 -100q107 -101 107 -255q0 -108 -81 -184t-210 -83z" />
    <glyph glyph-name="threequarters" unicode="&#xbe;" horiz-adv-x="1577" 
d="M1156 496h-17q-17 -27 -60 -70l1 -16h76v86zM459 1119q0 28 -37 28q-65 0 -122 -45.5t-70 -129.5q-7 -1 -28 -1h-27q-73 0 -113 48t-40 118q0 119 107.5 195t290.5 76q114 0 214.5 -47.5t128.5 -125.5l-87 -180q-7 -15 -7 -25q0 -29 39 -31l180 380q64 39 164.5 39
t187 -47.5t97.5 -110.5l-159 -337h-47q-39 0 -39 -35v-7q0 -6 1 -9h180q80 0 133 -32q64 -39 64 -114v-264q-50 0 -50 -29v-8q0 -3 2 -13h107q26 -70 26 -160q0 -126 -85 -146v-81q-82 -54 -204 -54q-77 0 -122 12.5t-86 37.5v44h26q34 0 34 29q0 9 -5 19h-195
q-146 0 -182 131q-37 0 -37 -36q0 -21 14.5 -48.5t32.5 -41.5l-81 -186q-60 -38 -163 -38t-188.5 46t-97.5 112l177 376q14 -2 27 -2q69 0 95 13.5t26 32.5q0 8 -3 15q-63 -16 -118 -16q-180 0 -294 77.5t-114 208.5q0 74 42 120t127 46h24q10 -1 25 -1q12 -74 68 -120
t118 -46q26 0 26 26q0 7 -3 16q-67 5 -112.5 43.5t-45.5 106.5t52 114q50 42 123 42z" />
    <glyph glyph-name="questiondown" unicode="&#xbf;" horiz-adv-x="1003" 
d="M474 153q0 -49 39 -49q41 0 41 43q0 15 -3.5 23.5t-4.5 12.5q11 9 57 28q180 74 237 164q84 -25 143.5 -112.5t59.5 -193.5q0 -182 -153 -295t-380 -113q-270 0 -416 141q-134 130 -134 331q0 123 58 226q48 88 122 151.5t154 101.5q28 -27 61 -42.5t52.5 -15.5t27 6.5
t8.5 25.5q-90 24 -147 97t-57 172q0 115 85 196t204.5 81t204 -81.5t84.5 -195.5q0 -98 -55 -169q65 -65 65 -153q0 -106 -55 -165.5t-192 -117.5q-59 -26 -82.5 -48t-23.5 -49z" />
    <glyph glyph-name="Agrave" unicode="&#xc0;" horiz-adv-x="1349" 
d="M678 649q17 0 29 7q-26 152 -35 180q-11 29 -33 29q-10 0 -24 -6l38 -202q8 -8 25 -8zM455 357q-10 -14 -10 -26q0 -29 54.5 -48.5t132.5 -24.5q13 -144 28 -164q-19 -37 -105 -74.5t-194 -37.5q-143 0 -245 61.5t-102 158.5q0 26 5 46l213 952q80 51 191 80t231 29
q172 0 294 -58q139 -66 169 -191l228 -943q-104 -135 -339 -135q-114 0 -193 41t-92 117l-22 122q60 1 116 23t56 46q0 16 -13 26q-38 -27 -93 -41t-102 -14q-135 0 -208 55zM517 1706q70 0 119.5 -32.5t106.5 -105.5l201 -267q-127 53 -295 53q-67 0 -138 -11l-185 61v105
q0 82 41 134q49 63 150 63z" />
    <glyph glyph-name="Aacute" unicode="&#xc1;" horiz-adv-x="1349" 
d="M678 649q17 0 29 7q-26 152 -35 180q-11 29 -33 29q-10 0 -24 -6l38 -202q8 -8 25 -8zM455 357q-10 -14 -10 -26q0 -29 54.5 -48.5t132.5 -24.5q13 -144 28 -164q-19 -37 -105 -74.5t-194 -37.5q-143 0 -245 61.5t-102 158.5q0 26 5 46l213 952q80 51 191 80t231 29
q172 0 294 -58q139 -66 169 -191l228 -943q-104 -135 -339 -135q-114 0 -193 41t-92 117l-22 122q60 1 116 23t56 46q0 16 -13 26q-38 -27 -93 -41t-102 -14q-135 0 -208 55zM655 1354q-144 0 -274 -40l232 338q77 54 165.5 54t141 -54.5t52.5 -125t-41 -111.5t-129 -72
q-61 11 -147 11z" />
    <glyph glyph-name="Acircumflex" unicode="&#xc2;" horiz-adv-x="1349" 
d="M678 649q17 0 29 7q-26 152 -35 180q-11 29 -33 29q-10 0 -24 -6l38 -202q8 -8 25 -8zM455 357q-10 -14 -10 -26q0 -29 54.5 -48.5t132.5 -24.5q13 -144 28 -164q-19 -37 -105 -74.5t-194 -37.5q-143 0 -245 61.5t-102 158.5q0 26 5 46l213 952q80 51 191 80t231 29
q172 0 294 -58q139 -66 169 -191l228 -943q-104 -135 -339 -135q-114 0 -193 41t-92 117l-22 122q60 1 116 23t56 46q0 16 -13 26q-38 -27 -93 -41t-102 -14q-135 0 -208 55zM604 1406q0 -16 10 -53q-169 -6 -306 -65l114 349q38 21 99.5 33.5t114.5 12.5q141 0 217 -39
l125 -360q-119 65 -312 70q-13 40 -25 84q-22 0 -29.5 -8t-7.5 -24z" />
    <glyph glyph-name="Atilde" unicode="&#xc3;" horiz-adv-x="1349" 
d="M455 357q-10 -14 -10 -26q0 -29 54.5 -48.5t132.5 -24.5q13 -144 28 -164q-19 -37 -105 -74.5t-194 -37.5q-143 0 -245 61.5t-102 158.5q0 26 5 46l213 952q130 85 322 105q136 -47 233 -47q63 0 95 19q199 -67 235 -217l228 -943q-104 -135 -339 -135q-114 0 -193 41
t-92 117l-22 122q60 1 116 23t56 46q0 16 -13 26q-38 -27 -93 -41t-102 -14q-135 0 -208 55zM678 649q17 0 29 7q-26 152 -35 180q-11 29 -33 29q-10 0 -24 -6l38 -202q8 -8 25 -8zM932 1366q-48 -63 -143 -63t-191 34q-26 9 -40 13q-140 -23 -170 -34q0 1 -6 64.5t-6 116.5
q0 93 40 145q47 62 145 62q59 0 90 -8t40 -10.5t16.5 -5t24.5 -8.5t30 -10h200q10 -70 10 -157t-40 -139z" />
    <glyph glyph-name="Adieresis" unicode="&#xc4;" horiz-adv-x="1349" 
d="M678 649q17 0 29 7q-26 152 -35 180q-11 29 -33 29q-10 0 -24 -6l38 -202q8 -8 25 -8zM455 357q-10 -14 -10 -26q0 -29 54.5 -48.5t132.5 -24.5q13 -144 28 -164q-19 -37 -105 -74.5t-194 -37.5q-143 0 -245 61.5t-102 158.5q0 26 5 46l213 952q80 51 191 80t231 29
q172 0 294 -58q139 -66 169 -191l228 -943q-104 -135 -339 -135q-114 0 -193 41t-92 117l-22 122q60 1 116 23t56 46q0 16 -13 26q-38 -27 -93 -41t-102 -14q-135 0 -208 55zM474 1700q101 0 159 -86q59 86 157 86q78 0 134 -56t56 -128t-36 -120t-95 -66q-85 20 -166 23
q-29 19 -48 48q-20 -30 -50 -50q-85 -6 -159 -25q-63 15 -101.5 65t-38.5 123t54.5 129.5t133.5 56.5z" />
    <glyph glyph-name="Aring" unicode="&#xc5;" horiz-adv-x="1349" 
d="M455 357q-10 -14 -10 -26q0 -29 54.5 -48.5t132.5 -24.5q13 -144 28 -164q-19 -37 -105 -74.5t-194 -37.5q-143 0 -245 61.5t-102 158.5q0 26 5 46l213 952q69 40 166 72q22 -34 60.5 -65t66.5 -31q25 0 28 31q-70 30 -112 94q-44 63 -44 143q0 107 75 182t182 75
t182 -75t75 -182q0 -90 -56 -160q102 -27 171 -82.5t91 -141.5l228 -943q-104 -135 -339 -135q-114 0 -193 41t-92 117l-22 122q60 1 116 23t56 46q0 16 -13 26q-38 -27 -93 -41t-102 -14q-135 0 -208 55zM678 649q17 0 29 7q-26 152 -35 180q-11 29 -33 29q-10 0 -24 -6
l38 -202q8 -8 25 -8z" />
    <glyph glyph-name="AE" unicode="&#xc6;" horiz-adv-x="1791" 
d="M455 357q-10 -14 -10 -26q0 -29 54.5 -48.5t132.5 -24.5q13 -144 28 -164q-19 -37 -105 -74.5t-194 -37.5q-143 0 -245 61.5t-102 158.5q0 26 5 46l213 952q80 51 191 80t231 29q156 0 248 -52q63 33 125 33h711q29 -48 43 -104.5t14 -101.5q0 -101 -39.5 -152
t-110.5 -51h-403q-37 0 -37 -29v-8q0 -6 2 -8h478q18 -31 31 -78q12 -51 12 -91q0 -119 -44 -186h-217q-152 0 -205.5 -11.5t-67.5 -19.5q-13 -9 -13 -23t14 -22q52 17 109 24q75 7 163 7h281q61 -86 61 -207q0 -68 -17 -130t-51 -100h-787q-107 0 -170 53q-57 46 -72 132
l-13 78q60 1 116 23t56 46q0 16 -13 26q-38 -27 -93 -41t-102 -14q-135 0 -208 55zM688 649q17 0 29 7q-26 152 -35 180q-11 29 -33 29q-10 0 -24 -6l38 -202q8 -8 25 -8z" />
    <glyph glyph-name="Ccedilla" unicode="&#xc7;" horiz-adv-x="1258" 
d="M670 398q10 0 18 5v91q68 46 190.5 75t238.5 29q53 -54 88.5 -161.5t37.5 -194.5q-31 -60 -100 -115q-86 -70 -196 -109q-31 40 -67 63.5t-61 23.5q-36 0 -37 -32q155 -60 155 -225q0 -119 -93 -184q-80 -57 -205 -57t-201 53.5t-76 148.5t75 139q32 -15 73 -15
q57 0 57 27q0 9 -6 15t-28 10q-243 43 -382 217t-139 455q0 317 200 500q88 82 205 123.5t246 41.5q252 0 413 -122t161 -301q0 -135 -83 -199.5t-225 -64.5q-78 0 -157 38.5t-94 72.5q0 82 3 129q-2 1 -7 1h-7q-15 0 -23.5 -8.5t-15 -35.5t-6.5 -147q0 -287 48 -287z" />
    <glyph glyph-name="Egrave" unicode="&#xc8;" horiz-adv-x="1112" 
d="M482 1290h577q29 -48 43 -104.5t14 -101.5q0 -101 -39.5 -152t-110.5 -51h-403q-37 0 -37 -29v-8q0 -6 2 -8h478q18 -31 31 -78q12 -51 12 -91q0 -119 -44 -186h-217q-152 0 -206 -11.5t-67 -19.5q-13 -9 -13 -23t14 -22q52 17 109 24q75 7 163 7h281q61 -86 61 -207
q0 -68 -17 -130t-51 -100h-749q-124 0 -199 60q-82 64 -82 188v951q0 48 110 70t340 22zM434 1706q69 0 121.5 -33t104.5 -105q2 -2 38.5 -52.5t51 -69t32 -42.5t30.5 -41t21 -28h-385l-205 69v105q0 82 41 134q49 63 150 63z" />
    <glyph glyph-name="Eacute" unicode="&#xc9;" horiz-adv-x="1112" 
d="M482 1290h577q29 -48 43 -104.5t14 -101.5q0 -101 -39.5 -152t-110.5 -51h-403q-37 0 -37 -29v-8q0 -6 2 -8h478q18 -31 31 -78q12 -51 12 -91q0 -119 -44 -186h-217q-152 0 -206 -11.5t-67 -19.5q-13 -9 -13 -23t14 -22q52 17 109 24q75 7 163 7h281q61 -86 61 -207
q0 -68 -17 -130t-51 -100h-749q-124 0 -199 60q-82 64 -82 188v951q0 48 110 70t340 22zM341 1330l222 322q77 54 165.5 54t141 -54.5t52.5 -125t-45 -115.5q-35 -35 -108 -62l-39 -14h-271l-91 -3q-19 0 -27 -2z" />
    <glyph glyph-name="Ecircumflex" unicode="&#xca;" horiz-adv-x="1112" 
d="M482 1290h577q29 -48 43 -104.5t14 -101.5q0 -101 -39.5 -152t-110.5 -51h-403q-37 0 -37 -29v-8q0 -6 2 -8h478q18 -31 31 -78q12 -51 12 -91q0 -119 -44 -186h-217q-152 0 -206 -11.5t-67 -19.5q-13 -9 -13 -23t14 -22q52 17 109 24q75 7 163 7h281q61 -86 61 -207
q0 -68 -17 -130t-51 -100h-749q-124 0 -199 60q-82 64 -82 188v951q0 48 110 70t340 22zM250 1324l102 313q38 21 99.5 33.5t114.5 12.5q141 0 217 -39l108 -309h-279q-19 57 -26 86q-4 9 -5 17q-21 0 -29 -7.5t-8 -25t16 -70.5h-90q-161 0 -220 -11z" />
    <glyph glyph-name="Edieresis" unicode="&#xcb;" horiz-adv-x="1112" 
d="M482 1290h577q29 -48 43 -104.5t14 -101.5q0 -101 -39.5 -152t-110.5 -51h-403q-37 0 -37 -29v-8q0 -6 2 -8h478q18 -31 31 -78q12 -51 12 -91q0 -119 -44 -186h-217q-152 0 -206 -11.5t-67 -19.5q-13 -9 -13 -23t14 -22q52 17 109 24q75 7 163 7h281q61 -86 61 -207
q0 -68 -17 -130t-51 -100h-749q-124 0 -199 60q-82 64 -82 188v951q0 48 110 70t340 22zM439 1335q-11 -1 -41.5 -2t-49.5 -2q-57 20 -89.5 68.5t-32.5 108.5q0 79 54.5 135.5t133.5 56.5q101 0 159 -86q59 86 157 86q78 0 134 -56t56 -135q0 -60 -31 -107t-85 -67h-146
q-50 19 -83 66q-30 -45 -80 -66h-56z" />
    <glyph glyph-name="Igrave" unicode="&#xcc;" horiz-adv-x="648" 
d="M616 1109v-1033q-46 -40 -123 -67t-187 -27t-187 49q-87 53 -87 150v1033q46 40 123 67t186 27t189 -48q86 -55 86 -151zM170 1706q69 0 121.5 -33t104.5 -105q2 -2 38.5 -52.5t51 -69t32 -42.5t30.5 -41t21 -28q-5 -17 -21 -30q-86 48 -216 48q-76 0 -150 -18l-203 69
v105q0 82 41 134q49 63 150 63z" />
    <glyph glyph-name="Iacute" unicode="&#xcd;" horiz-adv-x="648" 
d="M616 1109v-1033q-46 -40 -123 -67t-187 -27t-187 49q-87 53 -87 150v1033q46 40 123 67t186 27t189 -48q86 -55 86 -151zM71 1324l226 328q77 54 165.5 54t141 -54.5t52.5 -125t-45 -115.5q-35 -35 -108 -62l-34 -12q-84 16 -152 16q-130 0 -238 -55q-1 3 -2.5 7
t-1.5 5.5t-4 13.5z" />
    <glyph glyph-name="Icircumflex" unicode="&#xce;" horiz-adv-x="648" 
d="M616 1109v-1033q-46 -40 -123 -67t-187 -27t-187 49q-87 53 -87 150v1033q46 40 123 67t186 27t189 -48q86 -55 86 -151zM313 1683q127 0 197 -39l107 -307q-4 -11 -17.5 -28t-26.5 -23q-82 62 -230 67q-11 35 -25 85q-21 0 -29 -7.5t-8 -24t10 -54.5q-138 -10 -234 -66
q-25 20 -36 51l98 300q38 21 92 33.5t102 12.5z" />
    <glyph glyph-name="Idieresis" unicode="&#xcf;" horiz-adv-x="648" 
d="M616 1109v-1033q-46 -40 -123 -67t-187 -27t-187 49q-87 53 -87 150v1033q46 40 123 67t186 27t189 -48q86 -55 86 -151zM152 1700q101 0 159 -86q59 86 157 86q78 0 134 -56t56 -131t-42 -125.5t-111 -62.5q-63 24 -143 27q-29 20 -49 49q-23 -33 -53 -52
q-59 -6 -126 -28q-73 6 -121.5 59.5t-48.5 130t54.5 133t133.5 56.5z" />
    <glyph glyph-name="Eth" unicode="&#xd0;" horiz-adv-x="1395" 
d="M709 387q29 0 57 49q44 82 44 200t-44 211q-20 42 -51 42q-16 0 -30 -20q31 -37 50.5 -99t19.5 -136.5t-30 -151.5q-25 -57 -45 -77q10 -18 29 -18zM164 922v214q0 48 74 88.5t186 62t232 21.5q332 0 517 -160q200 -173 200 -520q0 -299 -194 -464t-531 -165h-253
q-111 0 -171 59t-60 178v165h-63q-30 30 -54.5 91t-24.5 139t19 141.5t53 104.5h176q0 21 -8 33t-33 12h-65z" />
    <glyph glyph-name="Ntilde" unicode="&#xd1;" horiz-adv-x="1246" 
d="M331 -10q-126 0 -202 26t-97 61v1120q0 50 77.5 80.5t181.5 30.5q144 0 233 -60q54 -68 223 -353q11 0 20 8t9 24t-25 55l-108 186v53q12 12 51 34q13 -3 48 -3q92 0 144 36q14 9 32 21q127 0 205 -46q91 -55 91 -172v-939q0 -82 -96 -126q-81 -36 -169.5 -36t-124 6
t-85.5 23q-78 100 -137 191.5t-123 197.5q-29 -4 -29 -31q0 -19 29 -65l104 -164v-100q-91 -58 -252 -58zM541 1354h-204q-6 54 -6 145t40 143q47 62 145 62q59 0 90 -8t40 -10.5t16.5 -5t24.5 -8.5t30 -10h200q10 -70 10 -157t-40 -139q-48 -63 -151.5 -63t-194.5 51z" />
    <glyph glyph-name="Ograve" unicode="&#xd2;" horiz-adv-x="1347" 
d="M719 690q0 100 -9 137.5t-33 37.5q-15 0 -27 -10q2 -18 6 -48t4 -128v-65q0 -68 -3 -99t-5 -53l-2 -24q12 -10 27 -10q24 0 33 37.5t9 137.5v87zM679 -32q-178 0 -326.5 73.5t-239.5 225t-91 378.5q0 329 198 514q176 163 453 163q301 0 476.5 -186.5t175.5 -490.5
q0 -338 -188 -516q-171 -161 -458 -161zM511 1352l-158 52v105q0 82 41 134q49 63 150 63q69 0 121.5 -33t104.5 -105q19 -28 35 -47q44 -60 79 -109t73 -97q-27 9 -66.5 22.5t-118.5 24.5q-48 5 -114 5t-147 -15z" />
    <glyph glyph-name="Oacute" unicode="&#xd3;" horiz-adv-x="1347" 
d="M719 690q0 100 -9 137.5t-33 37.5q-15 0 -27 -10q2 -18 6 -48t4 -128v-65q0 -68 -3 -99t-5 -53l-2 -24q12 -10 27 -10q24 0 33 37.5t9 137.5v87zM679 -32q-178 0 -326.5 73.5t-239.5 225t-91 378.5q0 329 198 514q176 163 453 163q301 0 476.5 -186.5t175.5 -490.5
q0 -338 -188 -516q-171 -161 -458 -161zM438 1333l220 319q77 54 165.5 54t141 -54.5t52.5 -125t-45 -115.5q-40 -38 -113 -65q-102 21 -209.5 21t-211.5 -34z" />
    <glyph glyph-name="Ocircumflex" unicode="&#xd4;" horiz-adv-x="1347" 
d="M719 690q0 100 -9 137.5t-33 37.5q-15 0 -27 -10q2 -18 6 -48t4 -128v-65q0 -68 -3 -99t-5 -53l-2 -24q12 -10 27 -10q24 0 33 37.5t9 137.5v87zM679 -32q-178 0 -326.5 73.5t-239.5 225t-91 378.5q0 329 198 514q176 163 453 163q301 0 476.5 -186.5t175.5 -490.5
q0 -338 -188 -516q-171 -161 -458 -161zM641 1368q-176 -13 -300 -71l112 340q38 21 99.5 33.5t114.5 12.5q141 0 217 -39l120 -345q-139 59 -312 68l-20 71q-21 0 -29 -7.5t-8 -26t6 -36.5z" />
    <glyph glyph-name="Otilde" unicode="&#xd5;" horiz-adv-x="1347" 
d="M22 645q0 291 154 469q138 159 368 198q114 -54 241 -54q72 0 120 30q199 -64 309.5 -233t110.5 -410q0 -338 -188 -516q-171 -161 -458 -161q-178 0 -326.5 73.5t-239.5 225t-91 378.5zM719 690q0 100 -9 137.5t-33 37.5q-15 0 -27 -10q2 -18 6 -48t4 -128v-65
q0 -68 -3 -99t-5 -53l-2 -24q12 -10 27 -10q24 0 33 37.5t9 137.5v87zM540 1358q-30 -5 -81.5 -19t-73.5 -23q-11 92 -11 181q0 93 40 145q47 62 145 62q59 0 90 -8t40 -10.5t16.5 -5t24.5 -8.5t30 -10h200q10 -70 10 -157t-40 -139q-48 -63 -149 -63t-241 55z" />
    <glyph glyph-name="Odieresis" unicode="&#xd6;" horiz-adv-x="1347" 
d="M719 690q0 100 -9 137.5t-33 37.5q-15 0 -27 -10q2 -18 6 -48t4 -128v-65q0 -68 -3 -99t-5 -53l-2 -24q12 -10 27 -10q24 0 33 37.5t9 137.5v87zM679 -32q-178 0 -326.5 73.5t-239.5 225t-91 378.5q0 329 198 514q176 163 453 163q301 0 476.5 -186.5t175.5 -490.5
q0 -338 -188 -516q-171 -161 -458 -161zM362 1651q51 56 140 56q109 0 156 -88q49 89 163 89q81 0 133 -50t52 -143q0 -69 -33 -114t-89 -64q-89 24 -167 28q-41 28 -53 71q-12 -42 -51 -73q-84 -5 -160 -27q-66 18 -104 65t-38 120.5t51 129.5z" />
    <glyph glyph-name="multiply" unicode="&#xd7;" horiz-adv-x="1065" 
d="M210.5 556q8.5 -6 27 -6t26.5 21l-259 229q13 119 128 231t232 137l171 -170l168 171q116 -25 229.5 -140t126.5 -234l-4 -5l-143 -135q-10 8 -25 20.5t-20 16.5q-18 15 -38.5 15t-26.5 -21l257 -229q-13 -120 -126.5 -235t-229.5 -140l-168 172l-171 -171
q-119 27 -233 138t-127 231l148 150q4 -4 12.5 -11t12 -10t10.5 -8.5t10.5 -8t12 -8.5z" />
    <glyph glyph-name="Oslash" unicode="&#xd8;" horiz-adv-x="1332" 
d="M587 409q19 0 29 24l178 443q-14 12 -27 12t-26 -11t-26 -48l-147 -372q-5 -17 -5 -24q0 -24 24 -24zM676 -18q-66 0 -135 11l-33 -57q-3 -1 -11 -1h-11q-94 0 -185.5 42.5t-143.5 115.5l32 76q-169 177 -169 485q0 331 193 511q173 161 444 161q62 0 121 -9l37 67h22
q95 0 199 -52q86 -43 135 -118l-35 -76q176 -185 176 -484q0 -340 -185 -514q-168 -158 -451 -158z" />
    <glyph glyph-name="Ugrave" unicode="&#xd9;" horiz-adv-x="1228" 
d="M900 1308q120 0 208 -65t88 -185v-556q0 -254 -155 -391.5t-428.5 -137.5t-425.5 135q-155 135 -155 394v713q118 94 273 94q130 0 206 -68.5t76 -207.5v-583q11 -8 25.5 -8t21 7.5t6.5 28.5v556q0 63 -6 100t-24 74q120 100 290 100zM487 1706q70 0 119.5 -32.5
t106.5 -105.5l159 -214q-138 -7 -235 -64l-341 114v105q0 82 41 134q49 63 150 63z" />
    <glyph glyph-name="Uacute" unicode="&#xda;" horiz-adv-x="1228" 
d="M900 1308q120 0 208 -65t88 -185v-556q0 -254 -155 -391.5t-428.5 -137.5t-425.5 135q-155 135 -155 394v713q118 94 273 94q130 0 206 -68.5t76 -207.5v-583q11 -8 25.5 -8t21 7.5t6.5 28.5v556q0 63 -6 100t-24 74q120 100 290 100zM891 1412q-34 -34 -108 -63l-45 -17
q-30 -8 -67 -25l-107 -39q-68 69 -194 84l207 300q77 54 165.5 54t141 -54.5t52.5 -124.5t-45 -115z" />
    <glyph glyph-name="Ucircumflex" unicode="&#xdb;" horiz-adv-x="1228" 
d="M900 1308q120 0 208 -65t88 -185v-556q0 -254 -155 -391.5t-428.5 -137.5t-425.5 135q-155 135 -155 394v713q118 94 273 94q130 0 206 -68.5t76 -207.5v-583q11 -8 25.5 -8t21 7.5t6.5 28.5v556q0 63 -6 100t-24 74q120 100 290 100zM591 1261l-12 -10q-83 105 -275 105
h-11q-8 0 -11 -1l91 282q39 21 96 33.5t108 12.5q147 0 227 -39l101 -289h-5q-145 0 -263 -65l-45 148q-21 0 -29 -7.5t-8 -24t7 -41.5t16 -58t13 -46z" />
    <glyph glyph-name="Udieresis" unicode="&#xdc;" horiz-adv-x="1228" 
d="M900 1308q120 0 208 -65t88 -185v-556q0 -254 -155 -391.5t-428.5 -137.5t-425.5 135q-155 135 -155 394v713q118 94 273 94q130 0 206 -68.5t76 -207.5v-583q11 -8 25.5 -8t21 7.5t6.5 28.5v556q0 63 -6 100t-24 74q120 100 290 100zM262 1508q0 79 54.5 135.5
t133.5 56.5q101 0 159 -86q59 86 157 86q78 0 134 -56t56 -135q0 -104 -82 -157q-86 -5 -149 -26q-76 17 -114 75q-39 -62 -128 -80q-62 27 -143 32q-78 56 -78 155z" />
    <glyph glyph-name="Yacute" unicode="&#xdd;" horiz-adv-x="1274" 
d="M442 304q28 0 28 31q-221 147 -337.5 361t-130.5 472q45 67 134.5 103t184.5 36q125 0 215 -49q56 -151 92 -288l-49 -216q-4 -15 -4 -28q0 -34 36 -34q12 38 56 230q11 49 29.5 136.5t47.5 206.5q92 44 210 44q143 0 228 -69.5t85 -200.5q0 -192 -108 -374
q-85 -144 -225 -269v-330q-83 -51 -149 -67.5t-139 -16.5q-138 0 -217 52t-79 155v176q18 -18 46 -39.5t46 -21.5zM926 1411q-35 -35 -108 -62l-232 -85l-16 28q-72 38 -171 53l213 307q77 54 165.5 54t141 -54.5t52.5 -125t-45 -115.5z" />
    <glyph glyph-name="Thorn" unicode="&#xde;" horiz-adv-x="1196" 
d="M581 584q4 -3 23 -3t29 15t10 49v36q0 36 -8.5 51.5t-28 15.5t-26.5 -4q1 -5 1 -17v-143zM315 -18q-123 0 -199 49q-84 52 -84 153v920q0 102 80.5 153t204.5 51q69 0 133.5 -12.5t133.5 -54.5v-65q-87 0 -117.5 -9t-30.5 -31v-11q94 6 141 6q286 0 446.5 -137
t160.5 -363t-154.5 -344.5t-421.5 -118.5q-98 0 -134 10q-8 -8 -8 -21t21 -21t93 -12v-76q-107 -66 -265 -66z" />
    <glyph glyph-name="germandbls" unicode="&#xdf;" horiz-adv-x="1274" 
d="M1025 555q56 0 119 45q59 -24 94.5 -94.5t35.5 -169.5q0 -188 -146 -281q-118 -77 -295 -77q-70 0 -138.5 13.5t-109.5 33.5q-49 73 -49 185q0 56 20.5 103t50.5 76q58 -35 145 -35q52 0 52 34q0 6 -3 11h-34q-105 0 -166 56q-66 58 -66 157t60 161t142 75q1 1 1 6v5
q0 27 -24 27q-73 0 -144 -65q-88 -79 -88 -204q0 -66 25.5 -124t56.5 -81q-81 -87 -81 -200t54 -203q-95 -27 -195 -27q-148 0 -229 75q-81 72 -81 198v482q0 279 171 429.5t455 150.5q250 0 408 -120t158 -317q0 -119 -65 -195t-164 -90q-3 -9 -3 -15q0 -25 33 -25z" />
    <glyph glyph-name="agrave" unicode="&#xe0;" horiz-adv-x="1110" 
d="M1043 495q0 -72 16 -116t56 -69q1 -5 1 -19v-18q0 -142 -86 -221q-76 -70 -188 -70q-76 0 -139 36t-90 104q-34 0 -34 -33q0 -28 35 -63q-65 -44 -196 -44q-185 0 -295.5 100.5t-110.5 281t117 279.5q107 89 277 89q58 0 112 -8q36 -7 39 -8q3 10 3 17q0 26 -44 35
t-115 9q-151 0 -258 -61q-49 83 -49 210q0 72 18 107q72 33 183 58.5t234 25.5q254 0 384 -111t130 -315v-196zM524 446q-42 0 -42 -38q0 -36 49 -36q34 0 50 16.5t16 57.5h-73zM399 1524q71 0 123 -32.5t103 -105.5q33 -46 98.5 -139t101.5 -138q-117 53 -292 53
q-70 0 -120 -8l-205 68v105q0 82 41 134q49 63 150 63z" />
    <glyph glyph-name="aacute" unicode="&#xe1;" horiz-adv-x="1110" 
d="M1043 495q0 -72 16 -116t56 -69q1 -5 1 -19v-18q0 -142 -86 -221q-76 -70 -188 -70q-76 0 -139 36t-90 104q-34 0 -34 -33q0 -28 35 -63q-65 -44 -196 -44q-185 0 -295.5 100.5t-110.5 281t117 279.5q107 89 277 89q58 0 112 -8q36 -7 39 -8q3 10 3 17q0 26 -44 35
t-115 9q-151 0 -258 -61q-49 83 -49 210q0 72 18 107q72 33 183 58.5t234 25.5q254 0 384 -111t130 -315v-196zM524 446q-42 0 -42 -38q0 -36 49 -36q34 0 50 16.5t16 57.5h-73zM539 1162q-128 0 -256 -32l235 340q77 54 165.5 54t141 -54.5t52.5 -126t-53 -119.5
q-38 -35 -116 -65l-23 -9q-84 12 -146 12z" />
    <glyph glyph-name="acircumflex" unicode="&#xe2;" horiz-adv-x="1110" 
d="M1043 495q0 -72 16 -116t56 -69q1 -5 1 -19v-18q0 -142 -86 -221q-76 -70 -188 -70q-76 0 -139 36t-90 104q-34 0 -34 -33q0 -28 35 -63q-65 -44 -196 -44q-185 0 -295.5 100.5t-110.5 281t117 279.5q107 89 277 89q58 0 112 -8q36 -7 39 -8q3 10 3 17q0 26 -44 35
t-115 9q-151 0 -258 -61q-49 83 -49 210q0 72 18 107q72 33 183 58.5t234 25.5q254 0 384 -111t130 -315v-196zM524 446q-42 0 -42 -38q0 -36 49 -36q34 0 50 16.5t16 57.5h-73zM503 1162q-156 -8 -301 -50l109 344q38 21 99.5 33.5t114.5 12.5q141 0 217 -39l127 -374
q-129 69 -314 74q-20 69 -25 94q-21 0 -29 -7t-8 -23.5t10 -64.5z" />
    <glyph glyph-name="atilde" unicode="&#xe3;" horiz-adv-x="1110" 
d="M766 1086q277 -87 277 -395v-196q0 -72 16 -116t56 -69q1 -5 1 -19v-18q0 -142 -86 -221q-76 -70 -188 -70q-76 0 -139 36t-90 104q-34 0 -34 -33q0 -28 35 -63q-65 -44 -196 -44q-185 0 -295.5 100.5t-110.5 281t117 279.5q107 89 277 89q58 0 112 -8q36 -7 39 -8
q3 10 3 17q0 26 -44 35t-115 9q-151 0 -258 -61q-49 83 -49 210q0 72 18 107q139 63 317 79q118 -46 229 -46q72 0 108 20zM524 446q-42 0 -42 -38q0 -36 49 -36q34 0 50 16.5t16 57.5h-73zM658 1112q-70 0 -119.5 13t-68.5 21q-43 13 -45 14q-82 -10 -167 -30
q-11 112 -11 195.5t40 135.5q47 62 145 62q59 0 90 -8t40 -10.5t16.5 -5t24.5 -8.5t30 -10h200q10 -70 10 -159t-40 -144q-48 -66 -145 -66z" />
    <glyph glyph-name="adieresis" unicode="&#xe4;" horiz-adv-x="1110" 
d="M1043 495q0 -72 16 -116t56 -69q1 -5 1 -19v-18q0 -142 -86 -221q-76 -70 -188 -70q-76 0 -139 36t-90 104q-34 0 -34 -33q0 -28 35 -63q-65 -44 -196 -44q-185 0 -295.5 100.5t-110.5 281t117 279.5q107 89 277 89q58 0 112 -8q36 -7 39 -8q3 10 3 17q0 26 -44 35
t-115 9q-151 0 -258 -61q-49 83 -49 210q0 72 18 107q72 33 183 58.5t234 25.5q254 0 384 -111t130 -315v-196zM524 446q-42 0 -42 -38q0 -36 49 -36q34 0 50 16.5t16 57.5h-73zM361 1518q101 0 159 -86q59 86 157 86q78 0 134 -56t56 -129t-36 -122t-108 -69q-30 8 -77 14
t-65 6q-35 22 -59 57q-21 -32 -59 -57q-80 -6 -146 -21q-67 17 -105.5 67.5t-38.5 123.5t54.5 129.5t133.5 56.5z" />
    <glyph glyph-name="aring" unicode="&#xe5;" horiz-adv-x="1110" 
d="M94 926q0 72 18 107q77 34 181 58q27 -40 64 -66t67 -26q25 0 28 31q-75 32 -115.5 94t-40.5 143q0 107 75 182t182 75t182 -75t75 -179.5t-61 -179.5q294 -84 294 -399v-196q0 -72 16 -116t56 -69q1 -5 1 -19v-18q0 -142 -86 -221q-76 -70 -188 -70q-76 0 -139 36
t-90 104q-34 0 -34 -33q0 -28 35 -63q-65 -44 -196 -44q-185 0 -295.5 100.5t-110.5 281t117 279.5q107 89 277 89q58 0 112 -8q36 -7 39 -8q3 10 3 17q0 26 -44 35t-115 9q-151 0 -258 -61q-49 83 -49 210zM524 446q-42 0 -42 -38q0 -36 49 -36q34 0 50 16.5t16 57.5h-73z
" />
    <glyph glyph-name="ae" unicode="&#xe6;" horiz-adv-x="1780" 
d="M899 87q32 35 32 63q0 11 -8 20.5t-24 9.5q-48 -92 -166 -145t-275 -53q-203 0 -324.5 101t-121.5 281t117 279q107 89 277 89q58 0 112 -8q36 -7 39 -8q3 10 3 17q0 26 -44 35t-115 9q-151 0 -258 -61q-49 83 -49 210q0 72 18 107q72 33 183 58.5t234 25.5
q205 0 342 -74q-49 -39 -49 -70q0 -20 22 -25q63 84 171.5 129t218.5 45q237 0 381.5 -131.5t144.5 -323.5q0 -171 -119 -258q-110 -82 -300 -82q-142 0 -240 59q-8 -6 -8 -22q0 -30 79 -55q79 -27 179.5 -27t183 25.5t132.5 60.5q24 -21 38.5 -77.5t14.5 -103t-9 -82.5
q-67 -60 -173.5 -98t-241.5 -38t-241 34.5t-156 83.5zM1256 646q50 0 50 38q0 36 -53 36t-61 -57q28 -17 64 -17zM525 446q-42 0 -42 -38q0 -36 49 -36q34 0 50 16.5t16 57.5h-73z" />
    <glyph glyph-name="ccedilla" unicode="&#xe7;" horiz-adv-x="1074" 
d="M987 479q12 -21 15 -26q35 -58 35 -161q0 -89 -53.5 -159t-125.5 -105q-29 35 -61.5 55t-61 20t-32.5 -30q155 -60 155 -225q0 -119 -93 -184q-80 -57 -205 -57t-201 53.5t-76 148.5t75 139q32 -15 73 -15q57 0 57 33q0 16 -12 25q-215 35 -335.5 185t-120.5 383
q0 271 175 428q156 140 390 140q208 0 345 -102.5t137 -278.5q0 -122 -75.5 -198.5t-198.5 -76.5q-100 0 -166.5 53.5t-78.5 139.5q-44 0 -44 -32q0 -73 72 -134q83 -72 205 -72t206 53z" />
    <glyph glyph-name="egrave" unicode="&#xe8;" horiz-adv-x="1132" 
d="M621 -31q-277 0 -437 154q-164 155 -164 424.5t169 427.5q156 147 395 147t383.5 -131.5t144.5 -323.5q0 -171 -119 -258q-110 -82 -300 -82q-142 0 -240 59q-8 -6 -8 -22q0 -30 79 -55q79 -27 179.5 -27t183 25.5t132.5 60.5q24 -21 38.5 -77.5t14.5 -103t-9 -82.5
q-78 -66 -160 -94q-116 -42 -282 -42zM608 646q50 0 50 38q0 36 -53 36t-61 -57q28 -17 64 -17zM448 1524q71 0 123 -32.5t99 -101t123 -172t96 -125.5q-121 79 -309 79q-58 0 -133 -13l-190 63v105q0 82 41 134q49 63 150 63z" />
    <glyph glyph-name="eacute" unicode="&#xe9;" horiz-adv-x="1132" 
d="M621 -31q-277 0 -437 154q-164 155 -164 424.5t169 427.5q156 147 395 147t383.5 -131.5t144.5 -323.5q0 -171 -119 -258q-110 -82 -300 -82q-142 0 -240 59q-8 -6 -8 -22q0 -30 79 -55q79 -27 179.5 -27t183 25.5t132.5 60.5q24 -21 38.5 -77.5t14.5 -103t-9 -82.5
q-78 -66 -160 -94q-116 -42 -282 -42zM608 646q50 0 50 38q0 36 -53 36t-61 -57q28 -17 64 -17zM585 1173q-146 0 -257 -53l242 350q77 54 165.5 54t141 -54.5t52.5 -125t-45 -115.5q-35 -35 -108 -62l-31 -12q-77 18 -160 18z" />
    <glyph glyph-name="ecircumflex" unicode="&#xea;" horiz-adv-x="1132" 
d="M621 -31q-277 0 -437 154q-164 155 -164 424.5t169 427.5q156 147 395 147t383.5 -131.5t144.5 -323.5q0 -171 -119 -258q-110 -82 -300 -82q-142 0 -240 59q-8 -6 -8 -22q0 -30 79 -55q79 -27 179.5 -27t183 25.5t132.5 60.5q24 -21 38.5 -77.5t14.5 -103t-9 -82.5
q-78 -66 -160 -94q-116 -42 -282 -42zM608 646q50 0 50 38q0 36 -53 36t-61 -57q28 -17 64 -17zM546 1172q-76 -2 -166.5 -31.5t-154.5 -77.5l129 393q38 21 99.5 33.5t114.5 12.5q141 0 217 -39l134 -381q-56 40 -147 66q-88 23 -174 25q-13 40 -25 84q-21 0 -29 -7
t-8 -23.5t10 -54.5z" />
    <glyph glyph-name="edieresis" unicode="&#xeb;" horiz-adv-x="1132" 
d="M621 -31q-277 0 -437 154q-164 155 -164 424.5t169 427.5q156 147 395 147t383.5 -131.5t144.5 -323.5q0 -171 -119 -258q-110 -82 -300 -82q-142 0 -240 59q-8 -6 -8 -22q0 -30 79 -55q79 -27 179.5 -27t183 25.5t132.5 60.5q24 -21 38.5 -77.5t14.5 -103t-9 -82.5
q-78 -66 -160 -94q-116 -42 -282 -42zM608 646q50 0 50 38q0 36 -53 36t-61 -57q28 -17 64 -17zM415 1518q101 0 159 -86q59 86 157 86q78 0 134 -56t56 -128.5t-38.5 -124t-101.5 -64.5q-72 22 -158 27q-29 18 -47 47q-19 -29 -47 -48q-80 -6 -151 -30q-67 12 -109 64
t-42 126t54.5 130.5t133.5 56.5z" />
    <glyph glyph-name="igrave" unicode="&#xec;" horiz-adv-x="612" 
d="M277 1107h17q11 0 16 -1l-313 115v105q0 82 41 134q49 63 150 63q71 0 123 -32.5t103 -105.5l160 -228q-6 -28 -31 -60.5t-51 -46.5q54 -43 54 -125v-421q0 -149 72 -194q1 -5 1 -19v-18q0 -147 -80 -221q-74 -70 -197.5 -70t-203.5 70q-101 89 -101 260v738
q103 57 240 57z" />
    <glyph glyph-name="iacute" unicode="&#xed;" horiz-adv-x="612" 
d="M37 312v738q13 10 40 19q-29 31 -40 73l226 328q77 54 165.5 54t141 -54.5t52.5 -125t-45 -115.5q-35 -35 -108 -62l-165 -60q124 -4 183 -52t59 -130v-421q0 -149 72 -194q1 -5 1 -19v-18q0 -147 -80 -221q-74 -70 -197.5 -70t-203.5 70q-101 89 -101 260z" />
    <glyph glyph-name="icircumflex" unicode="&#xee;" horiz-adv-x="612" 
d="M277 1107q137 0 206 -50q63 -47 63 -132v-421q0 -149 72 -194q1 -5 1 -19v-18q0 -147 -80 -221q-74 -70 -197.5 -70t-203.5 70q-101 89 -101 260v738q103 57 240 57zM-7 1082q-35 19 -45 32l111 341q39 21 96 33.5t111 12.5t108.5 -11.5t87.5 -32.5l121 -355
q-31 -18 -49 -23q-72 66 -225 72q-1 5 -15.5 51.5t-15.5 53.5q-21 0 -29 -7.5t-8 -24.5t16 -72q-163 -7 -264 -70z" />
    <glyph glyph-name="idieresis" unicode="&#xef;" horiz-adv-x="612" 
d="M277 1107q137 0 206 -50q63 -47 63 -132v-421q0 -149 72 -194q1 -5 1 -19v-18q0 -147 -80 -221q-74 -70 -197.5 -70t-203.5 70q-101 89 -101 260v738q103 57 240 57zM119 1517q101 0 159 -86q59 86 157 86q78 0 134 -56t56 -134.5t-52 -133t-136 -54.5q-103 0 -157 79
q-53 -81 -159 -81q-84 0 -137 55t-53 133.5t54.5 135t133.5 56.5z" />
    <glyph glyph-name="eth" unicode="&#xf0;" horiz-adv-x="1153" 
d="M562 470v-74q7 -7 23 -7t23 11t7 38v42q0 88 -8 118.5t-30 30.5q-14 0 -24 -10q9 -90 9 -149zM372 986q-49 0 -128.5 -32.5t-138.5 -91.5q-59 66 -70 131l106 96l-73 81q30 79 110.5 168.5t145.5 102.5q81 -26 159.5 -61.5t163.5 -100.5q22 5 22 22t-53 58l86 62
q103 -43 180 -133.5t99 -210.5l-80 -62q89 -80 145 -175q87 -154 87 -346q0 -249 -158 -389q-151 -136 -396 -136t-398 135q-161 140 -161 376q0 194 106.5 318t288.5 156q0 27 -19 30q-7 2 -24 2z" />
    <glyph glyph-name="ntilde" unicode="&#xf1;" horiz-adv-x="1155" 
d="M582 83q-98 -101 -275 -101q-101 0 -175 53q-86 60 -86 159v498q-59 83 -59 204.5t59 210.5h184q71 0 121 -53q-44 -41 -44 -68q0 -31 35 -31q62 111 199 153q94 -30 173.5 -30t120.5 28q116 -34 181 -121q77 -103 77 -275v-49q-1 -19 -1 -57q-2 -38 -2 -128
q0 -53 16 -97t56 -69q1 -5 1 -19v-18q0 -138 -79.5 -214.5t-205 -76.5t-203.5 71q-91 81 -91 246q0 70 6.5 123.5t9 76.5t5.5 43t3 59t-10.5 56t-29 17t-32.5 -8l13 -163q-18 -101 -18 -214t51 -206zM716 1122q-70 0 -119.5 13t-68.5 21q-43 13 -45 14h-171q-7 56 -7 146
q0 93 40 145q47 62 145 62q59 0 90 -8t40 -10.5t16.5 -5t24.5 -8.5t30 -10h200q10 -70 10 -157t-40 -139q-48 -63 -145 -63z" />
    <glyph glyph-name="ograve" unicode="&#xf2;" horiz-adv-x="1160" 
d="M558 557v-175q7 -7 23 -7t23 11t7 38v143q0 96 -8 127.5t-30 31.5q-14 0 -24 -10q9 -99 9 -159zM184 114q-164 158 -164 428.5t154.5 427t405.5 156.5t406 -163q154 -163 154 -424.5t-148.5 -415.5t-403.5 -154t-404 145zM464 1523q70 0 119.5 -32.5t106.5 -105.5
l175 -233q-5 -21 -15 -39q-125 58 -272 58q-63 0 -126 -11l-179 61v105q0 82 41 134q49 63 150 63z" />
    <glyph glyph-name="oacute" unicode="&#xf3;" horiz-adv-x="1160" 
d="M558 557v-175q7 -7 23 -7t23 11t7 38v143q0 96 -8 127.5t-30 31.5q-14 0 -24 -10q9 -99 9 -159zM184 114q-164 158 -164 428.5t154.5 427t405.5 156.5t406 -163q154 -163 154 -424.5t-148.5 -415.5t-403.5 -154t-404 145zM309 1142l226 328q77 54 165.5 54t141 -54.5
t52.5 -125t-45 -115.5q-35 -35 -108 -62l-28 -10q-67 14 -129 14q-147 0 -268 -53q-5 20 -7 24z" />
    <glyph glyph-name="ocircumflex" unicode="&#xf4;" horiz-adv-x="1160" 
d="M558 557v-175q7 -7 23 -7t23 11t7 38v143q0 96 -8 127.5t-30 31.5q-14 0 -24 -10q9 -99 9 -159zM184 114q-164 158 -164 428.5t154.5 427t405.5 156.5t406 -163q154 -163 154 -424.5t-148.5 -415.5t-403.5 -154t-404 145zM539 1169q-187 -11 -320 -103l127 389
q38 21 99.5 33.5t114.5 12.5q141 0 217 -39l133 -381q-136 86 -320 90q-20 67 -25 85q-21 0 -29 -7.5t-8 -28t11 -51.5z" />
    <glyph glyph-name="otilde" unicode="&#xf5;" horiz-adv-x="1160" 
d="M558 557v-175q7 -7 23 -7t23 11t7 38v143q0 96 -8 127.5t-30 31.5q-14 0 -24 -10q9 -99 9 -159zM20 551q0 236 127.5 388t343.5 181q109 -43 209 -43q54 0 90 14q163 -60 256 -205q94 -149 94 -344q0 -265 -148.5 -419t-403.5 -154t-404 145q-164 158 -164 437zM303 1115
q-14 112 -14 201q0 93 40 145q47 62 145 62q59 0 90 -8t40 -10.5t16.5 -5t24.5 -8.5t30 -10h200q10 -70 10 -157t-40 -139q-48 -63 -142.5 -63t-177.5 30q-26 10 -39 14q-71 -8 -183 -51z" />
    <glyph glyph-name="odieresis" unicode="&#xf6;" horiz-adv-x="1160" 
d="M558 557v-175q7 -7 23 -7t23 11t7 38v143q0 96 -8 127.5t-30 31.5q-14 0 -24 -10q9 -99 9 -159zM184 114q-164 158 -164 428.5t154.5 427t405.5 156.5t406 -163q154 -163 154 -424.5t-148.5 -415.5t-403.5 -154t-404 145zM416 1517q101 0 159 -86q59 86 157 86
q78 0 134 -56t56 -130.5t-40 -124.5t-108 -63q-66 21 -148 26q-29 20 -49 49q-19 -30 -49 -49q-84 -6 -152 -28q-66 13 -107 63.5t-41 125t54.5 131t133.5 56.5z" />
    <glyph glyph-name="divide" unicode="&#xf7;" horiz-adv-x="1071" 
d="M317 270q0 20 3 41h453q4 -17 4 -41q0 -96 -66 -162t-161.5 -66t-164 66.5t-68.5 161.5zM317 933q0 96 67.5 163.5t162.5 67.5t162.5 -67.5t67.5 -164t-66 -162.5t-161.5 -66t-164 66.5t-68.5 162.5zM715.5 711q66.5 50 93.5 139h168q44 -64 64 -121t20 -128.5
t-20.5 -128t-63.5 -116.5h-884q-83 114 -83 244q0 72 21 130.5t62 119.5h193q33 -96 110 -146q66 -43 159.5 -43t160 50z" />
    <glyph glyph-name="oslash" unicode="&#xf8;" horiz-adv-x="1156" 
d="M534 384q20 0 30 24l91 261q-13 12 -27 12t-25.5 -10.5t-23.5 -49.5l-63 -189q-5 -17 -5 -24q0 -24 23 -24zM579 -18h-12q-9 0 -13 1l-28 -60q-27 -3 -53 -3q-90 0 -174 35t-135 98l22 68q-168 155 -168 423.5t154.5 425t406.5 156.5h22q8 0 22 -2l20 47q21 3 44 3
q97 0 186.5 -37t139.5 -102l-26 -76q151 -164 151 -419t-149.5 -406.5t-409.5 -151.5z" />
    <glyph glyph-name="ugrave" unicode="&#xf9;" horiz-adv-x="1149" 
d="M568 436q12 0 26 10q-10 33 -10 103v494q106 64 255 64q84 0 147.5 -22.5t97.5 -59.5v-521q0 -149 72 -194q1 -5 1 -19v-18q0 -146 -77 -221q-70 -70 -193 -70q-77 0 -139.5 35t-93.5 102q-34 0 -34 -33q0 -23 23 -46q-32 -26 -77 -42t-132.5 -16t-170.5 36
q-103 44 -158 135q-67 108 -67 274v251q-51 89 -51 196q0 55 14 114t45 105h220q124 0 194.5 -58.5t70.5 -177.5v-324q0 -97 37 -97zM208 1315q0 82 41 134q49 63 150 63q70 0 119.5 -32.5t106.5 -105.5l169 -226q-131 -11 -222 -61l-364 123v105z" />
    <glyph glyph-name="uacute" unicode="&#xfa;" horiz-adv-x="1149" 
d="M568 436q12 0 26 10q-10 33 -10 103v494q106 64 255 64q84 0 147.5 -22.5t97.5 -59.5v-521q0 -149 72 -194q1 -5 1 -19v-18q0 -146 -77 -221q-70 -70 -193 -70q-77 0 -139.5 35t-93.5 102q-34 0 -34 -33q0 -23 23 -46q-32 -26 -77 -42t-132.5 -16t-170.5 36
q-103 44 -158 135q-67 108 -67 274v251q-51 89 -51 196q0 55 14 114t45 105h220q124 0 194.5 -58.5t70.5 -177.5v-324q0 -97 37 -97zM809 1229q-35 -35 -108 -62l-228 -83q-73 54 -207 54l229 332q77 54 165.5 54t141 -54.5t52.5 -125t-45 -115.5z" />
    <glyph glyph-name="ucircumflex" unicode="&#xfb;" horiz-adv-x="1149" 
d="M541 1060q-55 75 -172 75h-153l104 320q38 21 99.5 33.5t114.5 12.5q141 0 217 -39l106 -310q-165 0 -273 -54q-15 50 -28 97.5t-15 53t-2 7.5q-21 0 -29 -7.5t-8 -27.5q0 -5 39 -161zM568 438q16 0 26 8q-10 33 -10 103v494q106 64 255 64q84 0 147.5 -22.5t97.5 -59.5
v-521q0 -149 72 -194q1 -5 1 -19v-18q0 -146 -77 -221q-70 -70 -193 -70q-77 0 -139.5 35t-93.5 102q-34 0 -34 -33q0 -23 23 -46q-32 -26 -77 -42t-132.5 -16t-170.5 36q-103 44 -158 135q-67 108 -67 274v251q-51 89 -51 196q0 55 14 114t45 105h302q79 0 131 -39t52 -109
v-412q0 -95 37 -95z" />
    <glyph glyph-name="udieresis" unicode="&#xfc;" horiz-adv-x="1149" 
d="M382 1517q101 0 159 -86q59 86 157 86q78 0 134 -56t56 -134.5t-52 -133t-136 -54.5q-103 0 -157 79q-53 -81 -159 -81q-84 0 -137 55t-53 133.5t54.5 135t133.5 56.5zM568 436q12 0 26 10q-10 33 -10 103v494q106 64 255 64q84 0 147.5 -22.5t97.5 -59.5v-521
q0 -149 72 -194q1 -5 1 -19v-18q0 -146 -77 -221q-70 -70 -193 -70q-77 0 -139.5 35t-93.5 102q-34 0 -34 -33q0 -23 23 -46q-32 -26 -77 -42t-132.5 -16t-170.5 36q-103 44 -158 135q-67 108 -67 274v251q-51 89 -51 196q0 55 14 114t45 105h220q124 0 194.5 -58.5
t70.5 -177.5v-324q0 -97 37 -97z" />
    <glyph glyph-name="yacute" unicode="&#xfd;" horiz-adv-x="1094" 
d="M520 505v-23q0 -16 1 -23q10 -5 22 -5q29 0 29 44q0 147 16.5 305.5t35.5 244.5q81 59 216 59t208.5 -52.5t73.5 -126.5q0 -31 -37 -256q-41 -229 -105 -482q-13 -51 -46.5 -143t-71.5 -153q-119 -189 -294 -234q-82 -21 -165 -21q-161 0 -249 80q-81 72 -81 178.5
t63 200.5q15 4 55 4t100 -10q166 -31 169 -31q7 -1 15.5 -2.5t22.5 -1.5t24 8t10 32l-236 45q-87 36 -151 151q-79 142 -107 385q-66 86 -66 206t60 209h257q129 0 193 -74q47 -55 60 -161q-22 -174 -22 -353zM276 1137h-12l230 333q77 54 165.5 54t141 -54.5t52.5 -125
t-45 -115.5q-35 -35 -108 -62l-219 -80q-60 50 -205 50z" />
    <glyph glyph-name="thorn" unicode="&#xfe;" horiz-adv-x="1127" 
d="M558 540v-134q7 -7 23 -7t23 11t7 38v102q0 96 -8 127.5t-30 31.5q-14 0 -24 -10q9 -99 9 -159zM366 35q-7 -4 -7 -17q0 -30 46.5 -43t160.5 -19v-266q-103 -46 -226 -46q-145 0 -219 53q-84 57 -84 175v1484q45 32 116 50.5t149.5 18.5t151.5 -20.5t110 -48.5v-217
q-123 -5 -207 -46q-25 -12 -35.5 -21.5t-10.5 -25t13 -23.5q125 71 275 71q105 0 198 -39.5t163 -112.5q147 -155 147 -391q0 -260 -136.5 -405t-379.5 -145q-144 0 -225 34z" />
    <glyph glyph-name="ydieresis" unicode="&#xff;" horiz-adv-x="1094" 
d="M384 1517q101 0 159 -86q59 86 157 86q78 0 134 -56t56 -134.5t-52 -133t-136 -54.5q-103 0 -157 79q-53 -81 -159 -81q-84 0 -137 55t-53 133.5t54.5 135t133.5 56.5zM520 505v-23q0 -16 1 -23q10 -5 22 -5q29 0 29 44q0 147 16.5 305.5t35.5 244.5q81 59 216 59
t208.5 -52.5t73.5 -126.5q0 -31 -37 -256q-41 -229 -105 -482q-13 -51 -46.5 -143t-71.5 -153q-119 -189 -294 -234q-82 -21 -165 -21q-161 0 -249 80q-81 72 -81 178.5t63 200.5q15 4 55 4t100 -10q166 -31 169 -31q7 -1 15.5 -2.5t22.5 -1.5t24 8t10 32l-236 45
q-87 36 -151 151q-79 142 -107 385q-66 86 -66 206t60 209h257q129 0 193 -74q47 -55 60 -161q-22 -174 -22 -353z" />
    <glyph glyph-name="Amacron" unicode="&#x100;" horiz-adv-x="1349" 
d="M678 649q17 0 29 7q-26 152 -35 180q-11 29 -33 29q-10 0 -24 -6l38 -202q8 -8 25 -8zM455 357q-10 -14 -10 -26q0 -29 54.5 -48.5t132.5 -24.5q13 -144 28 -164q-19 -37 -105 -74.5t-194 -37.5q-143 0 -245 61.5t-102 158.5q0 26 5 46l213 952q80 51 191 80t231 29
q172 0 294 -58q139 -66 169 -191l228 -943q-104 -135 -339 -135q-114 0 -193 41t-92 117l-22 122q60 1 116 23t56 46q0 16 -13 26q-38 -27 -93 -41t-102 -14q-135 0 -208 55zM357 1626h576q61 -95 61 -181.5t-34 -143.5q-122 63 -301.5 63t-330.5 -62q-32 59 -32 146t61 178
z" />
    <glyph glyph-name="amacron" unicode="&#x101;" horiz-adv-x="1110" 
d="M1043 495q0 -72 16 -116t56 -69q1 -5 1 -19v-18q0 -142 -86 -221q-76 -70 -188 -70q-76 0 -139 36t-90 104q-34 0 -34 -33q0 -28 35 -63q-65 -44 -196 -44q-185 0 -295.5 100.5t-110.5 281t117 279.5q107 89 277 89q58 0 112 -8q36 -7 39 -8q3 10 3 17q0 26 -44 35
t-115 9q-151 0 -258 -61q-49 83 -49 210q0 72 18 107q72 33 183 58.5t234 25.5q254 0 384 -111t130 -315v-196zM524 446q-42 0 -42 -38q0 -36 49 -36q34 0 50 16.5t16 57.5h-73zM249 1445h576q61 -95 61 -184.5t-38 -162.5q-122 63 -321 63q-148 0 -311 -47
q-28 63 -28 151.5t61 179.5z" />
    <glyph glyph-name="Abreve" unicode="&#x102;" horiz-adv-x="1349" 
d="M678 649q17 0 29 7q-26 152 -35 180q-11 29 -33 29q-10 0 -24 -6l38 -202q8 -8 25 -8zM455 357q-10 -14 -10 -26q0 -29 54.5 -48.5t132.5 -24.5q13 -144 28 -164q-19 -37 -105 -74.5t-194 -37.5q-143 0 -245 61.5t-102 158.5q0 26 5 46l213 952q80 51 191 80t231 29
q172 0 294 -58q139 -66 169 -191l228 -943q-104 -135 -339 -135q-114 0 -193 41t-92 117l-22 122q60 1 116 23t56 46q0 16 -13 26q-38 -27 -93 -41t-102 -14q-135 0 -208 55zM353 1302q-67 63 -67 153t52.5 139t103.5 49q26 -45 78.5 -76t126.5 -31q143 0 200 107
q52 0 108 -49.5t56 -133.5q0 -38 -19 -80.5t-49 -75.5q-134 51 -294.5 51t-295.5 -53z" />
    <glyph glyph-name="abreve" unicode="&#x103;" horiz-adv-x="1110" 
d="M1043 495q0 -72 16 -116t56 -69q1 -5 1 -19v-18q0 -142 -86 -221q-76 -70 -188 -70q-76 0 -139 36t-90 104q-34 0 -34 -33q0 -28 35 -63q-65 -44 -196 -44q-185 0 -295.5 100.5t-110.5 281t117 279.5q107 89 277 89q58 0 112 -8q36 -7 39 -8q3 10 3 17q0 26 -44 35
t-115 9q-151 0 -258 -61q-49 83 -49 210q0 72 18 107q72 33 183 58.5t234 25.5q254 0 384 -111t130 -315v-196zM524 446q-42 0 -42 -38q0 -36 49 -36q34 0 50 16.5t16 57.5h-73zM362 1460q25 -44 81 -75.5t122 -31.5t120.5 28t81.5 79q52 0 108 -49.5t56 -133.5
q0 -100 -91 -174q-120 58 -309 58q-138 0 -264 -32q-61 64 -61 148.5t52.5 133.5t103.5 49z" />
    <glyph glyph-name="Aogonek" unicode="&#x104;" horiz-adv-x="1349" 
d="M663 302q-135 0 -208 55q-10 -14 -10 -26q0 -29 54.5 -48.5t132.5 -24.5q13 -144 28 -164q-19 -37 -105 -74.5t-194 -37.5q-143 0 -245 61.5t-102 158.5q0 26 5 46l213 952q80 51 191 80t231 29q172 0 294 -58q139 -66 169 -191l228 -943q-31 -48 -99 -84
q-33 -19 -47.5 -35.5t-14.5 -41t15.5 -39t41.5 -14.5t53 15q75 -44 75 -139.5t-74 -148.5t-191.5 -53t-199.5 60q-90 65 -90 181q0 62 23 102t67 72q-161 31 -183 148l-22 122q60 1 112 24q50 20 50 45q0 16 -13 26q-79 -55 -185 -55zM678 649q17 0 29 7q-26 152 -35 180
q-11 29 -33 29q-10 0 -24 -6l38 -202q8 -8 25 -8z" />
    <glyph glyph-name="aogonek" unicode="&#x105;" horiz-adv-x="1112" 
d="M526 445q-42 0 -42 -38q0 -36 49 -36q34 0 50 16.5t16 57.5h-73zM581 88q0 -24 33 -62q-65 -44 -196 -44q-185 0 -295.5 100.5t-110.5 281t117 279.5q107 89 277 89q58 0 112 -8q36 -7 39 -8q3 10 3 17q0 26 -44 35t-115 9q-151 0 -258 -61q-49 83 -49 210q0 72 18 107
q71 33 177 59.5t242 26.5q253 0 383.5 -112t130.5 -317v-196q0 -72 16 -116t56 -69q1 -5 1 -19v-18q0 -78 -28 -130.5t-75 -101.5q-24 -28 -34 -46.5t-10 -40t15 -35t41.5 -13.5t53.5 15q75 -44 75 -139t-81 -148.5t-199 -53.5t-204.5 62.5t-86.5 178.5q0 72 30.5 118.5
t87.5 79.5q-66 35 -88 103q-34 0 -34 -33z" />
    <glyph glyph-name="Cacute" unicode="&#x106;" horiz-adv-x="1258" 
d="M670 398q10 0 18 5v91q68 46 190.5 75t238.5 29q53 -54 88.5 -161.5t37.5 -194.5q-20 -40 -67.5 -86t-114.5 -85q-166 -98 -381 -98q-308 0 -485 179q-183 181 -183 501.5t200 503.5q88 82 205 123.5t246 41.5q252 0 413 -122t161 -301q0 -135 -83 -199.5t-225 -64.5
q-78 0 -157 38.5t-94 72.5q0 82 3 129q-2 1 -7 1h-7q-15 0 -23.5 -8.5t-15 -35.5t-6.5 -147q0 -287 48 -287zM666 1367q-152 0 -285 -51l227 336q77 54 165.5 54t141 -54.5t52.5 -124.5t-39.5 -109.5t-110.5 -67.5q-74 17 -151 17z" />
    <glyph glyph-name="cacute" unicode="&#x107;" horiz-adv-x="1074" 
d="M589 -31q-260 0 -414.5 160.5t-154.5 430.5t175 427q156 140 390 140q208 0 345 -102.5t137 -278.5q0 -122 -75.5 -198.5t-198.5 -76.5q-100 0 -166.5 53.5t-78.5 139.5q-44 0 -44 -32q0 -73 72 -134q83 -72 206.5 -72t204.5 53q50 -77 50 -187q0 -128 -110 -219
q-126 -104 -338 -104zM908 1344.5q0 -70.5 -40.5 -111t-134.5 -74.5q-69 13 -148 13q-150 0 -285 -63l249 361q77 54 165.5 54t141 -54.5t52.5 -125z" />
    <glyph glyph-name="Ccaron" unicode="&#x10c;" horiz-adv-x="1258" 
d="M670 398q10 0 18 5v91q68 46 190.5 75t238.5 29q53 -54 88.5 -161.5t37.5 -194.5q-20 -40 -67.5 -86t-114.5 -85q-166 -98 -381 -98q-308 0 -485 179q-183 181 -183 501.5t200 503.5q88 82 205 123.5t246 41.5q252 0 413 -122t161 -301q0 -135 -83 -199.5t-225 -64.5
q-78 0 -157 38.5t-94 72.5q0 82 3 129q-2 1 -7 1h-7q-15 0 -23.5 -8.5t-15 -35.5t-6.5 -147q0 -287 48 -287zM856 1346q-95 21 -212.5 21t-223.5 -34q-46 80 -66 118.5t-51 93.5q-22 42 -22 70.5t21 47t64 18.5h197l62 -115q45 0 45 36q0 15 -31 79h72q51 0 76 1h108
q32 0 53.5 -19.5t21.5 -51.5q0 -47 -114 -265z" />
    <glyph glyph-name="ccaron" unicode="&#x10d;" horiz-adv-x="1074" 
d="M589 -31q-260 0 -414.5 160.5t-154.5 430.5t175 427q156 140 390 140q208 0 345 -102.5t137 -278.5q0 -122 -75.5 -198.5t-198.5 -76.5q-100 0 -166.5 53.5t-78.5 139.5q-44 0 -44 -32q0 -73 72 -134q83 -72 206.5 -72t204.5 53q50 -77 50 -187q0 -128 -110 -219
q-126 -104 -338 -104zM354 1131q-56 96 -128 231q-22 42 -22 70.5t21 47t64 18.5h197l62 -115q45 0 45 36q0 15 -31 79h72q51 0 76 1h108q32 0 53.5 -19.5t21.5 -55.5t-79 -192l-42 -84q-86 24 -195 24t-223 -41z" />
    <glyph glyph-name="Dcaron" unicode="&#x10e;" horiz-adv-x="1264" 
d="M637 690q0 100 -9 137.5t-33 37.5q-15 0 -27 -10q2 -18 6 -48t4 -128v-65q0 -68 -3 -99t-5 -53l-2 -24q12 -10 27 -10q24 0 33 37.5t9 137.5v87zM264 -1q-111 0 -171.5 59t-60.5 178v900q0 76 152.5 128.5t340.5 52.5q331 0 517 -160q200 -172 200 -513
q0 -307 -193.5 -476t-531.5 -169h-253zM363 1351q-36 62 -59 106q-14 23 -21 38t-16 31q-32 59 -32 90q0 28 21 46.5t64 18.5h197l62 -115q45 0 45 36q0 15 -31 79h72q51 0 76 1h108q32 0 53.5 -19.5t21.5 -48.5t-22 -78t-56 -116.5t-45 -89.5q-139 32 -253.5 32t-184.5 -11
z" />
    <glyph glyph-name="dcaron" unicode="&#x10f;" horiz-adv-x="1550" 
d="M592 709q-10 10 -24 10q-22 0 -30 -31.5t-8 -127.5v-102q0 -27 7 -38t23 -11t23 7v134q0 98 9 159zM520 1300q53 62 117 93.5t162.5 31.5t168 -46.5t93.5 -132.5q29 55 86 84t129 29q122 0 192 -83.5t70 -211.5q0 -160 -93 -251q-84 -84 -203 -84q-80 0 -117 44v134
q39 -17 92.5 -17t81.5 10.5t28 30.5q0 9 -8 23q-37 -19 -93 -19q-100 0 -154 73v-504q0 -149 72 -194q1 -5 1 -19v-18q0 -142 -86 -221q-76 -70 -188 -70q-78 0 -135 33q-67 38 -94 104q-34 0 -34 -33q0 -15 11.5 -34.5t31.5 -34.5q-59 -35 -153 -35q-127 0 -237.5 58.5
t-175.5 176.5q-75 135 -75 327q0 256 143.5 402t366.5 146q132 0 230 -50q11 11 11 23q0 30 -71 51t-143 21q0 102 -27 163z" />
    <glyph glyph-name="Dcroat" unicode="&#x110;" horiz-adv-x="1395" 
d="M709 387q29 0 57 49q44 82 44 200t-44 211q-20 42 -51 42q-16 0 -30 -20q31 -37 50.5 -99t19.5 -136.5t-30 -151.5q-25 -57 -45 -77q10 -18 29 -18zM164 922v214q0 48 74 88.5t186 62t232 21.5q332 0 517 -160q200 -173 200 -520q0 -299 -194 -464t-531 -165h-253
q-111 0 -171 59t-60 178v165h-63q-30 30 -54.5 91t-24.5 139t19 141.5t53 104.5h176q0 21 -8 33t-33 12h-65z" />
    <glyph glyph-name="dcroat" unicode="&#x111;" horiz-adv-x="1163" 
d="M582 669q-10 10 -24 10q-22 0 -30 -31.5t-8 -127.5v-62q0 -27 7 -38t23 -11t23 7v94q0 98 9 159zM85 832q64 104 168 154.5t204 50.5h12q6 0 9 -1q3 6 3 16.5t-10.5 17.5t-38.5 7q-79 0 -151 -29q0 105 61 194h184q-1 21 -1 65v59q30 19 99.5 39t149.5 20q139 0 211 -51
q65 -48 67 -132h48q61 -95 61 -188t-61 -188h-125q-3 -9 -3 -21t12 -18t40 -6h38v-317q0 -149 72 -194q1 -5 1 -19v-18q0 -142 -86 -221q-76 -70 -188 -70q-78 0 -135 33q-67 38 -94 104q-34 0 -34 -33q0 -15 11.5 -34.5t31.5 -34.5q-55 -35 -143 -35q-126 0 -231 54
q-117 60 -182 179q-75 135 -75 315t75 302z" />
    <glyph glyph-name="Emacron" unicode="&#x112;" horiz-adv-x="1112" 
d="M482 1290h577q29 -48 43 -104.5t14 -101.5q0 -101 -39.5 -152t-110.5 -51h-403q-37 0 -37 -29v-8q0 -6 2 -8h478q18 -31 31 -78q12 -51 12 -91q0 -119 -44 -186h-217q-152 0 -206 -11.5t-67 -19.5q-13 -9 -13 -23t14 -22q52 17 109 24q75 7 163 7h281q61 -86 61 -207
q0 -68 -17 -130t-51 -100h-749q-124 0 -199 60q-82 64 -82 188v951q0 48 110 70t340 22zM216 1438q0 97 61 188h576q61 -95 61 -188q0 -52 -18 -103h-414q-137 0 -245 -9q-21 49 -21 112z" />
    <glyph glyph-name="emacron" unicode="&#x113;" horiz-adv-x="1132" 
d="M621 -31q-277 0 -437 154q-164 155 -164 424.5t169 427.5q156 147 395 147t383.5 -131.5t144.5 -323.5q0 -171 -119 -258q-110 -82 -300 -82q-142 0 -240 59q-8 -6 -8 -22q0 -30 79 -55q79 -27 179.5 -27t183 25.5t132.5 60.5q24 -21 38.5 -77.5t14.5 -103t-9 -82.5
q-78 -66 -160 -94q-116 -42 -282 -42zM608 646q50 0 50 38q0 36 -53 36t-61 -57q28 -17 64 -17zM276 1444h576q61 -95 61 -180.5t-37 -154.5q-125 64 -299.5 64t-314.5 -85q-47 78 -47 171.5t61 184.5z" />
    <glyph glyph-name="Ebreve" unicode="&#x114;" horiz-adv-x="1112" 
d="M482 1290h577q29 -48 43 -104.5t14 -101.5q0 -101 -39.5 -152t-110.5 -51h-403q-37 0 -37 -29v-8q0 -6 2 -8h478q18 -31 31 -78q12 -51 12 -91q0 -119 -44 -186h-217q-152 0 -206 -11.5t-67 -19.5q-13 -9 -13 -23t14 -22q52 17 109 24q75 7 163 7h281q61 -86 61 -207
q0 -68 -17 -130t-51 -100h-749q-124 0 -199 60q-82 64 -82 188v951q0 48 110 70t340 22zM476 1335q-110 0 -218 -9q-47 53 -47 135.5t52.5 131.5t103.5 49q26 -45 78.5 -76t126.5 -31q143 0 200 107q52 0 108 -49.5t56 -133.5q0 -68 -41 -124h-419z" />
    <glyph glyph-name="ebreve" unicode="&#x115;" horiz-adv-x="1132" 
d="M621 -31q-277 0 -437 154q-164 155 -164 424.5t169 427.5q156 147 395 147t383.5 -131.5t144.5 -323.5q0 -171 -119 -258q-110 -82 -300 -82q-142 0 -240 59q-8 -6 -8 -22q0 -30 79 -55q79 -27 179.5 -27t183 25.5t132.5 60.5q24 -21 38.5 -77.5t14.5 -103t-9 -82.5
q-78 -66 -160 -94q-116 -42 -282 -42zM608 646q50 0 50 38q0 36 -53 36t-61 -57q28 -17 64 -17zM272 1415q48 45 99 45q25 -44 81 -75.5t122 -31.5t120.5 28t81.5 79q52 0 103 -45q61 -54 61 -142.5t-77 -158.5q-120 59 -277 59t-288 -64q-83 70 -83 161.5t57 144.5z" />
    <glyph glyph-name="Edotaccent" unicode="&#x116;" horiz-adv-x="1112" 
d="M776 1290h283q29 -48 43 -104.5t14 -101.5q0 -101 -39.5 -152t-110.5 -51h-403q-37 0 -37 -29v-8q0 -6 2 -8h478q18 -31 31 -78q12 -51 12 -91q0 -119 -44 -186h-217q-152 0 -206 -11.5t-67 -19.5q-13 -9 -13 -23t14 -22q52 17 109 24q75 7 163 7h281q61 -86 61 -207
q0 -68 -17 -130t-51 -100h-749q-124 0 -199 60q-82 64 -82 188v951q0 79 335 90q16 -30 64 -57q61 -36 139 -36t130.5 29.5t75.5 65.5zM415 1619q65 65 156 65t158 -65q65 -67 65 -159t-61 -155q-65 -65 -161 -65t-159 64t-63 156t65 159z" />
    <glyph glyph-name="edotaccent" unicode="&#x117;" horiz-adv-x="1132" 
d="M608 646q50 0 50 38q0 36 -53 36t-61 -57q28 -17 64 -17zM591 1012q123 0 195 81q153 -53 239.5 -165.5t86.5 -260.5q0 -171 -119 -258q-110 -82 -300 -82q-142 0 -240 59q-8 -6 -8 -22q0 -30 79 -55q79 -27 179.5 -27t183 25.5t132.5 60.5q24 -21 38.5 -77.5t14.5 -103
t-9 -82.5q-78 -66 -160 -94q-116 -42 -282 -42q-277 0 -437 154q-164 155 -164 422q0 193 88 335q98 156 283 213q28 -33 80 -57t120 -24zM432 1437q65 65 156 65t158 -65q65 -67 65 -159t-61 -155q-65 -65 -161 -65t-159 64t-63 156t65 159z" />
    <glyph glyph-name="Eogonek" unicode="&#x118;" horiz-adv-x="1112" 
d="M1020 -1q-46 0 -63 -16.5t-17 -35.5t13.5 -31.5t41.5 -12.5t55 15q75 -44 75 -139.5t-74 -148.5t-193.5 -53t-197.5 57q-90 64 -90 183t89 182h-346q-124 0 -199 60q-82 64 -82 188v951q0 48 110 70t340 22h577q29 -48 43 -104.5t14 -101.5q0 -101 -39.5 -152t-110.5 -51
h-403q-37 0 -37 -29v-8q0 -6 2 -8h478q18 -31 31 -78q12 -51 12 -91q0 -119 -44 -186h-217q-152 0 -206 -11.5t-67 -19.5q-13 -9 -13 -23t14 -22q52 17 109 24q75 7 163 7h281q61 -86 61 -207q0 -68 -17 -130t-51 -100h-42z" />
    <glyph glyph-name="eogonek" unicode="&#x119;" horiz-adv-x="1132" 
d="M1063 105q-61 -53 -148 -90q-60 -24 -60 -67q0 -20 15 -32.5t39.5 -12.5t51.5 15q75 -44 75 -139.5t-74 -148.5t-193.5 -53t-197.5 57q-90 64 -90 184q0 135 117 198q-1 34 -29 34q-20 0 -47.5 -20t-46.5 -48q-212 38 -333.5 185.5t-121.5 377.5q0 272 169 430
q156 147 395 147t383.5 -131.5t144.5 -323.5q0 -171 -119 -258q-110 -82 -300 -82q-142 0 -240 59q-8 -6 -8 -22q0 -30 79 -55q79 -27 179.5 -27t183 25.5t132.5 60.5q24 -21 38.5 -77.5t14.5 -103t-9 -82.5zM608 646q50 0 50 38q0 36 -53 36t-61 -57q28 -17 64 -17z" />
    <glyph glyph-name="Ecaron" unicode="&#x11a;" horiz-adv-x="1112" 
d="M482 1290h577q29 -48 43 -104.5t14 -101.5q0 -101 -39.5 -152t-110.5 -51h-403q-37 0 -37 -29v-8q0 -6 2 -8h478q18 -31 31 -78q12 -51 12 -91q0 -119 -44 -186h-217q-152 0 -206 -11.5t-67 -19.5q-13 -9 -13 -23t14 -22q52 17 109 24q75 7 163 7h281q61 -86 61 -207
q0 -68 -17 -130t-51 -100h-749q-124 0 -199 60q-82 64 -82 188v951q0 48 110 70t340 22zM481 1335q-91 0 -132 -4q-21 35 -26 45t-25 45.5t-66 124.5q-22 41 -22 69.5t21 47t64 18.5h197l62 -115q45 0 45 36q0 15 -31 79h72q51 0 76 1h108q32 0 53.5 -19.5t21.5 -56
t-85 -204.5q-18 -39 -34 -67h-299z" />
    <glyph glyph-name="ecaron" unicode="&#x11b;" horiz-adv-x="1132" 
d="M621 -31q-277 0 -437 154q-164 155 -164 424.5t169 427.5q156 147 395 147t383.5 -131.5t144.5 -323.5q0 -171 -119 -258q-110 -82 -300 -82q-142 0 -240 59q-8 -6 -8 -22q0 -30 79 -55q79 -27 179.5 -27t183 25.5t132.5 60.5q24 -21 38.5 -77.5t14.5 -103t-9 -82.5
q-78 -66 -160 -94q-116 -42 -282 -42zM608 646q50 0 50 38q0 36 -53 36t-61 -57q28 -17 64 -17zM378 1137q-47 80 -124 225q-22 42 -22 70.5t21 47t64 18.5h197l62 -115q45 0 45 36q0 15 -31 79h72q51 0 76 1h108q32 0 53.5 -19.5t21.5 -51.5q0 -46 -109 -255
q-12 -23 -17 -34q-92 33 -208 33t-209 -35z" />
    <glyph glyph-name="Gbreve" unicode="&#x11e;" horiz-adv-x="1344" 
d="M692 833h593q57 -83 57 -201.5t-49 -192.5h-41v-300q-197 -171 -520 -171q-197 0 -350 70q-167 75 -259 219q-101 158 -101 388q0 327 196 506q186 171 504 171q157 0 296.5 -47t220.5 -117q0 -60 -14.5 -147t-36.5 -133h-527q-32 -34 -60.5 -98t-28.5 -147
q0 -114 57 -179q50 -59 128 -59q32 0 32 22v23h-11q-66 0 -109.5 51.5t-43.5 147.5q0 120 67 194zM286 1460q0 85 52.5 134t103.5 49q26 -45 78.5 -76t126.5 -31q143 0 200 107q52 0 108 -49.5t56 -127.5t-50 -128q-114 29 -244 29q-190 0 -351 -68q-40 28 -60 74t-20 87z
" />
    <glyph glyph-name="gbreve" unicode="&#x11f;" horiz-adv-x="1129" 
d="M597 717q0 36 -27 36q-25 0 -25 -30v-103q8 -7 24 -7t22 12t6 44v48zM891 1161h165q60 -53 60 -152q0 -56 -11.5 -90t-33.5 -71q26 -66 26 -164q0 -177 -125.5 -274.5t-337.5 -97.5q-64 0 -109 9q-3 -9 -3 -17q0 -22 31.5 -29.5t80.5 -7.5q156 0 266 46q108 -28 168 -122
q49 -77 49 -181q0 -185 -157 -288t-404.5 -103t-382.5 88q-125 80 -125 208q0 49 23 94.5t53 62.5q50 -42 147.5 -68t200.5 -26t132.5 8t29.5 28q0 10 -6 20q-50 -11 -125 -11q-193 0 -303 55q-134 66 -134 199q0 52 21 96.5t62 66.5q-55 34 -93.5 103t-38.5 170
q0 184 127.5 293t343.5 120q2 10 2 14q0 30 -51 30q-78 0 -177 -40q-59 65 -59 148.5t52.5 132.5t103.5 49q25 -44 81 -75.5t122 -31.5t120.5 28t81.5 79q52 0 108 -49.5t56 -126t-37 -123.5z" />
    <glyph glyph-name="uni0122" unicode="&#x122;" horiz-adv-x="1344" 
d="M692 833h593q57 -83 57 -201.5t-49 -192.5h-41v-300q-87 -77 -210 -120q-20 55 -57 95t-62 40t-40 -21q62 -38 94.5 -105.5t32.5 -153.5q0 -160 -93 -251q-84 -84 -203 -84q-72 0 -108.5 36t-36.5 82.5t13 66.5q11 -9 47 -16.5t75 -7.5t67 10.5t28 30.5q0 9 -8 23
q-37 -19 -93 -19q-85 0 -138.5 55.5t-53.5 141.5q0 34 5 55q-221 53 -348 207q-141 170 -141 441q0 327 193.5 502t511.5 175q155 0 293 -47t219 -117q0 -60 -14.5 -147t-36.5 -133h-527q-32 -34 -60.5 -98t-28.5 -147q0 -114 57 -179q50 -59 128 -59q32 0 32 22v23h-11
q-66 0 -109.5 51.5t-43.5 147.5q0 120 67 194z" />
    <glyph glyph-name="uni0123" unicode="&#x123;" horiz-adv-x="1129" 
d="M597 717q0 36 -27 36q-25 0 -25 -30v-103q8 -7 24 -7t22 12t6 44v48zM515 1325q0 -9 8 -23q37 19 100 19t116.5 -41t65.5 -119h251q60 -53 60 -145t-45 -168q26 -66 26 -164q0 -177 -125.5 -274.5t-337.5 -97.5q-64 0 -109 9q-3 -9 -3 -17q0 -22 31.5 -29.5t80.5 -7.5
q156 0 266 46q108 -28 168 -122q49 -77 49 -181q0 -185 -157 -288t-404.5 -103t-382.5 88q-125 80 -125 208q0 49 23 94.5t53 62.5q50 -42 147.5 -68t200.5 -26t132.5 8t29.5 28q0 10 -6 20q-50 -11 -125 -11q-193 0 -303 55q-134 66 -134 199q0 52 21 96.5t62 66.5
q-55 34 -93.5 103t-38.5 170q0 130 65.5 224t182.5 143q19 -58 45 -94q26 -41 49.5 -41t32.5 17q-88 82 -88 235.5t93 246.5q85 83 203 83q71 0 108 -36t37 -82.5t-13 -66.5q-55 24 -108 24q-109 0 -109 -41z" />
    <glyph glyph-name="Imacron" unicode="&#x12a;" horiz-adv-x="648" 
d="M616 1109v-1033q-46 -40 -123 -67t-187 -27t-187 49q-87 53 -87 150v1033q46 40 123 67t186 27t189 -48q86 -55 86 -151zM30 1626h576q61 -95 61 -185.5t-59 -188.5q-37 44 -110 72.5t-166 28.5q-186 0 -311 -90q-52 84 -52 178t61 185z" />
    <glyph glyph-name="imacron" unicode="&#x12b;" horiz-adv-x="612" 
d="M277 1107q137 0 206 -50q63 -47 63 -132v-421q0 -149 72 -194q1 -5 1 -19v-18q0 -147 -80 -221q-74 -70 -197.5 -70t-203.5 70q-101 89 -101 260v738q103 57 240 57zM-12 1077q-55 76 -55 176t61 191h566q61 -95 61 -189.5t-66 -197.5q-27 36 -87 63q-76 32 -191 32
q-159 0 -289 -75z" />
    <glyph glyph-name="Iogonek" unicode="&#x12e;" horiz-adv-x="648" 
d="M616 1109v-1033q-54 -47 -145 -74q-22 -20 -22 -46t15 -39.5t41.5 -13.5t53.5 15q75 -44 75 -139.5t-74 -148.5t-191 -53t-203.5 62.5t-86.5 178.5q0 66 33 117q24 39 72 66q-152 48 -152 180v1033q46 40 123 67t186 27t189 -48q86 -55 86 -151z" />
    <glyph glyph-name="iogonek" unicode="&#x12f;" horiz-adv-x="612" 
d="M181 21q-144 83 -144 291v650q18 13 39 21t44 20q-43 22 -78 76.5t-35 127.5q0 126 83 206t203.5 80t202 -81.5t81.5 -204.5q0 -99 -62 -173.5t-151 -93.5q0 -38 29 -38q51 0 104 40q40 -31 49 -42v-396q0 -149 72 -194q1 -5 1 -19v-18q0 -115 -51 -188q-49 -68 -137 -91
q-9 -14 -9 -39t15 -38.5t41.5 -13.5t53.5 15q75 -44 75 -139.5t-74 -148.5t-191.5 -53t-199.5 60q-90 65 -90 181q0 135 129 203z" />
    <glyph glyph-name="Idotaccent" unicode="&#x130;" horiz-adv-x="648" 
d="M32 181v1033q37 34 95 57q28 -31 79 -53.5t110 -22.5q125 0 193 76q107 -53 107 -162v-1033q-46 -40 -123 -67t-187 -27t-187 49q-87 53 -87 150zM159 1619q65 65 156 65t158 -65q65 -67 65 -159t-61 -155q-65 -65 -161 -65t-159 64t-63 156t65 159z" />
    <glyph glyph-name="dotlessi" unicode="&#x131;" horiz-adv-x="612" 
d="M277 1107q137 0 206 -50q63 -47 63 -132v-421q0 -149 72 -194q1 -5 1 -19v-18q0 -147 -80 -221q-74 -70 -197.5 -70t-203.5 70q-101 89 -101 260v738q103 57 240 57z" />
    <glyph glyph-name="uni0136" unicode="&#x136;" horiz-adv-x="1188" 
d="M460 158q0 -14 9 -24q59 35 138 35q122 0 192 -83.5t70 -211.5q0 -160 -93 -251q-84 -84 -203 -84q-72 0 -108.5 36t-36.5 82.5t13 66.5q11 -9 47 -16.5t75 -7.5t67 10.5t28 30.5q0 9 -8 23q-37 -19 -93 -19q-85 0 -138.5 55.5t-53.5 141.5l5 42q-34 -2 -52 -2
q-122 0 -199 49q-87 53 -87 151v1032q103 94 313 94q109 0 185 -46q86 -55 86 -162v-45q-40 -83 -61 -129.5t-21 -63.5q0 -29 33 -29l197 432q69 45 188.5 45t205.5 -66q94 -74 94 -202q0 -107 -73 -210.5t-191 -179.5q-55 31 -99 31t-44 -43q46 -9 83.5 -25.5t88.5 -63.5
l266 -245q-29 -324 -324 -324q-27 0 -53 7q-31 94 -83 146q-72 72 -187 82l-101 251h-5q-33 0 -33 -28q0 -22 84 -224q-121 -17 -121 -58z" />
    <glyph glyph-name="uni0137" unicode="&#x137;" horiz-adv-x="1134" 
d="M916 -15q-35 94 -86 147q-85 85 -224 85q-14 0 -36 -2q-27 74 -36 161l-44 -21q2 -79 20 -152q-50 -17 -50 -45q0 -14 9 -24q59 35 138 35q122 0 192 -83.5t70 -211.5q0 -160 -93 -251q-84 -84 -203 -84q-72 0 -108.5 36t-36.5 82.5t13 66.5q11 -9 47 -16.5t75 -7.5
t67 10.5t28 30.5q0 9 -8 23q-37 -19 -93 -19q-85 0 -138.5 55.5t-53.5 141.5q0 30 4 47q-35 -7 -71 -7q-101 0 -175 53q-86 60 -86 159v1167q48 28 115.5 46t136.5 18q115 0 190 -45q85 -53 85 -152v-106q0 -133 -47 -260q-9 -13 -32 -37.5t-36.5 -44.5t-13.5 -34.5
t24 -26.5q78 73 122.5 159t81.5 228q13 2 30 5t56.5 9.5t55.5 6.5q154 0 240 -70.5t86 -193.5t-78 -211q-72 -79 -187 -119q92 -54 232 -77q54 -98 54 -203.5t-61.5 -180t-174.5 -87.5z" />
    <glyph glyph-name="Lacute" unicode="&#x139;" horiz-adv-x="1068" 
d="M264 -1q-111 0 -171.5 59t-60.5 178v978q53 45 129.5 69.5t158.5 24.5q121 0 205 -60q91 -68 91 -188v-547q-56 -5 -110 -31.5t-54 -54.5q0 -17 19 -29q99 83 294 83h237q66 -116 66 -237q0 -60 -21 -133t-56 -112h-727zM66 1324l226 328q77 54 165.5 54t141 -54.5
t52.5 -125t-45 -115.5q-35 -35 -108 -62l-41 -15q-57 19 -145 19q-130 0 -238 -55q-1 3 -2.5 7t-1.5 5.5t-4 13.5z" />
    <glyph glyph-name="lacute" unicode="&#x13a;" horiz-adv-x="612" 
d="M546 1207v-703q0 -149 72 -194q1 -5 1 -19v-18q0 -143 -72.5 -217t-205.5 -74t-211 74q-93 88 -93 266v1039q105 64 240.5 64t202 -57.5t66.5 -160.5zM284 1469q-118 0 -228 -50q-4 11 -6 21l226 328q77 54 165.5 54t141 -54.5t52.5 -124.5t-48 -116q-37 -35 -110 -64
l-43 -17q-65 23 -150 23z" />
    <glyph glyph-name="uni013B" unicode="&#x13b;" horiz-adv-x="1068" 
d="M1047 111q-21 -73 -56 -112h-196q-14 51 -39 87t-45.5 36t-31.5 -18q89 -83 89 -236.5t-93 -244.5q-84 -84 -203 -84q-72 0 -108.5 36t-36.5 82.5t13 66.5q11 -9 47 -16.5t75 -7.5t67 10.5t28 30.5q0 9 -8 23q-37 -19 -93 -19q-85 0 -138.5 55.5t-53.5 141.5q0 32 6 57
h-6q-111 0 -171.5 59t-60.5 178v978q53 45 129.5 69.5t158.5 24.5q121 0 205 -60q91 -68 91 -188v-547q-56 -5 -110 -31.5t-54 -54.5q0 -17 19 -29q99 83 294 83h237q66 -116 66 -237q0 -60 -21 -133z" />
    <glyph glyph-name="uni013C" unicode="&#x13c;" horiz-adv-x="612" 
d="M546 1207v-703q0 -149 72 -194q1 -5 1 -19v-18q0 -172 -105 -245q34 -61 34 -154q0 -160 -93 -251q-84 -84 -203 -84q-72 0 -108.5 36t-36.5 82.5t13 66.5q11 -9 47 -16.5t75 -7.5t67 10.5t28 30.5q0 9 -8 23q-37 -19 -93 -19q-85 0 -138.5 55.5t-53.5 141.5
q0 142 121 201q-4 18 -11.5 25.5t-27 7.5t-53.5 -34q-36 80 -36 180v1039q105 64 240.5 64t202 -57.5t66.5 -160.5z" />
    <glyph glyph-name="Lcaron" unicode="&#x13d;" horiz-adv-x="1068" 
d="M264 -1q-111 0 -171.5 59t-60.5 178v978q53 45 129.5 69.5t159 24.5t152 -31t110.5 -93q16 84 82 129.5t155 45.5q122 0 192 -83.5t70 -211.5q0 -160 -93 -251q-84 -84 -203 -84q-80 0 -117 44v134q39 -17 92.5 -17t81.5 10.5t28 30.5q0 9 -8 23q-37 -19 -93 -19
q-100 0 -154 73v-495q-56 -5 -110 -31.5t-54 -54.5q0 -17 19 -29q99 83 294 83h237q66 -116 66 -237q0 -60 -21 -133t-56 -112h-727z" />
    <glyph glyph-name="lcaron" unicode="&#x13e;" horiz-adv-x="1023" 
d="M274 1425q234 0 267 -165q73 99 201.5 99t198.5 -83.5t70 -211.5q0 -160 -93 -251q-84 -84 -203 -84q-80 0 -117 44v134q39 -17 92.5 -17t81.5 10.5t28 30.5q0 9 -8 23q-37 -19 -93 -19q-98 0 -153 71v-502q0 -149 72 -194q1 -5 1 -19v-18q0 -143 -72.5 -217t-205.5 -74
t-211 74q-93 88 -93 266v1039q105 64 237 64z" />
    <glyph glyph-name="Lslash" unicode="&#x141;" horiz-adv-x="1200" 
d="M396 -1q-111 0 -171.5 59t-60.5 178v155q-74 53 -113 153t-39 212q0 24 2 50l273 108q0 35 -35 35q-17 0 -50 -13q-15 -7 -39 -16v294q53 44 130 69t159 25q122 0 195 -38q88 -46 99 -145l34 13q75 -57 113.5 -155t38.5 -210q0 -24 -2 -50l-303 -120q0 -34 35 -34
q16 0 85 22v-124q57 14 149 14h238q66 -116 66 -237q0 -60 -21 -133t-56 -112h-727z" />
    <glyph glyph-name="lslash" unicode="&#x142;" horiz-adv-x="908" 
d="M701 1207v-46l53 20q75 -57 113.5 -155t38.5 -210q0 -24 -2 -50l-303 -121q0 -31 32 -31q22 0 67 17v-126q0 -149 72 -194q1 -5 1 -19v-18q0 -143 -72.5 -217t-205.5 -74t-211 74q-93 88 -93 266v128q-71 52 -112.5 153.5t-41.5 213.5q0 24 2 50l264 104q-1 15 -9 25
t-22 10t-52 -15q-17 -6 -28 -10v379q105 64 240.5 64t202 -57.5t66.5 -160.5z" />
    <glyph glyph-name="Nacute" unicode="&#x143;" horiz-adv-x="1246" 
d="M331 -18q-126 0 -202 26t-97 61v1128q0 50 77.5 80.5t181.5 30.5q144 0 233 -60q54 -68 223 -353q11 0 20 7t9 21.5t-25 56.5l-108 186v55q51 42 124 65t151 23q127 0 205 -46q91 -55 91 -172v-947q0 -82 -96 -126q-81 -36 -169.5 -36t-124 6t-85.5 23q-102 131 -216 324
q-21 35 -44 73q-29 -4 -29 -31q0 -17 29 -65l104 -166v-106q-91 -58 -252 -58zM883 1408q-42 -38 -115 -65l-196 -71l-21 22q-86 45 -182 56l208 302q77 54 165.5 54t141 -54.5t52.5 -125t-53 -118.5z" />
    <glyph glyph-name="nacute" unicode="&#x144;" horiz-adv-x="1155" 
d="M582 83q-98 -101 -275 -101q-101 0 -175 53q-86 60 -86 159v484q-59 83 -59 204.5t59 210.5h224l259 377q77 54 165.5 54t141 -54.5t52.5 -125t-46 -123.5q-41 -45 -98 -61q-22 2 -31 2h-32q-96 0 -188.5 -32t-155.5 -105q-29 -33 -29 -56q0 -28 34 -28q45 78 129.5 127
t198.5 49t208 -38t150 -124q65 -101 65 -255v-47q-3 -51 -3 -179q0 -51 16 -95t56 -69q1 -5 1 -19v-18q0 -138 -79.5 -214.5t-205 -76.5t-203.5 71q-91 81 -91 246q0 70 6.5 123.5t9 76.5t5.5 43t3 59t-10.5 56t-29 17t-32.5 -8l13 -163q-18 -101 -18 -214t51 -206z" />
    <glyph glyph-name="uni0145" unicode="&#x145;" horiz-adv-x="1246" 
d="M751 980l-108 186v55q51 42 124 65t151 23q127 0 205 -46q91 -55 91 -172v-947q0 -82 -96 -126q-81 -36 -183 -36h-22q18 -52 18 -108q0 -160 -93 -251q-84 -84 -203 -84q-72 0 -108.5 36t-36.5 82.5t13 66.5q11 -9 47 -16.5t75 -7.5t67 10.5t28 30.5q0 9 -8 23
q-37 -19 -93 -19q-85 0 -138.5 55.5t-53.5 146.5t56 149.5t148 69.5q-59 86 -152 242q-29 -4 -29 -31q0 -17 29 -65l74 -118q-142 -51 -174 -211q-7 -1 -23 -1h-25q-126 0 -202 26t-97 61v1128q0 50 77.5 80.5t181.5 30.5q144 0 233 -60q54 -68 223 -353q11 0 20 7t9 21.5
t-25 56.5z" />
    <glyph glyph-name="uni0146" unicode="&#x146;" horiz-adv-x="1155" 
d="M549 163q18 4 53 6q-18 55 -18 127.5t6.5 126t9 76.5t5.5 43t3 59t-10.5 56t-29 17t-32.5 -8l13 -163q-18 -101 -18 -190t18 -150zM1090 495q0 -72 16 -116t56 -69q1 -5 1 -19v-18q0 -130 -71.5 -206t-181.5 -84q-20 56 -45 94q-28 39 -54 39q-14 0 -25 -17
q83 -83 83 -234t-93 -242q-84 -84 -203 -84q-72 0 -108.5 36t-36.5 82.5t13 66.5q11 -9 47 -16.5t75 -7.5t67 10.5t28 30.5q0 9 -8 23q-37 -19 -93 -19q-85 0 -138.5 55.5t-53.5 141.5q0 23 3 44q-27 -4 -61 -4q-101 0 -175 53q-86 60 -86 159v484q-59 83 -59 204.5
t59 210.5h178q71 0 121 -53q-44 -41 -44 -68q0 -31 35 -31q44 76 134.5 126t205.5 50q173 0 281 -85q136 -107 136 -332z" />
    <glyph glyph-name="Ncaron" unicode="&#x147;" horiz-adv-x="1246" 
d="M331 -18q-126 0 -202 26t-97 61v1128q0 50 77.5 80.5t181.5 30.5q144 0 233 -60q54 -68 223 -353q11 0 20 7t9 21.5t-25 56.5l-181 305q-93 52 -171 63q-14 25 -33 59q-97 163 -97 209q0 28 21 46.5t64 18.5h197l62 -115q45 0 45 36q0 22 -31 79h72q51 0 76 1h108
q32 0 53.5 -19.5t21.5 -56.5t-112 -256q-86 -5 -86 -43q0 -9 6 -21q70 23 152 23q127 0 205 -46q91 -55 91 -172v-947q0 -82 -96 -126q-81 -36 -169.5 -36t-124 6t-85.5 23q-102 131 -216 324q-21 35 -44 73q-29 -4 -29 -31q0 -22 29 -65l104 -166v-106q-91 -58 -252 -58z
" />
    <glyph glyph-name="ncaron" unicode="&#x148;" horiz-adv-x="1155" 
d="M582 83q-98 -101 -275 -101q-101 0 -175 53q-86 60 -86 159v484q-59 83 -59 204.5t59 210.5h207q61 0 96 -9q-55 93 -75.5 131.5t-47.5 89t-31 57.5q-22 42 -22 70.5t21 47t64 18.5h197l62 -115q45 0 45 36q0 15 -31 79h72q51 0 76 1h108q32 0 53.5 -19.5t21.5 -46.5
t-10 -50q-28 -74 -102 -224q-19 3 -59.5 3t-84 -12.5t-43.5 -37.5q0 -10 6 -20q63 25 142.5 25t160.5 -33q97 -39 155 -126q66 -101 66 -258v-47q-3 -51 -3 -179q0 -51 16 -95t56 -69q1 -5 1 -19v-18q0 -138 -79.5 -214.5t-205 -76.5t-203.5 71q-91 81 -91 246
q0 70 6.5 123.5t9 76.5t5.5 43t3 59t-10.5 56t-29 17t-32.5 -8l13 -163q-18 -101 -18 -214t51 -206z" />
    <glyph glyph-name="Omacron" unicode="&#x14c;" horiz-adv-x="1347" 
d="M719 690q0 100 -9 137.5t-33 37.5q-15 0 -27 -10q2 -18 6 -48t4 -128v-65q0 -68 -3 -99t-5 -53l-2 -24q12 -10 27 -10q24 0 33 37.5t9 137.5v87zM679 -32q-178 0 -326.5 73.5t-239.5 225t-91 378.5q0 329 198 514q176 163 453 163q301 0 476.5 -186.5t175.5 -490.5
q0 -338 -188 -516q-171 -161 -458 -161zM318 1438q0 97 61 188h576q61 -95 61 -188q0 -73 -31 -130q-151 59 -320 59t-313 -65q-34 63 -34 136z" />
    <glyph glyph-name="omacron" unicode="&#x14d;" horiz-adv-x="1160" 
d="M558 557v-175q7 -7 23 -7t23 11t7 38v143q0 96 -8 127.5t-30 31.5q-14 0 -24 -10q9 -99 9 -159zM184 114q-164 158 -164 428.5t154.5 427t405.5 156.5t406 -163q154 -163 154 -424.5t-148.5 -415.5t-403.5 -154t-404 145zM281 1444h576q61 -95 61 -181t-39 -159
q-125 69 -291 69q-197 0 -325 -78q-43 76 -43 167t61 182z" />
    <glyph glyph-name="Ohungarumlaut" unicode="&#x150;" horiz-adv-x="1347" 
d="M719 690q0 100 -9 137.5t-33 37.5q-15 0 -27 -10q2 -18 6 -48t4 -128v-65q0 -68 -3 -99t-5 -53l-2 -24q12 -10 27 -10q24 0 33 37.5t9 137.5v87zM113 1025q82 144 233 222q-28 28 -41 52l178 407h93q93 0 145 -49t52 -137t-59 -155q-5 1 -18 1h-15q-29 0 -40.5 -8.5
t-11.5 -28.5v-8q4 1 12 1h13q72 0 154 -15q6 11 6 22t-10.5 17.5t-36.5 12.5q56 72 56 177q0 55 -28 93l38 77h103q94 0 145.5 -48.5t51.5 -137.5q0 -56 -33 -112q-44 -76 -151 -136q178 -72 277 -237q99 -167 99 -390q0 -338 -188 -516q-171 -161 -458 -161
q-178 0 -326.5 73.5t-239.5 225t-91 375t91 383.5z" />
    <glyph glyph-name="ohungarumlaut" unicode="&#x151;" horiz-adv-x="1160" 
d="M558 557v-175q7 -7 23 -7t23 11t7 38v143q0 96 -8 127.5t-30 31.5q-14 0 -24 -10q9 -99 9 -159zM854 1061q134 -72 209 -206q77 -140 77 -313q0 -265 -148.5 -419t-403.5 -154t-404 145q-164 158 -164 437q0 168 65 294.5t185 199.5q-32 29 -46 52l178 407h93
q93 0 145 -49t52 -135t-59 -153q-5 1 -18 1h-15q-29 0 -40.5 -8.5t-11.5 -28.5v-6q11 0 17 1h16q73 0 146 -17q6 11 6 22t-9 18t-31 12q49 75 49 151.5t-28 114.5l38 77h103q94 0 145.5 -48.5t51.5 -137.5q0 -143 -198 -257z" />
    <glyph glyph-name="OE" unicode="&#x152;" horiz-adv-x="2079" 
d="M719 690q0 100 -9 137.5t-33 37.5q-15 0 -27 -10q2 -18 6 -48t4 -128v-65q0 -68 -3 -99t-5 -53l-2 -24q12 -10 27 -10q24 0 33 37.5t9 137.5v87zM665 1322q307 0 476 -188q27 9 27 28.5t-32 54.5q-33 34 -69 62q105 11 262 11h692q29 -48 43 -104.5t14 -101.5
q0 -127 -62 -203h-476q-37 0 -37 -29v-8q0 -6 2 -8h448q18 -31 31 -78q12 -51 12 -91q0 -119 -44 -186h-187q-152 0 -205.5 -11.5t-67.5 -19.5q-13 -9 -13 -23t14 -22q52 17 109 24q75 7 163 7h124q103 0 155.5 -62.5t52.5 -179.5t-68 -195h-725q-207 0 -251 162
q-10 0 -23 -7.5t-13 -31.5t25 -66q-55 -33 -148.5 -60.5t-220.5 -27.5q-168 0 -308 67q-158 75 -244 217q-99 162 -99 390t89.5 380t235.5 226t318 74z" />
    <glyph glyph-name="oe" unicode="&#x153;" horiz-adv-x="1755" 
d="M550 557v-175q7 -7 23 -7t23 11t7 38v143q0 96 -8 127.5t-30 31.5q-14 0 -24 -10q9 -99 9 -159zM1144 663q34 -3 77.5 -3t63.5 5q0 25 -14.5 44.5t-50 19.5t-56 -20.5t-20.5 -45.5zM1076 385q-3 -4 -3 -16q0 -23 48 -34.5t171 -11.5q202 0 361 57q14 -17 26 -71.5
t12 -97.5t-7 -72q-48 -60 -172.5 -108.5t-271.5 -48.5q-188 0 -305 68q44 44 44 75q0 21 -27 32q-49 -89 -151 -138.5t-230 -49.5q-245 0 -396 145q-164 158 -164 427.5t152.5 427t397.5 157.5q189 0 309 -73q-35 -38 -43.5 -51t-8.5 -31t22 -23q64 87 163.5 133.5
t204.5 46.5q244 0 389 -148q138 -143 138 -369q0 -49 -17 -106t-41 -70q-56 -30 -165.5 -48.5t-236 -18.5t-199.5 17z" />
    <glyph glyph-name="Racute" unicode="&#x154;" horiz-adv-x="1240" 
d="M591 711q4 -3 23 -3t29 15t10 49v36q0 36 -8.5 51.5t-28 15.5t-26.5 -4q1 -5 1 -17v-143zM1107 483l173 -177q-18 -156 -98.5 -240t-222.5 -84q-107 0 -186 51q-101 64 -151 204l-36 98q-42 1 -106 11q-8 -8 -8 -22q0 -27 81 -32l57 -144v-85q-115 -81 -295 -81
q-129 0 -206 53t-77 154v950q0 44 81 85.5t212 67t262 25.5q300 0 469 -123q178 -129 178 -363q0 -134 -75.5 -229.5t-190.5 -132.5q0 -32 38.5 -32t100.5 46zM375 1344l212 308q77 54 165.5 54t141 -54.5t52.5 -124.5t-42 -111.5t-114 -67.5q-96 14 -197.5 14t-217.5 -18z
" />
    <glyph glyph-name="racute" unicode="&#x155;" horiz-adv-x="930" 
d="M317 -13q-119 0 -190 43q-79 45 -79 133v515q-59 83 -59 204.5t59 210.5h153q-13 20 -18 42l231 335q77 54 165.5 54t141 -54.5t52.5 -125.5t-49 -121.5t-118 -71.5q-56 -8 -105.5 -30t-79.5 -51q-24 -21 -24 -39t23 -29q97 105 251 105t238 -63q30 -80 30 -195.5
t-46 -209.5q-34 -18 -94 -30.5t-121 -12.5t-109.5 8.5t-70.5 15.5q-8 -8 -8 -23t19.5 -22.5t65.5 -16.5v-502q-109 -69 -258 -69z" />
    <glyph glyph-name="uni0156" unicode="&#x156;" horiz-adv-x="1240" 
d="M591 711q4 -3 23 -3t29 15t10 49v36q0 36 -8.5 51.5t-28 15.5t-26.5 -4q1 -5 1 -17v-143zM959 -18q-75 0 -120 15q10 -24 16.5 -63.5t6.5 -69.5q0 -160 -93 -246q-83 -79 -203 -79q-72 0 -108.5 36t-36.5 82.5t13 66.5q11 -9 47 -16.5t75 -7.5t67 10.5t28 30.5q0 9 -8 23
q-37 -19 -93 -19q-82 0 -134 50t-58 134q43 1 62 9t19 30q0 9 -5 24q-7 -2 -53 -6t-66 -4q-129 0 -206 53t-77 154v950q0 44 81 85.5t212 67t262 25.5q300 0 469 -123q178 -129 178 -363q0 -134 -75.5 -229.5t-190.5 -132.5q0 -32 38.5 -32t100.5 46l173 -177
q-18 -156 -98.5 -240t-222.5 -84zM553 292l49 -122q3 -5 10.5 -10t21.5 -5t20 14q-18 34 -30 68l-36 98q-45 1 -108 11q-8 -8 -8 -22q0 -27 81 -32z" />
    <glyph glyph-name="uni0157" unicode="&#x157;" horiz-adv-x="930" 
d="M488 597q0 -15 19.5 -22.5t65.5 -16.5v-502q-24 -16 -42 -23q36 -74 36 -159q0 -160 -93 -251q-84 -84 -203 -84q-72 0 -108.5 36t-36.5 82.5t13 66.5q11 -9 47 -16.5t75 -7.5t67 10.5t28 30.5q0 9 -8 23q-37 -19 -93 -19q-85 0 -138.5 55.5t-53.5 141.5q0 142 120 200
q-7 31 -33.5 31t-53 -23t-38.5 -48q-12 27 -12 61v515q-59 83 -59 204.5t59 210.5h153q118 0 169 -76q-25 -28 -44 -71t-19 -61.5t9.5 -27.5t27.5 -9q35 139 133 204q81 55 200 55q148 0 232 -63q30 -80 30 -195.5t-46 -209.5q-34 -18 -94 -30.5t-121 -12.5t-109.5 8.5
t-70.5 15.5q-8 -8 -8 -23z" />
    <glyph glyph-name="Rcaron" unicode="&#x158;" horiz-adv-x="1240" 
d="M591 711q4 -3 23 -3t29 15t10 49v36q0 36 -8.5 51.5t-28 15.5t-26.5 -4q1 -5 1 -17v-143zM1107 483l173 -177q-18 -156 -98.5 -240t-222.5 -84q-107 0 -186 51q-101 64 -151 204l-36 98q-42 1 -106 11q-8 -8 -8 -22q0 -27 81 -32l57 -144v-85q-115 -81 -295 -81
q-129 0 -206 53t-77 154v950q0 44 81 85.5t212 67t262 25.5q300 0 469 -123q178 -129 178 -363q0 -134 -75.5 -229.5t-190.5 -132.5q0 -32 38.5 -32t100.5 46zM851 1407q0 -1 -34 -65q-100 20 -219 20t-222 -17q-36 58 -62 110t-48 90q-22 42 -22 70.5t21 47t64 18.5h197
l62 -115q45 0 45 36q0 15 -31 79h72q51 0 76 1h108q32 0 53.5 -19.5t21.5 -55.5t-82 -200z" />
    <glyph glyph-name="rcaron" unicode="&#x159;" horiz-adv-x="930" 
d="M315 -13q-119 0 -190 43q-79 45 -79 133v515q-59 83 -59 204.5t59 210.5h153q118 0 169 -76q-25 -28 -44 -71t-19 -61.5t9.5 -27.5t27.5 -9q35 139 133 204q81 55 200 55q148 0 232 -63q30 -80 30 -195.5t-46 -209.5q-34 -18 -94 -30.5t-121 -12.5t-109.5 8.5t-70.5 15.5
q-8 -8 -8 -23t19.5 -22.5t65.5 -16.5v-502q-109 -69 -258 -69zM651 1151q-72 0 -139.5 -24t-108.5 -71q-61 75 -175 80q-105 188 -125.5 228t-20.5 68.5t21 47t64 18.5h207l62 -115q45 0 45 36q0 15 -31 79h71q49 0 72 1h103q32 0 53.5 -19.5t21.5 -49t-23.5 -81.5
t-52.5 -109.5t-44 -88.5z" />
    <glyph glyph-name="Sacute" unicode="&#x15a;" horiz-adv-x="1175" 
d="M570 364q33 6 33 33.5t-17.5 62t-51.5 65.5q-89 80 -241 80q-75 0 -140 -25q-69 35 -110 111t-41 164q0 230 192 355q165 107 407 107q180 0 303 -38.5t201 -98.5q23 -66 23 -137t-19 -129t-55 -93q-34 25 -123 51t-162 26t-97.5 -9t-24.5 -28q0 -9 3 -17q35 9 90 9
q195 0 318 -92q145 -110 145 -330q0 -194 -157 -322q-170 -137 -457 -137q-158 0 -274 23.5t-226 82.5q-75 109 -75 221.5t77 186.5t189.5 74t184 -46t105.5 -150zM330 1321q28 31 150 205q27 37 31 42q53 72 105 105t121 33q101 0 150 -63q41 -52 41 -134v-105l-174 -54
q-73 12 -149 12t-153 -13t-122 -28z" />
    <glyph glyph-name="sacute" unicode="&#x15b;" horiz-adv-x="1043" 
d="M567 784q-26 -8 -26 -31v-5q0 -5 1 -6q11 1 29 1h24q114 0 213.5 -34.5t162.5 -110.5q70 -86 70 -217q0 -204 -141 -308t-377 -104t-369.5 78t-133.5 229q0 56 24 102.5t54 65.5q55 -46 159.5 -79.5t221.5 -33.5q47 0 47 26q0 12 -3 20q-7 -1 -17 -1h-11q-212 0 -339 84
q-144 95 -144 268t129 280q143 118 393 118q123 0 229.5 -26t182.5 -69q19 -41 19 -121q0 -122 -67 -187q-51 28 -124.5 46.5t-132.5 18.5t-74 -4zM563 1166h-29q-172 0 -323 -63q21 23 91.5 116t123 166t105 106t121.5 33q101 0 150 -63q41 -52 41 -134v-105l-191 -62
q-84 6 -89 6z" />
    <glyph glyph-name="Scedilla" unicode="&#x15e;" horiz-adv-x="1175" 
d="M893 -152q0 -119 -93 -184q-80 -57 -205 -57t-201 53.5t-76 148.5t75 139q32 -15 73 -15q56 0 56 33q0 6 -1 7q-249 7 -432 105q-75 109 -75 221.5t77 186.5t189.5 74t184 -46t105.5 -150q33 6 33 33.5t-17.5 62t-51.5 65.5q-89 80 -241 80q-75 0 -140 -25
q-69 35 -110 111t-41 164q0 230 192 355q165 107 407 107q180 0 303 -38.5t201 -98.5q23 -66 23 -137t-19 -129t-55 -93q-34 25 -123 51t-162 26t-97.5 -9t-24.5 -28q0 -9 3 -17q35 9 90 9q195 0 318 -92q145 -110 145 -330q0 -134 -80 -242t-228 -165q-29 35 -63 57t-59 22
q-34 0 -35 -30q155 -60 155 -225z" />
    <glyph glyph-name="scedilla" unicode="&#x15f;" horiz-adv-x="1043" 
d="M1041 381q0 -270 -247 -364q-20 24 -55 45.5t-56 21.5q-31 0 -35 -26q72 -28 110 -70q46 -54 46 -140q0 -119 -93 -184q-80 -57 -205 -57t-201 53.5t-76 152.5q0 47 18 80.5t46 46.5q39 -23 90 -23t51 33q0 14 -7 22q-407 38 -407 314q0 51 24 95t54 63
q55 -46 159.5 -79.5t221.5 -33.5q47 0 47 26q0 12 -3 20q-7 -1 -17 -1h-11q-212 0 -339 84q-144 95 -144 268t129 280q143 118 393 118q123 0 229.5 -26t182.5 -69q19 -41 19 -121q0 -122 -67 -187q-51 28 -124.5 46.5t-132.5 18.5t-74 -4q-26 -8 -26 -31v-5q0 -5 1 -6
q11 1 29 1h24q114 0 213.5 -34.5t162.5 -110.5q70 -86 70 -217z" />
    <glyph glyph-name="Scaron" unicode="&#x160;" horiz-adv-x="1175" 
d="M570 364q33 6 33 33.5t-17.5 62t-51.5 65.5q-89 80 -241 80q-75 0 -140 -25q-69 35 -110 111t-41 164q0 230 192 355q165 107 407 107q180 0 303 -38.5t201 -98.5q23 -66 23 -137t-19 -129t-55 -93q-34 25 -123 51t-162 26t-97.5 -9t-24.5 -28q0 -9 3 -17q35 9 90 9
q195 0 318 -92q145 -110 145 -330q0 -194 -157 -322q-170 -137 -457 -137q-158 0 -274 23.5t-226 82.5q-75 109 -75 221.5t77 186.5t189.5 74t184 -46t105.5 -150zM362 1332q-51 88 -118 213q-22 42 -22 70.5t21 47t64 18.5h197l62 -115q45 0 45 36q0 15 -31 79h72
q51 0 76 1h108q32 0 53.5 -19.5t21.5 -48.5t-22 -79.5t-92 -190.5q-90 18 -208.5 18t-226.5 -30z" />
    <glyph glyph-name="scaron" unicode="&#x161;" horiz-adv-x="1043" 
d="M567 784q-26 -8 -26 -31v-5q0 -5 1 -6q11 1 29 1h24q114 0 213.5 -34.5t162.5 -110.5q70 -86 70 -217q0 -204 -141 -308t-377 -104t-369.5 78t-133.5 229q0 56 24 102.5t54 65.5q55 -46 159.5 -79.5t221.5 -33.5q47 0 47 26q0 12 -3 20q-7 -1 -17 -1h-11q-212 0 -339 84
q-144 95 -144 268t129 280q143 118 393 118q123 0 229.5 -26t182.5 -69q19 -41 19 -121q0 -122 -67 -187q-51 28 -124.5 46.5t-132.5 18.5t-74 -4zM296 1139q-39 65 -66 121q-30 57 -53 100.5t-23 72t21 47t64 18.5h197l62 -115q45 0 45 36q0 15 -31 79h72q51 0 76 1h108
q32 0 53.5 -19.5t21.5 -47.5t-41.5 -124.5t-75.5 -155.5q-90 19 -208.5 19t-221.5 -32z" />
    <glyph glyph-name="uni0162" unicode="&#x162;" horiz-adv-x="1207" 
d="M346 77q-34 43 -34 104v644h-233q-72 103 -72 225q0 83 26.5 144.5t65.5 95.5h1034q29 -45 48 -109t19 -127q0 -118 -52 -173.5t-140 -55.5h-293q-3 -7 -3 -15q0 -18 21 -24q22 -7 94 -7h69v-703q-29 -24 -71 -46q39 -76 39 -156q0 -160 -93 -251q-84 -84 -203 -84
q-72 0 -108.5 36t-36.5 82.5t13 66.5q11 -9 47 -16.5t75 -7.5t67 10.5t28 30.5q0 9 -8 23q-37 -19 -93 -19q-85 0 -138.5 55.5t-53.5 141.5q0 135 120 193q-6 19 -12.5 25.5t-24.5 6.5t-51.5 -27t-45.5 -63z" />
    <glyph glyph-name="uni0163" unicode="&#x163;" horiz-adv-x="887" 
d="M25 974q57 36 157 110q28 68 73 216q6 20 14 39q78 20 178 20t197 -21v-245h173q58 -88 58 -207q0 -54 -15 -111t-43 -97h-143v-151q0 -128 107 -128h43q21 -76 21 -132q0 -146 -99 -220q-15 31 -44 62t-50.5 31t-27.5 -21q106 -81 106 -243t-93 -253q-84 -84 -203 -84
q-72 0 -108.5 36t-36.5 82.5t13 66.5q11 -9 47 -16.5t75 -7.5t67 10.5t28 30.5q0 9 -8 23q-37 -19 -93 -19q-85 0 -138.5 55.5t-53.5 141.5q0 67 31 121q-109 95 -109 280v289h62q50 0 50 33q0 4 -2 12h-224q-22 70 -22 156.5t13 140.5z" />
    <glyph glyph-name="Tcaron" unicode="&#x164;" horiz-adv-x="1207" 
d="M896 779v-703q-46 -40 -123 -67t-187 -27t-187 49q-87 53 -87 150v644h-233q-72 103 -72 225q0 83 26.5 144.5t65.5 95.5h1034q29 -45 48 -109t19 -127q0 -118 -52 -173.5t-140 -55.5h-293q-3 -7 -3 -15q0 -18 21 -24q22 -7 94 -7h69zM876.5 1434.5
q-21.5 -42.5 -32 -64.5t-18.5 -36h-431q-40 69 -116 211q-22 42 -22 70.5t21 47t64 18.5h197l62 -115q45 0 45 36q0 15 -31 79h72q51 0 76 1h108q32 0 53.5 -19.5t21.5 -47.5t-24 -83t-45.5 -97.5z" />
    <glyph glyph-name="tcaron" unicode="&#x165;" horiz-adv-x="1295" 
d="M25 974q57 36 157 110q28 68 73 216q6 20 14 39q78 20 178 20t197 -21v-245h84q12 -101 76 -152t166 -51q46 0 74 10.5t28 30.5q0 9 -8 23q-37 -19 -93 -19q-85 0 -138.5 55.5t-53.5 141.5q0 108 69 167.5t173 59.5q122 0 192 -83.5t70 -211.5q0 -160 -93 -251
q-84 -84 -203 -84q-83 0 -124 42q-21 -62 -42 -93h-147v-151q0 -128 107 -128h43q21 -76 21 -132q0 -138 -86.5 -211.5t-251 -73.5t-262 91.5t-97.5 269.5v289h62q50 0 50 33q0 4 -2 12h-224q-22 70 -22 156.5t13 140.5z" />
    <glyph glyph-name="Umacron" unicode="&#x16a;" horiz-adv-x="1228" 
d="M900 1308q120 0 208 -65t88 -185v-556q0 -254 -155 -391.5t-428.5 -137.5t-425.5 135q-155 135 -155 394v713q118 94 273 94q130 0 206 -68.5t76 -207.5v-583q11 -8 25.5 -8t21 7.5t6.5 28.5v556q0 63 -6 100t-24 74q120 100 290 100zM900 1355q-101 0 -186 -30.5
t-135 -73.5q-83 105 -275 105q-10 0 -32 -2q-11 38 -11 84q0 97 61 188h576q61 -95 61 -188q0 -40 -13 -84q-5 1 -13 1h-33z" />
    <glyph glyph-name="umacron" unicode="&#x16b;" horiz-adv-x="1178" 
d="M568 436q12 0 26 10q-10 33 -10 103v494q106 64 255 64q84 0 147.5 -22.5t97.5 -59.5v-521q0 -149 72 -194q1 -5 1 -19v-18q0 -146 -77 -221q-70 -70 -193 -70q-77 0 -139.5 35t-93.5 102q-34 0 -34 -33q0 -23 23 -46q-32 -26 -77 -42t-132.5 -16t-170.5 36
q-103 44 -158 135q-67 108 -67 274v251q-51 89 -51 196q0 55 14 114t45 105h220q124 0 194.5 -58.5t70.5 -177.5v-324q0 -97 37 -97zM205 1257q0 97 61 188h576q61 -95 61 -188q0 -55 -13 -105h-51q-110 0 -194.5 -29.5t-133.5 -66.5q-87 82 -246 82h-42q-18 52 -18 119z
" />
    <glyph glyph-name="Uring" unicode="&#x16e;" horiz-adv-x="1228" 
d="M878 1444q0 -77 -43 -142q37 6 81 6q116 -5 198 -69.5t82 -180.5v-556q0 -254 -155 -391.5t-428.5 -137.5t-425.5 135q-155 135 -155 394v713q118 94 273 94q13 0 43 -2q29 -59 87 -102.5t136 -58.5q16 -47 16 -113v-583q11 -8 25.5 -8t21 7.5t6.5 28.5v556q0 66 -13 107
q59 0 79.5 12.5t20.5 25.5t-13 25q-46 -17 -93 -17q-107 0 -182 75t-75 182t75 182t182 75t182 -75t75 -182z" />
    <glyph glyph-name="uring" unicode="&#x16f;" horiz-adv-x="1149" 
d="M568 438q16 0 26 8q-10 33 -10 103v411q71 5 71 37q0 12 -13 24q-46 -17 -93 -17q-107 0 -182 75t-75 182t75 182t182 75t182 -75t75 -182q0 -43 -16.5 -90t-38.5 -68q31 4 101.5 4t134 -22.5t97.5 -59.5v-521q0 -149 72 -194q1 -5 1 -19v-18q0 -146 -77 -221
q-70 -70 -193 -70q-77 0 -139.5 35t-93.5 102q-34 0 -34 -33q0 -23 23 -46q-32 -26 -77 -42t-132.5 -16t-170.5 36q-103 44 -158 135q-67 108 -67 274v251q-51 87 -51 196q0 55 14 114t45 105h250q28 -49 80 -83q59 -41 142 -51q13 -44 13 -88v-338q0 -95 37 -95z" />
    <glyph glyph-name="Uhungarumlaut" unicode="&#x170;" horiz-adv-x="1228" 
d="M759 1524q0 67 -28 105l38 77h94q95 0 150.5 -50.5t55.5 -139.5q0 -120 -125 -209q105 -11 178.5 -75t73.5 -174v-556q0 -254 -155 -391.5t-428.5 -137.5t-425.5 135q-155 135 -155 394v713q93 75 219 91l168 400h93q94 0 145.5 -48.5t51.5 -137.5q0 -136 -156 -237
q-41 36 -73.5 36t-36.5 -30q156 -58 156 -256v-583q11 -8 25.5 -8t21 7.5t6.5 28.5v556q0 91 -25 154q-12 28 -17.5 35t-11 13.5t-6.5 8.5q167 115 167 279z" />
    <glyph glyph-name="uhungarumlaut" unicode="&#x171;" horiz-adv-x="1149" 
d="M568 438q16 0 26 8q-10 33 -10 103v336q0 40 -15.5 85t-47.5 71q82 56 117.5 129.5t35.5 145.5t-28 110l38 77h103q94 0 145.5 -48.5t51.5 -137.5q0 -56 -34.5 -118t-82.5 -93q149 -10 217 -81v-521q0 -149 72 -194q1 -5 1 -19v-18q0 -146 -77 -221q-70 -70 -193 -70
q-77 0 -139.5 35t-93.5 102q-34 0 -34 -33q0 -23 23 -46q-32 -26 -77 -42t-132.5 -16t-170.5 36q-103 44 -158 135q-67 108 -67 274v251q-51 89 -51 196q0 55 14 114t45 105h115l173 410h93q94 0 145.5 -48.5t51.5 -137.5q0 -66 -40 -133.5t-104 -109.5q-17 13 -42.5 24
t-43.5 11q-31 0 -32 -28q169 -43 169 -224v-324q0 -95 37 -95z" />
    <glyph glyph-name="Uogonek" unicode="&#x172;" horiz-adv-x="1228" 
d="M411 -5q-183 43 -281 171.5t-98 335.5v713q118 94 273 94q130 0 206 -68.5t76 -207.5v-583q11 -8 25.5 -8t21 7.5t6.5 28.5v556q0 63 -6 100t-24 74q120 100 290 100q120 0 208 -65t88 -185v-556q0 -207 -105 -338.5t-312 -176.5q-12 -14 -12 -35.5t15 -35t41.5 -13.5
t53.5 15q75 -44 75 -139.5t-74 -148.5t-191 -53t-203.5 62.5t-86.5 178.5q0 79 42 131q36 43 100 70q-2 35 -29 35q-40 0 -99 -59z" />
    <glyph glyph-name="uogonek" unicode="&#x173;" horiz-adv-x="1148" 
d="M568 438q16 0 26 8q-10 33 -10 103v494q106 64 255 64q84 0 147.5 -22.5t97.5 -59.5v-521q0 -149 72 -194q1 -5 1 -19v-18q0 -157 -91 -233q-53 -45 -53 -87q0 -24 15.5 -37t41.5 -13t53 15q75 -44 75 -139.5t-74 -148.5t-191 -53t-203.5 62.5t-86.5 178.5q0 132 113 194
q-69 36 -102 107q-34 0 -34 -33q0 -23 23 -46q-32 -26 -77 -42t-132.5 -16t-170.5 36q-103 44 -158 135q-67 108 -67 274v251q-51 89 -51 196q0 55 14 114t45 105h220q124 0 194.5 -58.5t70.5 -177.5v-324q0 -95 37 -95z" />
    <glyph glyph-name="Ydieresis" unicode="&#x178;" horiz-adv-x="1274" 
d="M442 304q28 0 28 31q-221 147 -337.5 361t-130.5 472q45 67 134.5 103t184.5 36q125 0 215 -49q56 -151 92 -288l-49 -216q-4 -15 -4 -28q0 -34 36 -34q12 38 56 230q11 49 29.5 136.5t47.5 206.5q92 44 210 44q143 0 228 -69.5t85 -200.5q0 -192 -108 -374
q-85 -144 -225 -269v-330q-83 -51 -149 -67.5t-139 -16.5q-138 0 -217 52t-79 155v176q18 -18 46 -39.5t46 -21.5zM283 1508q0 79 54.5 135.5t133.5 56.5q101 0 159 -86q59 86 157 86q78 0 134 -56t56 -135q0 -104 -82 -157q-75 -11 -132 -28q-88 11 -131 77
q-42 -67 -128 -79q-64 23 -140 28q-81 52 -81 158z" />
    <glyph glyph-name="Zacute" unicode="&#x179;" horiz-adv-x="1142" 
d="M27 1058q0 82 26.5 141.5t62.5 90.5h915q36 -38 65 -113t29 -185q0 -61 -6.5 -87.5t-13.5 -44.5t-14 -38q-106 -150 -267 -302q-145 -5 -215.5 -24.5t-70.5 -47.5q0 -12 10 -23q49 21 134.5 35.5t165.5 14.5h225q67 -119 67 -225t-47 -162t-117 -74q-51 -14 -127 -14
h-733q-104 108 -104 338q0 51 10 95q89 106 208 233t224 227q-4 22 -27 22q-14 0 -38 -19t-74 -73h-215q-73 115 -73 235zM898 1411q-35 -35 -108 -62l-39 -14h-386l219 317q77 54 165.5 54t141 -54.5t52.5 -125t-45 -115.5z" />
    <glyph glyph-name="zacute" unicode="&#x17a;" horiz-adv-x="993" 
d="M968 837q0 -27 -8 -78.5t-19 -82.5q-93 -128 -223 -216q-128 -6 -187.5 -26t-59.5 -45q0 -16 11 -24q42 23 116 36.5t142 13.5h193q26 -45 42 -100.5t16 -97.5q0 -116 -63 -172q-50 -45 -137 -45h-713q-89 93 -89 290q0 72 26 171q91 101 258 229q33 26 74 61
q-6 23 -27 23q-4 0 -14 -2q-29 -9 -121 -95h-124q-59 97 -59 208q0 70 22 124t54 84h825q65 -95 65 -256zM693 1155l-42 -17h-386l232 332q77 54 165.5 54t141 -54.5t52.5 -124.5t-46 -116t-117 -74z" />
    <glyph glyph-name="Zdotaccent" unicode="&#x17b;" horiz-adv-x="1142" 
d="M786 1290h245q36 -38 65 -113t29 -185q0 -61 -6.5 -87.5t-13.5 -44.5t-14 -38q-106 -150 -267 -302q-145 -5 -215.5 -24.5t-70.5 -47.5q0 -12 10 -23q49 21 134.5 35.5t165.5 14.5h225q67 -119 67 -225t-47 -162t-117 -74q-51 -14 -127 -14h-733q-104 108 -104 338
q0 51 10 95q89 106 208 233t224 227q-4 22 -27 22q-14 0 -38 -19t-74 -73h-215q-73 115 -73 235q0 82 26.5 141.5t62.5 90.5h260q16 -30 72 -63t133.5 -33t129.5 30t75 66zM425 1619q65 65 156 65t158 -65q65 -67 65 -159t-61 -155q-65 -65 -161 -65t-159 64t-63 156t65 159
z" />
    <glyph glyph-name="zdotaccent" unicode="&#x17c;" horiz-adv-x="993" 
d="M341 1437q65 65 156 65t158 -65q65 -67 65 -159t-61 -155q-65 -65 -161 -65t-159 64t-63 156t65 159zM968 837q0 -27 -8 -78.5t-19 -82.5q-93 -128 -223 -216q-128 -6 -187.5 -26t-59.5 -45q0 -16 11 -24q42 23 116 36.5t142 13.5h193q26 -45 42 -100.5t16 -97.5
q0 -116 -63 -172q-50 -45 -137 -45h-713q-89 93 -89 290q0 72 26 171q91 101 258 229q33 26 74 61q-6 23 -27 23q-4 0 -14 -2q-29 -9 -121 -95h-124q-59 97 -59 208q0 70 22 124t54 84h225q69 -81 201 -81t194 81h205q65 -95 65 -256z" />
    <glyph glyph-name="Zcaron" unicode="&#x17d;" horiz-adv-x="1142" 
d="M27 1058q0 82 26.5 141.5t62.5 90.5h915q36 -38 65 -113t29 -185q0 -61 -6.5 -87.5t-13.5 -44.5t-14 -38q-106 -150 -267 -302q-145 -5 -215.5 -24.5t-70.5 -47.5q0 -12 10 -23q49 21 134.5 35.5t165.5 14.5h225q67 -119 67 -225t-47 -162t-117 -74q-51 -14 -127 -14
h-733q-104 108 -104 338q0 51 10 95q89 106 208 233t224 227q-4 22 -27 22q-14 0 -38 -19t-74 -73h-215q-73 115 -73 235zM866.5 1434.5q-21.5 -42.5 -32 -64.5t-18.5 -36h-431q-40 69 -116 211q-22 42 -22 70.5t21 47t64 18.5h197l62 -115q45 0 45 36q0 15 -31 79h72
q51 0 76 1h108q32 0 53.5 -19.5t21.5 -47.5t-24 -83t-45.5 -97.5z" />
    <glyph glyph-name="zcaron" unicode="&#x17e;" horiz-adv-x="993" 
d="M968 837q0 -27 -8 -78.5t-19 -82.5q-93 -128 -223 -216q-128 -6 -187.5 -26t-59.5 -45q0 -16 11 -24q42 23 116 36.5t142 13.5h193q26 -45 42 -100.5t16 -97.5q0 -116 -63 -172q-50 -45 -137 -45h-713q-89 93 -89 290q0 72 26 171q91 101 258 229q33 26 74 61
q-6 23 -27 23q-4 0 -14 -2q-29 -9 -121 -95h-124q-59 97 -59 208q0 70 22 124t54 84h825q65 -95 65 -256zM715 1136h-415q-63 109 -124 226q-22 42 -22 70.5t21 47t64 18.5h197l62 -115q45 0 45 36q0 15 -31 79h72q51 0 76 1h108q32 0 53.5 -19.5t21.5 -46.5t-13.5 -61
t-114.5 -236z" />
    <glyph glyph-name="florin" unicode="&#x192;" horiz-adv-x="868" 
d="M509 1032q-8 -8 -8 -18.5t11 -18.5q38 -30 212 -30q83 0 153 12q6 -16 6 -71.5t-15.5 -118t-43.5 -95.5h-152l-33 -427q-21 -260 -150 -376q-108 -99 -296 -99q-163 0 -257 94q-84 84 -84 197.5t64 188.5q71 81 186 81q75 0 133 -38q52 -36 71 -93q3 -1 8 -1h6
q31 0 31 29q0 16 -15 40.5t-41 46.5q-67 56 -172 60l22 297h-100q-29 60 -29 143q0 157 85 272h67q45 159 162.5 243.5t294.5 84.5q126 0 214.5 -36t124.5 -82q2 -10 2 -15v-16q0 -132 -60 -249q-73 -27 -191 -27t-206 22z" />
    <glyph glyph-name="uni0218" unicode="&#x218;" horiz-adv-x="1165" 
d="M776 154q-21 0 -30 -21q62 -38 94.5 -105.5t32.5 -153.5q0 -160 -93 -251q-84 -84 -203 -84q-72 0 -108.5 36t-36.5 82.5t13 66.5q11 -9 47 -16.5t75 -7.5t67 10.5t28 30.5q0 9 -8 23q-37 -19 -93 -19q-85 0 -138.5 55.5t-53.5 141.5q0 30 4 51q-159 19 -294 85
q-75 102 -75 218t77 190t189.5 74t184 -46t105.5 -150q33 6 33 33.5t-17.5 62t-51.5 65.5q-89 80 -241 80q-75 0 -140 -25q-69 35 -110 111t-41 164q0 229 192 350q163 103 407 103q150 0 291.5 -38.5t212.5 -89.5q23 -66 23 -137.5t-18.5 -128t-55.5 -93.5q-34 25 -123 51
t-162 26t-97.5 -9t-24.5 -28q0 -9 3 -17q35 9 90 9q193 0 318 -95q145 -112 145 -327q0 -130 -76.5 -235t-221.5 -162q-65 120 -119 120z" />
    <glyph glyph-name="uni0219" unicode="&#x219;" horiz-adv-x="1043" 
d="M983 180q-58 -86 -165 -135q-15 33 -36.5 55.5t-39.5 22.5t-28 -21q87 -84 87 -236t-93 -243q-84 -84 -203 -84q-72 0 -108.5 36t-36.5 82.5t13 66.5q11 -9 47 -16.5t75 -7.5t67 10.5t28 30.5q0 9 -8 23q-37 -19 -93 -19q-85 0 -138.5 55.5t-53.5 141.5q0 38 7 63
q-137 31 -207 100q-77 74 -77 181q0 51 24 95t54 63q55 -46 159.5 -79.5t221.5 -33.5q47 0 47 26q0 12 -3 20q-7 -1 -17 -1h-11q-212 0 -339 84q-144 95 -144 268t129 280q143 118 393 118q123 0 229.5 -26t182.5 -69q19 -41 19 -121q0 -122 -67 -187q-51 28 -124.5 46.5
t-132.5 18.5t-74 -4q-26 -8 -26 -31v-5q0 -5 1 -6q11 1 29 1h24q114 0 213.5 -34.5t162.5 -110.5q70 -86 70 -209t-58 -209z" />
    <glyph glyph-name="uni021A" unicode="&#x21a;" horiz-adv-x="1207" 
d="M346 77q-34 43 -34 104v644h-233q-72 103 -72 225q0 83 26.5 144.5t65.5 95.5h1034q29 -45 48 -109t19 -127q0 -118 -52 -173.5t-140 -55.5h-293q-3 -7 -3 -15q0 -18 21 -24q22 -7 94 -7h69v-703q-29 -24 -71 -46q39 -76 39 -156q0 -160 -93 -251q-84 -84 -203 -84
q-72 0 -108.5 36t-36.5 82.5t13 66.5q11 -9 47 -16.5t75 -7.5t67 10.5t28 30.5q0 9 -8 23q-37 -19 -93 -19q-85 0 -138.5 55.5t-53.5 141.5q0 135 120 193q-6 19 -12.5 25.5t-24.5 6.5t-51.5 -27t-45.5 -63z" />
    <glyph glyph-name="uni021B" unicode="&#x21b;" horiz-adv-x="887" 
d="M25 974q57 36 157 110q28 68 73 216q6 20 14 39q78 20 178 20t197 -21v-245h173q58 -88 58 -207q0 -54 -15 -111t-43 -97h-143v-151q0 -128 107 -128h43q21 -76 21 -132q0 -146 -99 -220q-15 31 -44 62t-50.5 31t-27.5 -21q106 -81 106 -243t-93 -253q-84 -84 -203 -84
q-72 0 -108.5 36t-36.5 82.5t13 66.5q11 -9 47 -16.5t75 -7.5t67 10.5t28 30.5q0 9 -8 23q-37 -19 -93 -19q-85 0 -138.5 55.5t-53.5 141.5q0 67 31 121q-109 95 -109 280v289h62q50 0 50 33q0 4 -2 12h-224q-22 70 -22 156.5t13 140.5z" />
    <glyph glyph-name="circumflex" unicode="&#x2c6;" horiz-adv-x="728" 
d="M336 1335l24 -80l-24 -52q-45 -17 -109.5 -17t-122 23.5t-84.5 64.5l118 363q38 21 99.5 33.5t114.5 12.5q141 0 217 -39l139 -397q-27 -27 -78 -44t-104 -17t-94 10q-3 8 -9.5 29t-35 109.5t-30.5 103.5q-21 0 -29 -7.5t-8 -25t16 -70.5z" />
    <glyph glyph-name="caron" unicode="&#x2c7;" horiz-adv-x="729" 
d="M573 1118q-88 -30 -195 -30q-40 0 -100.5 8.5t-101.5 23.5q-40 69 -90 160.5t-60 114.5q-6 16 -6 41t21 43.5t64 18.5h197l62 -115q45 0 45 36q0 15 -31 79h72q51 0 76 1h108q32 0 53.5 -19.5t21.5 -46.5t-14.5 -64t-54 -120.5t-67.5 -130.5z" />
    <glyph glyph-name="uni02C9" unicode="&#x2c9;" horiz-adv-x="738" 
d="M20 1438q0 97 61 188h576q61 -95 61 -188t-61 -188h-576q-61 91 -61 188z" />
    <glyph glyph-name="breve" unicode="&#x2d8;" horiz-adv-x="765" 
d="M20 1459q0 85 52.5 134t103.5 49q25 -44 81 -75.5t122 -31.5t120.5 28t81.5 79q52 0 108 -49.5t56 -133.5q0 -102 -88 -172q-100 -80 -275 -80t-273 80q-89 71 -89 172z" />
    <glyph glyph-name="dotaccent" unicode="&#x2d9;" horiz-adv-x="484" 
d="M85 1619q65 65 156 65t158 -65q65 -67 65 -159t-61 -155q-65 -65 -161 -65t-159 64t-63 156t65 159z" />
    <glyph glyph-name="ring" unicode="&#x2da;" horiz-adv-x="554" 
d="M20 1444q0 107 75 182t182 75t182 -75t75 -182t-75 -182t-182 -75t-182 75t-75 182z" />
    <glyph glyph-name="ogonek" unicode="&#x2db;" horiz-adv-x="595" 
d="M175 33v24q0 61 40.5 101.5t111.5 40.5t113 -40.5t42 -109.5v-50q-54 0 -73 -16.5t-19 -35.5t13.5 -31.5t41.5 -12.5t55 15q75 -44 75 -139.5t-74 -148.5t-193.5 -53t-197.5 57q-90 64 -90 184q0 155 155 215z" />
    <glyph glyph-name="tilde" unicode="&#x2dc;" horiz-adv-x="636" 
d="M431 1303q-72 0 -122.5 15.5t-76 26t-42.5 16.5h-165q-5 39 -5 96v40q0 93 40 145q47 62 145 62q59 0 90 -8t40 -10.5t16.5 -5t24.5 -8.5t30 -10h200q10 -70 10 -157t-40 -139q-48 -63 -145 -63z" />
    <glyph glyph-name="hungarumlaut" unicode="&#x2dd;" horiz-adv-x="891" 
d="M787 1348q-76 -71 -191 -125l-129 -62q-27 1 -61.5 20t-47.5 39l25 18q178 128 178 286q0 67 -28 105l38 77h103q94 0 145.5 -48.5t51.5 -138.5t-84 -171zM511 1520q0 -127 -162 -246l-189 -138q-101 24 -140 90l201 480h93q94 0 145.5 -48.5t51.5 -137.5z" />
    <glyph glyph-name="pi" unicode="&#x3c0;" horiz-adv-x="1228" 
d="M634 180v467q36 0 48 8.5t12 36.5h-120v-513q0 -86 34 -128q-69 -37 -128.5 -49t-125.5 -12q-125 0 -198.5 47.5t-73.5 142.5v512h-54q-58 83 -58 204t58 210h1172q58 -83 58 -204.5t-58 -210.5h-54v-624q-114 -77 -242.5 -77t-199 47.5t-70.5 142.5z" />
    <glyph glyph-name="uni0900" unicode="&#x900;" 
d="M-402 1629q43 41 104.5 41t101 -42.5t39.5 -102t-42 -101.5t-101.5 -42t-102 42.5t-42.5 103t43 101.5zM-497 1507v-10q-59 2 -107 47q-59 55 -59 137q0 101 89 172q98 80 273 80t275 -80q88 -70 88 -172q0 -83 -56.5 -133t-108.5 -50v7q0 96 -55 154q-56 56 -143 56
t-141.5 -56.5t-54.5 -151.5z" />
    <glyph glyph-name="uni0901" unicode="&#x901;" 
d="M-445 1788q0 61 42 103t102.5 42t102 -41.5t41.5 -101.5t-39.5 -102.5t-101 -42.5t-104.5 41t-43 102zM-497 1808q0 -95 54.5 -151.5t142 -56.5t142.5 57t55 153v7q53 0 109 -49.5t56 -133.5q0 -102 -88 -172q-100 -80 -275 -80t-273 80q-89 71 -89 172q0 82 59 137
q48 45 107 47v-10z" />
    <glyph glyph-name="uni0902" unicode="&#x902;" 
d="M-487 1595q0 93 63.5 158.5t155 65.5t158.5 -65q65 -67 65 -160.5t-61 -155.5t-159 -62t-160 63t-62 156z" />
    <glyph glyph-name="uni0903" unicode="&#x903;" horiz-adv-x="525" 
d="M260 1043q-55 0 -107.5 -20t-84.5 -56h-89q-61 85 -61 180q0 51 14.5 92.5t46.5 91.5h563q32 -49 47 -89t15 -95q0 -94 -62 -180h-83q-65 76 -199 76zM419 586q-57 36 -100.5 36t-43.5 -38q95 -5 157 -65q66 -66 66 -169.5t-69 -167t-168 -63.5t-167 68t-68 165
q0 66 32 120t87 84q-56 29 -87.5 84t-31.5 125q0 98 67.5 165.5t167 67.5t168.5 -63.5t69 -173t-79 -175.5z" />
    <glyph glyph-name="uni0904" unicode="&#x904;" horiz-adv-x="1545" 
d="M968 1376q-168 0 -248 77q-69 65 -69 169q0 134 110 224l92 -11q8 -34 38 -51q47 -25 194 -37q158 -13 250 -52q107 -45 148 -143q21 -50 21 -113t-21 -108h84q34 -53 47.5 -92t13.5 -92q0 -95 -61 -180h-50v-582q0 -66 13 -109.5t44 -80.5q-18 -95 -89 -149t-169.5 -54
t-173 43.5t-100.5 131.5q61 99 61 215q0 81 -29 137q-26 47 -55 47q-19 0 -25 -17q56 -64 56 -164q0 -174 -137 -281.5t-369 -107.5q-205 0 -359 118q-165 125 -165 314q0 128 91 197q74 55 186 57q1 -126 75.5 -202.5t200.5 -76.5q61 0 61 34q0 8 -3 17q-23 -6 -51 -6
q-109 0 -170.5 62t-61.5 163.5t65 162.5t160 61q34 0 47 -3q3 6 3 13q0 35 -66.5 35t-135 -42t-106.5 -117q-122 10 -194 106q-63 84 -63 182q67 121 171 195q137 96 316 96q227 0 357 -112t130 -297q0 -52 -10 -81q8 -6 23.5 -6t27.5 26t12 72q0 161 -96 271q6 56 60 96
h139q15 3 15 16q0 33 -92 33z" />
    <glyph glyph-name="uni0905" unicode="&#x905;" horiz-adv-x="1543" 
d="M1103 382q0 81 -29 137q-26 47 -55 47q-19 0 -25 -17q56 -64 56 -164q0 -174 -137 -281.5t-369 -107.5q-205 0 -359 118q-165 125 -165 314q0 128 91 197q74 55 186 57q1 -126 75.5 -202.5t200.5 -76.5q61 0 61 34q0 8 -3 17q-23 -6 -51 -6q-109 0 -170.5 62t-61.5 163.5
t65 162.5t160 61q34 0 47 -3q3 6 3 13q0 35 -66.5 35t-135 -42t-106.5 -117q-122 10 -194 106q-63 84 -63 182q67 121 171 195q137 96 316 96q227 0 357 -112t130 -297q0 -52 -10 -81q8 -6 23.5 -6t27.5 26t12 72q0 161 -96 271q6 56 60 96h518q34 -53 47.5 -92t13.5 -92
q0 -95 -61 -180h-50v-582q0 -66 13 -109.5t44 -80.5q-18 -95 -89 -149t-169.5 -54t-173 43.5t-100.5 131.5q61 99 61 215z" />
    <glyph glyph-name="uni0906" unicode="&#x906;" horiz-adv-x="2074" 
d="M2048 385q0 -66 13 -109.5t44 -80.5q-18 -95 -89 -149t-175 -54q-76 0 -141 29.5t-100 86.5q24 48 30 108q-27 27 -38 51q-21 45 -21 121v579h-54v-582q0 -66 13 -109.5t44 -80.5q-18 -95 -89 -149t-169.5 -54t-173 43.5t-100.5 131.5q61 99 61 215q0 81 -29 137
q-26 47 -55 47q-19 0 -25 -17q56 -64 56 -164q0 -174 -137 -281.5t-369 -107.5q-205 0 -359 118q-165 125 -165 314q0 128 91 197q74 55 186 57q1 -126 75.5 -202.5t200.5 -76.5q61 0 61 34q0 8 -3 17q-23 -6 -51 -6q-109 0 -170.5 62t-61.5 163.5t65 162.5t160 61
q34 0 47 -3q3 6 3 13q0 35 -66.5 35t-135 -42t-106.5 -117q-122 10 -194 106q-63 84 -63 182q67 121 171 195q137 96 316 96q227 0 357 -112t130 -297q0 -52 -10 -81q8 -6 23.5 -6t27.5 26t12 72q0 161 -96 271q6 56 60 96h1049q34 -53 47.5 -92t13.5 -92q0 -95 -61 -180
h-50v-582z" />
    <glyph glyph-name="uni0907" unicode="&#x907;" horiz-adv-x="1105" 
d="M553 752q0 -3 2 -13q52 23 123 23q177 0 292 -98.5t115 -260.5q0 -177 -137 -278q-121 -89 -323 -109q0 -36 79 -36q43 0 110 19t93 38q15 -54 15 -104q0 -102 -62 -161t-171 -59t-193 79t-142 228q-158 20 -262 70q-51 96 -51 183q0 110 76.5 180.5t196.5 70.5
t198.5 -69.5t89.5 -168.5q33 2 33 39.5t-20.5 79.5t-58.5 77q-92 87 -231 87q-68 0 -122 -14q-33 -10 -74 -31q-38 40 -63 94t-25 132q0 119 96 196.5t233 77.5h171q1 2 1 9q0 36 -54 36h-118q-177 0 -284 -102h-111q-61 85 -61 180q0 51 14.5 92.5t46.5 91.5h1145
q32 -49 47 -89t15 -95q0 -94 -62 -180h-114v-103q0 -39 -18 -71.5t-44 -44.5q-103 59 -247 59t-144 -55z" />
    <glyph glyph-name="uni0908" unicode="&#x908;" horiz-adv-x="1105" 
d="M553 752q0 -3 2 -13q52 23 123 23q177 0 292 -98.5t115 -260.5q0 -177 -137 -278q-121 -89 -323 -109q0 -36 79 -36q43 0 110 19t93 38q15 -54 15 -104q0 -102 -62 -161t-171 -59t-193 79t-142 228q-158 20 -262 70q-51 96 -51 183q0 110 76.5 180.5t196.5 70.5
t198.5 -69.5t89.5 -168.5q33 2 33 39.5t-20.5 79.5t-58.5 77q-92 87 -231 87q-68 0 -122 -14q-33 -10 -74 -31q-38 40 -63 94t-25 132q0 119 96 196.5t233 77.5h171q1 2 1 9q0 36 -54 36h-118q-177 0 -284 -102h-111q-61 85 -61 180q0 51 14.5 92.5t46.5 91.5h586
q-126 93 -126 246q0 138 92.5 224.5t248.5 86.5q125 0 209.5 -76t84.5 -194q0 -66 -21 -121l-126 -36q-44 -12 -63.5 -28.5t-19.5 -44.5q0 -42 45 -57h235q32 -49 47 -89t15 -95q0 -94 -62 -180h-114v-103q0 -39 -18 -71.5t-44 -44.5q-103 59 -247 59t-144 -55z" />
    <glyph glyph-name="uni0909" unicode="&#x909;" horiz-adv-x="1115" 
d="M453 924q57 -11 124.5 -11t67.5 31q0 15 -4 23h-656q-61 85 -61 180q0 51 14.5 92.5t46.5 91.5h1153q61 -94 61 -186.5t-61 -177.5h-83v-119q0 -69 -23 -126.5t-59 -88.5q49 -31 85.5 -92t36.5 -147q0 -178 -137.5 -283t-379.5 -105t-400 125.5t-158 317.5q0 130 87 197
q73 56 188 56q0 -110 72.5 -185t200.5 -75q31 0 63.5 10t32.5 32q0 12 -7 22q-40 -19 -82 -19q-98 0 -162.5 60.5t-64.5 159.5q0 138 105 217z" />
    <glyph glyph-name="uni090A" unicode="&#x90a;" horiz-adv-x="1797" 
d="M453 924q57 -11 124.5 -11t67.5 31q0 15 -4 23h-656q-61 85 -61 180q0 51 14.5 92.5t46.5 91.5h1821q32 -49 47 -89t15 -95q0 -94 -62 -180h-647q0 57 -17 95.5t-41 38.5q-17 0 -26 -16q31 -38 31 -118q0 -97 -74 -160q3 -3 11.5 -10.5t18.5 -20.5q120 113 291 113
t292 -109q132 -120 132 -322q0 -180 -110.5 -290.5t-271.5 -110.5q-134 0 -213 68q-80 66 -80 186q0 67 26.5 120t68.5 79q27 -25 60.5 -25t50 12t16.5 32q0 49 -73 49t-133 -66q-69 -78 -69 -200q0 -27 6.5 -60.5t13.5 -48.5q-46 -75 -181 -136t-302 -61q-243 0 -404.5 127
t-161.5 316q0 130 87 197q73 56 188 56q0 -110 72.5 -185t200.5 -75q31 0 63.5 10t32.5 32q0 12 -7 22q-40 -19 -82 -19q-98 0 -162.5 60.5t-64.5 159.5q0 138 105 217z" />
    <glyph glyph-name="uni090B" unicode="&#x90b;" horiz-adv-x="1758" 
d="M715 870q22 4 22 27t-27 56.5t-73 63.5q-116 76 -272 76q-103 0 -180.5 -38t-120.5 -88h-113q-62 86 -62 180q0 55 15 95t47 89h1815q32 -49 47 -89t15 -95q0 -94 -62 -180h-123q-35 40 -99.5 67t-160.5 27q-121 0 -206 -71.5t-85 -178t44 -106.5q12 0 20 4
q-11 38 -11 86q0 103 69 163t167 60q136 0 205 -64t69 -163q0 -70 -37 -107q-47 31 -83 31t-40 -29q89 -19 161 -97q81 -90 81 -208q0 -147 -89.5 -231t-223.5 -84q-112 0 -183 51q-94 68 -94 212q0 25 2 67q18 -5 45 -5q61 0 106 23.5t45 51.5q0 13 -14 21
q-51 -51 -157 -51q-36 0 -75 13q-5 -58 -5 -119t10.5 -104t32.5 -79q-28 -71 -95.5 -113t-159 -42t-167 48t-99.5 141q107 140 120 159q15 23 15 43t-24 28l-148 -183q-62 -77 -126 -114.5t-157.5 -37.5t-157.5 63q-75 72 -75 195q0 44 4 69l435 205q2 14 2 27t-13 24
t-33 11t-33.5 -13t-13.5 -36l-260 -122q-53 22 -92.5 83.5t-39.5 140.5q0 142 102.5 233.5t243.5 91.5q228 0 350 -178z" />
    <glyph glyph-name="uni090C" unicode="&#x90c;" horiz-adv-x="1507" 
d="M227 967h-252q-61 85 -61 180q0 51 14.5 92.5t46.5 91.5h1549q34 -53 47.5 -92t13.5 -92q0 -95 -61 -180h-226v-48q77 -39 130 -136.5t53 -216.5q0 -145 -83 -256q-53 21 -110 33q-16 -42 -69.5 -91t-124.5 -65q0 -16 7.5 -22t22.5 -6q48 0 106 41t87 94q75 -21 118 -68
q54 -59 54 -147q0 -138 -113.5 -213.5t-273 -75.5t-260.5 73t-101 206q0 106 76 187q29 32 70 63q91 66 125 106q21 25 21 54t-27 29q-31 -72 -100 -111t-153.5 -39t-154 44t-98.5 120q-14 0 -21.5 -9.5t-7.5 -23.5q0 -59 73.5 -113.5t155.5 -62.5q23 -50 23 -98
q0 -96 -63.5 -159.5t-182.5 -63.5q-91 0 -174 39.5t-146 110.5q-137 153 -137 378q0 179 110 307q122 142 322 142q86 0 164.5 -48t126.5 -137q29 64 84 107t111 49q0 19 -9 26t-28 7q-36 0 -81 -30.5t-77 -73.5q-46 64 -126.5 104.5t-180.5 40.5t-209 -47z" />
    <glyph glyph-name="uni090D" unicode="&#x90d;" horiz-adv-x="1039" 
d="M689 330q120 0 219 51q62 -84 62 -178q0 -122 -86 -182q-74 -52 -195 -52q-314 0 -493 214q-170 203 -170 536v248h-52q-61 85 -61 180q0 51 14.5 92.5t46.5 91.5h1088q32 -49 47 -89t15 -95q0 -94 -62 -180h-64q21 -73 21 -152q0 -252 -113 -362q-80 -78 -217 -78
q-119 0 -198 83q-13 -12 -13 -28q0 -41 63.5 -70.5t147.5 -29.5zM495 784q26 0 46.5 30t20.5 78.5t-10 74.5h-57v-183zM169 1634q0 85 52.5 134t103.5 49q25 -44 81 -75.5t122 -31.5t120.5 28t81.5 79q52 0 108 -49.5t56 -133.5q0 -102 -88 -172q-100 -80 -275 -80t-273 80
q-89 71 -89 172z" />
    <glyph glyph-name="uni090E" unicode="&#x90e;" horiz-adv-x="1039" 
d="M495 784q26 0 46.5 30t20.5 78.5t-10 74.5h-57v-183zM439 1376q-168 0 -248 77q-69 65 -69 169q0 134 110 224l92 -11q8 -34 38 -51q47 -25 194 -37q158 -13 250 -52q107 -45 148 -143q21 -50 21 -113t-21 -108h108q32 -49 47 -89t15 -95q0 -94 -62 -180h-64
q21 -73 21 -152q0 -252 -113 -362q-80 -78 -217 -78q-119 0 -198 83q-13 -12 -13 -28q0 -41 63.5 -70.5t147.5 -29.5q120 0 219 51q62 -84 62 -178q0 -122 -86 -182q-74 -52 -195 -52q-314 0 -493 214q-170 203 -170 536v248h-52q-61 85 -61 180q0 51 14.5 92.5t46.5 91.5
h685q15 3 15 16q0 33 -92 33z" />
    <glyph glyph-name="uni090F" unicode="&#x90f;" horiz-adv-x="1039" 
d="M689 330q120 0 219 51q62 -84 62 -178q0 -122 -86 -182q-74 -52 -195 -52q-314 0 -493 214q-170 203 -170 536v248h-52q-61 85 -61 180q0 51 14.5 92.5t46.5 91.5h1088q32 -49 47 -89t15 -95q0 -94 -62 -180h-64q21 -73 21 -152q0 -252 -113 -362q-80 -78 -217 -78
q-119 0 -198 83q-13 -12 -13 -28q0 -41 63.5 -70.5t147.5 -29.5zM495 784q26 0 46.5 30t20.5 78.5t-10 74.5h-57v-183z" />
    <glyph glyph-name="uni0910" unicode="&#x910;" horiz-adv-x="1039" 
d="M495 784q26 0 46.5 30t20.5 78.5t-10 74.5h-57v-183zM689 330q120 0 219 51q62 -84 62 -178q0 -122 -86 -182q-74 -52 -195 -52q-314 0 -493 214q-170 203 -170 536v248h-52q-61 85 -61 180q0 51 14.5 92.5t46.5 91.5h668q15 0 23 7.5t8 18t-6 19.5q-154 0 -266 36
q-142 45 -205 136q0 143 91.5 231.5t213.5 88.5q211 0 331 -163q109 -148 111 -374h119q32 -49 47 -89t15 -95q0 -94 -62 -180h-64q21 -73 21 -152q0 -252 -113 -362q-80 -78 -217 -78q-119 0 -198 83q-13 -12 -13 -28q0 -41 63.5 -70.5t147.5 -29.5z" />
    <glyph glyph-name="uni0911" unicode="&#x911;" horiz-adv-x="2074" 
d="M1376 1634q0 85 52.5 134t103.5 49q25 -44 81 -75.5t122 -31.5t120.5 28t81.5 79q52 0 108 -49.5t56 -133.5q0 -102 -88 -172q-100 -80 -275 -80t-273 80q-89 71 -89 172zM2048 385q0 -66 13 -109.5t44 -80.5q-18 -95 -89 -149t-175 -54q-76 0 -141 29.5t-100 86.5
q24 48 30 108q-27 27 -38 51q-21 45 -21 121v579h-54v-582q0 -66 13 -109.5t44 -80.5q-18 -95 -89 -149t-169.5 -54t-173 43.5t-100.5 131.5q61 99 61 215q0 81 -29 137q-26 47 -55 47q-19 0 -25 -17q56 -64 56 -164q0 -174 -137 -281.5t-369 -107.5q-205 0 -359 118
q-165 125 -165 314q0 128 91 197q74 55 186 57q1 -126 75.5 -202.5t200.5 -76.5q61 0 61 34q0 8 -3 17q-23 -6 -51 -6q-109 0 -170.5 62t-61.5 163.5t65 162.5t160 61q34 0 47 -3q3 6 3 13q0 35 -66.5 35t-135 -42t-106.5 -117q-122 10 -194 106q-63 84 -63 182
q67 121 171 195q137 96 316 96q227 0 357 -112t130 -297q0 -52 -10 -81q8 -6 23.5 -6t27.5 26t12 72q0 161 -96 271q6 56 60 96h1049q34 -53 47.5 -92t13.5 -92q0 -95 -61 -180h-50v-582z" />
    <glyph glyph-name="uni0912" unicode="&#x912;" horiz-adv-x="2074" 
d="M1486 1376q-168 0 -248 77q-69 65 -69 169q0 134 110 224l92 -11q8 -34 38 -51q47 -25 194 -37q158 -13 250 -52q107 -45 148 -143q21 -50 21 -113t-21 -108h97q34 -53 47.5 -92t13.5 -92q0 -95 -61 -180h-50v-582q0 -66 13 -109.5t44 -80.5q-18 -95 -89 -149t-175 -54
q-76 0 -141 29.5t-100 86.5q24 48 30 108q-27 27 -38 51q-21 45 -21 121v579h-54v-582q0 -66 13 -109.5t44 -80.5q-18 -95 -89 -149t-169.5 -54t-173 43.5t-100.5 131.5q61 99 61 215q0 81 -29 137q-26 47 -55 47q-19 0 -25 -17q56 -64 56 -164q0 -174 -137 -281.5
t-369 -107.5q-205 0 -359 118q-165 125 -165 314q0 128 91 197q74 55 186 57q1 -126 75.5 -202.5t200.5 -76.5q61 0 61 34q0 8 -3 17q-23 -6 -51 -6q-109 0 -170.5 62t-61.5 163.5t65 162.5t160 61q34 0 47 -3q3 6 3 13q0 35 -66.5 35t-135 -42t-106.5 -117
q-122 10 -194 106q-63 84 -63 182q67 121 171 195q137 96 316 96q227 0 357 -112t130 -297q0 -52 -10 -81q8 -6 23.5 -6t27.5 26t12 72q0 161 -96 271q6 56 60 96h657q15 3 15 16q0 33 -92 33z" />
    <glyph glyph-name="uni0913" unicode="&#x913;" horiz-adv-x="2074" 
d="M2048 385q0 -66 13 -109.5t44 -80.5q-18 -95 -89 -149t-175 -54q-76 0 -141 29.5t-100 86.5q24 48 30 108q-27 27 -38 51q-21 45 -21 121v579h-54v-582q0 -66 13 -109.5t44 -80.5q-18 -95 -89 -149t-169.5 -54t-173 43.5t-100.5 131.5q61 99 61 215q0 81 -29 137
q-26 47 -55 47q-19 0 -25 -17q56 -64 56 -164q0 -174 -137 -281.5t-369 -107.5q-205 0 -359 118q-165 125 -165 314q0 128 91 197q74 55 186 57q1 -126 75.5 -202.5t200.5 -76.5q61 0 61 34q0 8 -3 17q-23 -6 -51 -6q-109 0 -170.5 62t-61.5 163.5t65 162.5t160 61
q34 0 47 -3q3 6 3 13q0 35 -66.5 35t-135 -42t-106.5 -117q-122 10 -194 106q-63 84 -63 182q67 121 171 195q137 96 316 96q227 0 357 -112t130 -297q0 -52 -10 -81q8 -6 23.5 -6t27.5 26t12 72q0 161 -96 271q6 56 60 96h659q15 0 23 7.5t8 18t-6 19.5q-154 0 -266 36
q-142 45 -205 136q0 143 91.5 231.5t213.5 88.5q211 0 331 -163q109 -148 111 -374h89q34 -53 47.5 -92t13.5 -92q0 -95 -61 -180h-50v-582z" />
    <glyph glyph-name="uni0914" unicode="&#x914;" horiz-adv-x="2074" 
d="M2000 1331h98q34 -53 47.5 -92t13.5 -92q0 -95 -61 -180h-50v-582q0 -66 13 -109.5t44 -80.5q-18 -95 -89 -149t-175 -54q-76 0 -141 29.5t-100 86.5q24 48 30 108q-27 27 -38 51q-21 45 -21 121v579h-54v-582q0 -66 13 -109.5t44 -80.5q-18 -95 -89 -149t-169.5 -54
t-173 43.5t-100.5 131.5q61 99 61 215q0 81 -29 137q-26 47 -55 47q-19 0 -25 -17q56 -64 56 -164q0 -174 -137 -281.5t-369 -107.5q-205 0 -359 118q-165 125 -165 314q0 128 91 197q74 55 186 57q1 -126 75.5 -202.5t200.5 -76.5q61 0 61 34q0 8 -3 17q-23 -6 -51 -6
q-109 0 -170.5 62t-61.5 163.5t65 162.5t160 61q34 0 47 -3q3 6 3 13q0 35 -66.5 35t-135 -42t-106.5 -117q-122 10 -194 106q-63 84 -63 182q67 121 171 195q137 96 316 96q227 0 357 -112t130 -297q0 -52 -10 -81q8 -6 23.5 -6t27.5 26t12 72q0 161 -96 271q6 56 60 96
h595q40 0 40 28q0 7 -3 15q-128 0 -236 27q-139 33 -204 96q0 127 77 209t179 82q207 0 317 -217q21 7 21 34t-24.5 65t-65.5 74q-101 84 -226 90q1 86 61 139.5t150 53.5q149 0 244 -108q92 -108 92 -282q0 -140 -66 -306z" />
    <glyph glyph-name="uni0915" unicode="&#x915;" horiz-adv-x="1648" 
d="M549 539q9 0 12 1v124q-3 1 -15 1q-28 0 -44.5 -19t-16.5 -46t17.5 -44t46.5 -17zM1118 166q-55 -174 -266 -174q-118 0 -194 73t-76 187v45q-52 0 -52 -59q0 -26 8 -56q-44 -20 -116 -20q-176 0 -289 115.5t-113 291t105 295.5q113 131 299 131q126 0 209 -61q7 10 7 22
q0 32 -61.5 58t-154.5 26q-145 0 -258 -73h-191q-61 85 -61 180q0 51 14.5 92.5t46.5 91.5h1676q37 -57 49.5 -94t12.5 -90q0 -94 -62 -180h-164q-110 73 -252 73q-91 0 -153 -25.5t-62 -63.5q0 -13 8 -21q91 65 207 65q173 0 287 -129q51 -57 78.5 -131.5t27.5 -150.5
q0 -189 -100.5 -300.5t-239.5 -111.5q-118 0 -183 63.5t-65 177.5q0 73 30 150q19 -12 37.5 -12t30.5 15.5t12 41t-14.5 41.5t-36.5 16t-34 -5q-30 -30 -54 -100.5t-24 -146.5q0 -171 131 -247z" />
    <glyph glyph-name="uni0916" unicode="&#x916;" horiz-adv-x="1572" 
d="M569 411q103 0 173 59q91 -118 258 -118q51 0 96.5 13t45.5 41q0 10 -4 17q-63 -26 -137 -26q-117 0 -191.5 73.5t-74.5 189t81.5 189t197.5 73.5q82 0 132 -22q4 7 4 17q0 29 -53 41q-39 9 -94 9q-135 0 -227 -87q-94 -91 -94 -222q0 -82 33 -145q-23 -27 -71 -42.5
t-94 -15.5t-63 4q-1 -1 -1 -4v-5q0 -26 28 -33q19 -6 55 -6zM446 848q42 18 42 57t-23 62h-490q-61 85 -61 180q0 51 14.5 92.5t46.5 91.5h1621q34 -53 47.5 -92t13.5 -92q0 -95 -61 -180h-50v-582q0 -68 14.5 -111.5t43.5 -78.5q-18 -94 -89.5 -148.5t-175.5 -54.5
q-57 0 -113 18.5t-91 53.5q39 56 39 115t-42 63q0 -127 -84 -205t-233 -78q-172 0 -305 111q-98 82 -242 290q-99 14 -173.5 95t-74.5 193.5t68.5 193t182 80.5t175.5 -74z" />
    <glyph glyph-name="uni0917" unicode="&#x917;" horiz-adv-x="1167" 
d="M677 916q-23 43 -48.5 67.5t-45 24.5t-30.5 -15q54 -51 89 -132q38 -93 38 -202q0 -159 -78 -263q-94 -122 -274 -122q-137 0 -222.5 79t-85.5 192q0 80 33 151q25 -12 53 -12q47 0 74 30.5t27 87.5t-21.5 100t-50.5 65h-160q-61 85 -61 180q0 51 14.5 92.5t46.5 91.5
h1216q34 -53 47.5 -92t13.5 -92q0 -95 -61 -180h-50v-582q0 -66 13 -109.5t44 -80.5q-19 -96 -91 -149.5t-181 -53.5t-183 60q-90 73 -90 208v109q80 122 80 280.5t-56 266.5z" />
    <glyph glyph-name="uni0918" unicode="&#x918;" horiz-adv-x="1102" 
d="M-93 1147q0 51 14.5 92.5t46.5 91.5h1158q34 -53 47.5 -92t13.5 -92q0 -95 -61 -180h-50v-582q0 -68 14.5 -111.5t43.5 -78.5q-19 -96 -91 -149.5t-165 -53.5t-167 39t-104 119q38 6 93 35t92.5 64t37.5 66q0 19 -20 27q-55 -79 -151 -123.5t-220 -44.5q-164 0 -268 79
t-104 210q0 64 34 119q31 53 82 72q72 -24 151 -24t117 13.5t38 34.5q0 11 -7 18q-69 -20 -143 -20q-114 0 -186 59.5t-72 165.5q0 54 25.5 107t79.5 82q-4 21 -25 21q-35 0 -71.5 -43t-49.5 -101h-72q-61 85 -61 180z" />
    <glyph glyph-name="uni0919" unicode="&#x919;" horiz-adv-x="1362" 
d="M906 645q0 91 64 155q62 64 155 64t155 -64t62 -157t-63 -154q-64 -61 -154.5 -61t-154.5 64q-64 62 -64 153zM633 389q0 3 -2 13q-23 -3 -77 -3q-103 0 -192 46q-102 52 -143 143q-70 -12 -119 -43q-67 91 -67 192q0 140 95 225t239 85q96 0 180 -23q3 8 3 14
q0 32 -75 47q-40 7 -102 7q-201 0 -304 -125h-94q-61 85 -61 180q0 51 14.5 92.5t46.5 91.5h1399q32 -49 47 -89t15 -95q0 -94 -62 -180h-379v-88q-83 -37 -123 -127q-80 26 -165 26q-169 0 -169 -57q0 -8 5 -16q66 28 152.5 28t159.5 -26q-4 -27 -4 -59q0 -100 62.5 -173.5
t161.5 -91.5v-5q-1 -189 -139.5 -301t-369.5 -112t-383 99.5t-152 263.5q0 74 34 123q38 57 128 84q34 -65 113 -114q107 -67 241 -67q86 0 86 35z" />
    <glyph glyph-name="uni091A" unicode="&#x91a;" horiz-adv-x="1326" 
d="M1411 1147q0 -95 -61 -180h-50v-582q0 -68 14.5 -111.5t43.5 -78.5q-19 -96 -91 -149.5t-166 -53.5t-163.5 32t-108.5 89q69 30 129 80t60 86q0 21 -21 32q-54 -83 -158 -139q-120 -66 -270 -66q-200 0 -318 93.5t-118 251.5q0 81 35 139q-61 6 -104.5 62.5t-43.5 139.5
t37 130h723q43 -65 43 -149.5t-42 -134.5q-44 -50 -113 -50h-80q-17 -15 -17 -36t18 -34.5t44.5 -13.5t52 10t37.5 33q153 41 153 220q0 57 -19 112t-45 88h-837q-61 85 -61 180q0 51 14.5 92.5t46.5 91.5h1375q34 -53 47.5 -92t13.5 -92z" />
    <glyph glyph-name="uni091B" unicode="&#x91b;" horiz-adv-x="1292" 
d="M341 714q-100 0 -185 -41q-39 27 -58.5 85t-19.5 121t37 124t98 90q-6 20 -39 20t-73.5 -42.5t-58.5 -103.5h-67q-61 85 -61 180q0 51 14.5 92.5t46.5 91.5h1327q34 -53 47.5 -92t13.5 -92q0 -95 -61 -180h-169q-42 20 -113 32v27q0 54 -11 69q-11 13 -42 13v-107
q-143 0 -237 -94q-93 -95 -93 -243q0 -125 82 -219q34 -39 73.5 -61.5t73.5 -22.5q21 0 21 21v5q-80 27 -133 92q-64 78 -64 183q0 125 77.5 209.5t203.5 84.5q142 0 221.5 -99.5t79.5 -256.5q0 -208 -96 -355q-88 -134 -237.5 -202t-322.5 -68q-268 0 -420.5 113
t-152.5 292q0 125 87 207t225 82q54 0 81 -13q3 8 4 10.5t1 6.5q0 41 -100 41z" />
    <glyph glyph-name="uni091C" unicode="&#x91c;" horiz-adv-x="1382" 
d="M-66 1147q0 51 14.5 92.5t46.5 91.5h1411q34 -53 47.5 -92t13.5 -92q0 -95 -61 -180h-50v-582q0 -66 13 -109.5t44 -80.5q-19 -96 -91 -149.5t-165.5 -53.5t-165.5 38t-102 117q127 116 127 265q0 65 -23 111q-23 44 -55 44q-13 0 -20 -4q45 -69 45 -151q0 -124 -94 -214
q-107 -100 -291 -100q-236 0 -399 137q-76 63 -117.5 146.5t-41.5 175.5q0 122 79 198t206 76q-4 -20 -4 -53q0 -127 73 -208t185 -81q55 0 55 41q-125 0 -192.5 67.5t-67.5 184.5q0 34 10 76.5t25 63.5h555q0 24 -14 34.5t-56 10.5h-879q-61 85 -61 180z" />
    <glyph glyph-name="uni091D" unicode="&#x91d;" horiz-adv-x="1513" 
d="M86 967h-111q-61 85 -61 180q0 51 14.5 92.5t46.5 91.5h1562q34 -53 47.5 -92t13.5 -92q0 -95 -61 -180h-50v-582q0 -66 13 -109.5t44 -80.5q-18 -95 -89 -149t-175 -54q-80 0 -149.5 34.5t-102.5 100.5q40 39 70 98.5t30 116.5q0 39 -43 49q-6 -171 -141 -269
q-119 -86 -319 -106q0 -36 79 -36q43 0 110 19t93 38q15 -54 15 -104q0 -102 -62 -161t-171 -59t-193 79t-142 228q-158 20 -262 70q-51 96 -51 183q0 110 76.5 180.5t196.5 70.5t198.5 -69.5t89.5 -168.5q33 2 33 39.5t-20.5 79.5t-58.5 77q-92 87 -231 87q-115 0 -196 -45
q-38 40 -63 94t-25 132q0 119 96 196.5t233 77.5h171q1 2 1 9q0 36 -54 36h-118q-177 0 -284 -102zM698 762q174 0 314 -99q31 26 44 67.5t13 110.5v122q0 81 -53 81v-187q0 -97 -20 -128q-126 78 -290 78q-70 0 -111.5 -14t-41.5 -41q0 -3 2 -13q56 23 143 23z" />
    <glyph glyph-name="uni091E" unicode="&#x91e;" horiz-adv-x="1201" 
d="M-97 1147q0 51 14.5 92.5t46.5 91.5h1261q34 -53 47.5 -92t13.5 -92q0 -95 -61 -180h-50v-582q0 -66 13 -109.5t44 -80.5q-18 -95 -89 -149t-164.5 -54t-165.5 36.5t-106 117.5q71 48 124 125.5t53 142.5q0 47 -35 47q-28 -155 -144 -247.5t-281 -92.5t-284.5 95
t-119.5 240q0 56 24 109t58 76q56 -52 131 -83t137 -31t88.5 18.5t26.5 47.5t-13.5 42.5t-34.5 13.5q-50 0 -59 -77q-53 0 -125 27t-128.5 83.5t-71.5 140.5q44 118 159 186q103 62 217 62t207 -51t152 -141q26 5 26 28q0 18 -25 52q-57 81 -191 131q-72 26 -172.5 26
t-194.5 -43q-79 -38 -151 -106h-116q-61 85 -61 180z" />
    <glyph glyph-name="uni091F" unicode="&#x91f;" horiz-adv-x="1091" 
d="M1142 1147q0 -95 -61 -180h-109q17 -73 17 -117q0 -153 -130 -241q-76 -52 -242 -96q-55 -15 -92.5 -27.5t-37.5 -30.5q0 -37 86.5 -37t195 47.5t144.5 95.5q72 -38 115 -100t43 -142q0 -146 -146.5 -237.5t-353.5 -91.5q-247 0 -398 127q-153 126 -153 332
q0 169 109 286q98 106 258 146q99 25 139.5 58.5t40.5 90.5q0 37 -9 59q-14 29 -40 29q-12 0 -22 -6q18 -40 18 -74q0 -56 -37 -71h-477q-61 85 -61 180q0 51 14.5 92.5t46.5 91.5h1081q34 -53 47.5 -92t13.5 -92z" />
    <glyph glyph-name="uni0920" unicode="&#x920;" horiz-adv-x="1184" 
d="M-65 1147q0 51 14.5 92.5t46.5 91.5h1196q32 -49 47 -89t15 -95q0 -94 -62 -180h-189q6 -31 6 -70q0 -70 -37 -109q-64 33 -109 33q-34 0 -43 -33q151 -36 247.5 -151t96.5 -252q0 -207 -160 -317q-146 -101 -404 -101t-416 120q-164 123 -164 333q0 158 92 279t270 173
q108 33 146 63q47 35 47 100t-40 65q-13 0 -20 -4q6 -34 6 -54q0 -56 -47 -75h-478q-61 87 -61 180zM655.5 450q-14.5 14 -42.5 27q-50 -13 -74.5 -28.5t-24.5 -37t22.5 -32t56.5 -10.5t55.5 12t21.5 33.5t-14.5 35.5z" />
    <glyph glyph-name="uni0921" unicode="&#x921;" horiz-adv-x="1095" 
d="M633 389q0 3 -2 13q-23 -3 -77 -3q-103 0 -192 46q-102 52 -143 143q-70 -12 -119 -43q-67 91 -67 192q0 140 95 225t239 85q96 0 180 -23q3 8 3 14q0 32 -75 47q-40 7 -102 7q-201 0 -304 -125h-97q-61 85 -61 180q0 51 14.5 92.5t46.5 91.5h1131q32 -49 47 -89t15 -95
q0 -94 -62 -180h-108v-119q0 -41 -17 -75t-46 -46q-99 51 -225 51q-169 0 -169 -57q0 -8 5 -16q66 28 152 28t170.5 -30t140.5 -101q69 -88 69 -219q0 -194 -139.5 -306t-370 -112t-382.5 99.5t-152 263.5q0 74 34 123q38 57 128 84q34 -65 113 -114q107 -67 241 -67
q86 0 86 35z" />
    <glyph glyph-name="uni0922" unicode="&#x922;" horiz-adv-x="1166" 
d="M628 1087q0 26 -9 37t-28 11h-14v-27q0 -36 -20 -52t-73 -28q-115 -22 -199 -61h-299q-62 86 -62 180q0 55 15 95t47 89h1188q32 -49 47 -89t15 -95q0 -94 -62 -180h-151q4 -36 4 -84q0 -99 -57 -147q-78 30 -160 30q-165 0 -266.5 -86.5t-101.5 -220.5q0 -59 18.5 -99.5
t50.5 -40.5q7 0 12 3q-28 54 -28 127q0 113 89 192.5t234.5 79.5t236.5 -100.5t91 -239.5q0 -201 -144.5 -308.5t-381.5 -107.5q-261 0 -430.5 139.5t-169.5 364.5q0 167 82 287q64 93 187 156q89 44 204 67q135 27 135 108zM769 332q74 0 74 47q0 15 -10 25t-28 10
t-30 -14.5t-12 -33t6 -34.5z" />
    <glyph glyph-name="uni0923" unicode="&#x923;" horiz-adv-x="1407" 
d="M-85 1147q0 51 14.5 92.5t46.5 91.5h1455q34 -53 47.5 -92t13.5 -92q0 -95 -61 -180h-50v-582q0 -68 14.5 -111.5t43.5 -78.5q-19 -96 -91 -149.5t-181 -53.5t-183 60q-90 71 -90 206v118q121 134 121 347q0 123 -24.5 199t-63.5 76q-13 0 -21 -5q28 -49 42 -120t14 -141
q0 -217 -132 -338t-333.5 -121t-328.5 120q-142 132 -142 368q0 84 9 206h-59q-61 85 -61 180zM456 819q0 -71 39 -71q18 0 28 13t10 67.5t-15 138.5h-56q-6 -125 -6 -148z" />
    <glyph glyph-name="uni0924" unicode="&#x924;" horiz-adv-x="1139" 
d="M479 1042q-97 0 -168 -17.5t-147 -57.5h-188q-61 85 -61 180q0 51 14.5 92.5t46.5 91.5h1187q34 -53 47.5 -92t13.5 -92q0 -95 -61 -180h-50v-582q0 -68 14.5 -111.5t43.5 -78.5q-19 -96 -91 -149.5t-173 -53.5q-77 0 -144.5 30.5t-103.5 95.5q34 48 34 117.5t-67 183.5
v167q-22 16 -47.5 16t-41 -18t-15.5 -40.5t7 -39.5q4 -9 7.5 -17t10.5 -21t11 -22t25 -45q60 -112 60 -161q0 -112 -99 -176.5t-257 -77.5l-58 75q-209 272 -209 508q0 205 123.5 317.5t335.5 112.5q103 0 186 -24q2 6 2 13q0 56 -188 56z" />
    <glyph glyph-name="uni0925" unicode="&#x925;" horiz-adv-x="1355" 
d="M758 690q-71 -90 -175 -117q9 -28 42 -28t85 31q77 47 130.5 146t53.5 217t-46 220q-19 43 -46 76q6 56 60 96h517q34 -53 47.5 -92t13.5 -92q0 -95 -61 -180h-50v-582q0 -66 13 -109.5t44 -80.5q-19 -96 -91 -149.5t-172 -53.5t-171 43.5t-101 126.5q77 37 114.5 71.5
t37.5 57t-17 34.5q-60 -74 -158.5 -118.5t-223.5 -44.5q-254 0 -415 153q-169 159 -169 425q18 -2 34 -2h42q168 0 263 56t95 152q0 64 -49 64q-16 0 -27.5 -12t-11.5 -31q0 -38 33 -52q-16 -57 -80.5 -91t-153.5 -40q-48 15 -98.5 83.5t-50.5 156.5q0 148 112 248t295 100
q203 0 318 -139q100 -121 100 -279.5t-83 -263.5z" />
    <glyph glyph-name="uni0926" unicode="&#x926;" horiz-adv-x="1136" 
d="M1014 221l110 -174q0 -111 -73.5 -182.5t-187 -71.5t-190.5 67q-70 59 -83 140q36 0 92 8.5t95 26.5t39 44q0 11 -7 21q-105 -55 -246 -55q-236 0 -389.5 131.5t-153.5 345.5q0 238 160 366q150 120 408 120q0 26 -19.5 34t-81 8t-147 -25t-135.5 -58h-230
q-61 85 -61 180q0 51 14.5 92.5t46.5 91.5h1163q32 -49 47 -89t15 -95q0 -94 -62 -180h-95v-33q0 -88 -33 -143q-41 -68 -123 -68q-37 6 -78 6q-130 0 -221.5 -69.5t-91.5 -196.5q0 -87 46 -87q9 0 15 3q-8 26 -8 80q0 108 81 169q73 56 180.5 56t189.5 -79.5t116 -217.5
q-23 -76 -102 -166z" />
    <glyph glyph-name="uni0927" unicode="&#x927;" horiz-adv-x="1252" 
d="M722 1124q0 59 -16 111q6 57 59 96h511q34 -53 47.5 -92t13.5 -92q0 -95 -61 -180h-50v-582q0 -66 13 -109.5t44 -80.5q-19 -96 -91 -149.5t-173 -53.5q-73 0 -135.5 27.5t-100.5 78.5q85 38 143 99t58 91t-27 44q-48 -107 -177.5 -173.5t-285.5 -66.5
q-201 0 -321.5 86.5t-120.5 236.5q0 70 39.5 132.5t95.5 79.5q96 -47 224 -47q44 0 70 7.5t26 30.5q0 5 -2 15q-33 -8 -94 -8q-122 0 -214.5 51.5t-145 139t-52.5 203.5q0 168 109 265.5t251.5 97.5t226.5 -70q81 -70 81 -182.5t-71 -166.5q-59 -45 -135.5 -45t-118.5 33
q-13 -7 -13 -23q0 -22 37.5 -38.5t85.5 -16.5q108 0 181 55q89 67 89 196z" />
    <glyph glyph-name="uni0928" unicode="&#x928;" horiz-adv-x="1187" 
d="M-71 1147q0 51 14.5 92.5t46.5 91.5h1221q34 -53 47.5 -92t13.5 -92q0 -95 -61 -180h-50v-582q0 -66 13 -109.5t44 -80.5q-19 -96 -91 -149.5t-180 -53.5t-179 60q-84 71 -84 208v283q-19 22 -66 22q-15 0 -24 -4q11 -16 21 -50.5t10 -74.5q0 -112 -64 -176
q-68 -70 -190 -70q-146 0 -248 110q-103 108 -103 263q0 177 122 272q112 87 307 87q76 0 139 -12q44 -10 96 -31v88h-694q-61 85 -61 180z" />
    <glyph glyph-name="uni0929" unicode="&#x929;" horiz-adv-x="1187" 
d="M-71 1147q0 51 14.5 92.5t46.5 91.5h1221q34 -53 47.5 -92t13.5 -92q0 -95 -61 -180h-50v-582q0 -66 13 -109.5t44 -80.5q-19 -96 -91 -149.5t-180 -53.5t-179 60q-84 71 -84 208v283q-19 22 -66 22q-15 0 -24 -4q11 -16 21 -50.5t10 -74.5q0 -112 -64 -176
q-68 -70 -190 -70q-146 0 -248 110q-103 108 -103 263q0 177 122 272q112 87 307 87q76 0 139 -12q44 -10 96 -31v88h-694q-61 85 -61 180zM531 137q55 0 96 -39q40 -42 40 -97.5t-40 -95.5q-40 -38 -97 -38t-95.5 39.5t-38.5 95t40 95.5t95 40z" />
    <glyph glyph-name="uni092A" unicode="&#x92a;" horiz-adv-x="1063" 
d="M-87 1147q0 51 14.5 92.5t46.5 91.5h1113q34 -53 47.5 -92t13.5 -92q0 -95 -61 -180h-50v-582q0 -68 14.5 -111.5t43.5 -78.5q-19 -96 -91 -149.5t-181.5 -53.5t-182.5 60q-90 73 -90 208v41q71 8 146 48.5t75 80.5q0 19 -14 30q-49 -56 -132.5 -88t-176.5 -32
q-194 0 -308 116t-114 308q0 110 16 203h-68q-61 85 -61 180zM552 967h-57q-9 -34 -9 -95q0 -94 66 -104v199z" />
    <glyph glyph-name="uni092B" unicode="&#x92b;" horiz-adv-x="1652" 
d="M1093 185q-16 -77 -74 -128q-74 -65 -190 -65t-189 60q-90 73 -90 208v41q58 9 116 34q75 34 75 72q0 15 -10 28q-49 -44 -127 -69.5t-156 -25.5q-194 0 -308 116t-114 308q0 110 16 203h-68q-61 85 -61 180q0 51 14.5 92.5t46.5 91.5h1681q32 -49 47 -89t15 -95
q0 -94 -62 -180h-164q-112 73 -252 73q-91 0 -152 -27.5t-61 -60.5q0 -14 6 -22q91 65 207 65q173 0 287 -129q51 -57 78.5 -131.5t27.5 -150.5q0 -189 -100.5 -300.5t-239.5 -111.5q-118 0 -183 63.5t-65 177.5q0 73 30 150q19 -12 37.5 -12t30.5 15.5t12 41t-18 40.5
t-36.5 15t-30.5 -3q-30 -30 -54 -100.5t-24 -146.5q0 -147 102 -228zM552 967h-57q-9 -34 -9 -95q0 -94 66 -104v199z" />
    <glyph glyph-name="uni092C" unicode="&#x92c;" horiz-adv-x="1077" 
d="M658 458q22 0 34 17q-46 26 -110 82.5t-119 119.5q-58 64 -78 103q-20 -11 -20 -34q0 -36 55.5 -104t127.5 -126t110 -58zM693 27q-78 40 -111 123q33 2 91 26.5t58 57.5q0 13 -10 23q-36 -27 -98 -49t-141 -22q-184 0 -314 103q-148 116 -148 325.5t142 323.5
q126 101 320 101q69 0 132 -17t101 -43q4 8 4 18q0 36 -74 63q-72 24 -165 24q-224 0 -361 -117h-144q-61 85 -61 180q0 51 14.5 92.5t46.5 91.5h1126q34 -53 47.5 -92t13.5 -92q0 -95 -61 -180h-50v-582q0 -66 13 -109.5t44 -80.5q-19 -96 -91 -149.5t-165 -53.5t-159 35z
" />
    <glyph glyph-name="uni092D" unicode="&#x92d;" horiz-adv-x="1384" 
d="M393 971q-18 0 -31.5 -12t-13.5 -31q0 -39 49 -51v-97q-46 -8 -102 -32.5t-96 -57.5q-77 25 -138 110t-61 201q0 145 110.5 258t288.5 113q218 0 325 -123.5t107 -351.5v-139q4 -1 19 -3.5t35 -9.5v199q0 64 -21 150.5t-59 140.5q6 57 59 96h544q34 -53 47.5 -92
t13.5 -92q0 -95 -61 -180h-50v-582q0 -66 13 -109.5t44 -80.5q-18 -95 -89 -149t-181.5 -54t-184.5 60q-90 73 -90 208v173q-16 11 -51 11v-73q0 -117 -76 -190q-77 -72 -202 -72q-159 0 -275 96q-123 100 -123 256q0 117 80.5 187.5t229.5 88.5v129q0 105 -60 105z" />
    <glyph glyph-name="uni092E" unicode="&#x92e;" horiz-adv-x="1250" 
d="M747 967h-55v-148q23 -5 55 -14v162zM-62 1147q0 55 15 95t47 89h1274q34 -53 47.5 -92t13.5 -92q0 -95 -61 -180h-50v-582q0 -66 13 -109.5t44 -80.5q-19 -96 -91 -149.5t-180 -53.5t-179 60q-84 71 -84 208v209q-12 14 -22.5 18.5t-32.5 4.5v-82q0 -108 -72.5 -185.5
t-204.5 -77.5q-77 0 -148 28.5t-126 80.5q-121 113 -121 270q0 221 205 285v156h-225q-62 86 -62 180z" />
    <glyph glyph-name="uni092F" unicode="&#x92f;" horiz-adv-x="1206" 
d="M-71 1147q0 51 14.5 92.5t46.5 91.5h1240q34 -53 47.5 -92t13.5 -92q0 -95 -61 -180h-50v-582q0 -70 12.5 -112.5t42.5 -77.5q-19 -96 -91 -149.5t-165.5 -53.5t-165.5 39t-100 110q66 12 126 51.5t60 75.5q0 19 -14 25q-123 -119 -329 -119q-112 0 -207.5 32.5
t-167.5 92.5q-161 134 -161 352q0 93 39 166q28 -18 72 -18t71 24.5t27 61.5q0 57 -59 82h-180q-61 85 -61 180zM659 971q-17 0 -24 -15q26 -28 45 -75t19 -96q0 -97 -63.5 -152t-160.5 -55v-7q0 -35 51 -35q83 0 150 62q76 69 76 187q0 74 -31.5 130t-61.5 56z" />
    <glyph glyph-name="uni0930" unicode="&#x930;" horiz-adv-x="972" 
d="M664 -29q-145 0 -249 115q-89 98 -173 317q-82 22 -145 86q-77 79 -77 189q0 134 90 212q77 68 185 68q71 0 125 -31t86 -81q24 7 24 27t-18 43t-48 42q-73 46 -162.5 46t-165.5 -37h-146q-61 85 -61 180q0 51 14.5 92.5t46.5 91.5h1009q60 -92 60 -185t-62 -179h-94
q49 -73 49 -179q0 -160 -119.5 -265.5t-298.5 -112.5q0 -42 63 -42q46 0 92.5 12.5t77.5 31.5q31 -56 75.5 -107t89.5 -84q-12 -104 -82.5 -177t-185.5 -73z" />
    <glyph glyph-name="uni0931" unicode="&#x931;" horiz-adv-x="972" 
d="M295 958q71 0 125 -31t86 -81q24 7 24 27t-18 43t-48 42q-73 46 -162.5 46t-165.5 -37h-145q-61 85 -61 180q0 51 14.5 92.5t46.5 91.5h1008q60 -92 60 -185t-62 -179h-94q49 -73 49 -179q0 -160 -119.5 -265.5t-298.5 -112.5q0 -42 63 -42q46 0 92.5 12.5t77.5 31.5
q31 -56 75.5 -107t89.5 -84q-12 -104 -82.5 -177t-189.5 -73t-211 81q21 41 21 82q0 79 -57 128.5t-135 49.5q-8 17 -19 46.5t-17 44.5q-82 22 -145 86q-77 79 -77 189q0 134 90 212q77 68 185 68zM378 228q40 -42 40 -96.5t-40 -94.5t-96 -40t-94 40q-41 39 -41 94.5
t40 95.5t95 40t96 -39z" />
    <glyph glyph-name="uni0932" unicode="&#x932;" horiz-adv-x="1376" 
d="M796 332q21 -48 21 -121q0 -98 -71.5 -161.5t-197.5 -63.5q-230 0 -381 159q-70 73 -108.5 169.5t-38.5 201.5q0 180 100 305q112 140 304 140q84 0 165 -48q80 -49 121 -133h8q31 79 94 124.5t141.5 45.5t125.5 -20q4 7 4 16q0 28 -52 41q-32 8 -73 8q-167 0 -247 -129
q-45 63 -120.5 101.5t-175 38.5t-190.5 -39h-235q-61 85 -61 180q0 51 14.5 92.5t46.5 91.5h1410q34 -53 47.5 -92t13.5 -92q0 -95 -61 -180h-50v-582q0 -66 13 -109.5t44 -80.5q-19 -96 -91 -149.5t-181 -53.5t-183 60q-90 73 -90 208v90q44 21 81.5 61t37.5 72t-25 37
q-25 -71 -89 -109q-61 -38 -139 -38t-137 37q-67 39 -91 112q-29 -6 -29 -37q0 -56 71.5 -106.5t182.5 -50.5h18q29 0 53 4z" />
    <glyph glyph-name="uni0933" unicode="&#x933;" horiz-adv-x="1588" 
d="M442 997q-54 0 -91.5 -6t-101.5 -24h-254q-61 85 -61 180q0 51 14.5 92.5t46.5 91.5h1593q34 -53 47.5 -92t13.5 -92q0 -95 -61 -180h-210v-72q83 -47 133 -135q57 -103 57 -254q0 -229 -132 -363.5t-332 -134.5q-84 0 -154.5 26.5t-107.5 74.5q31 28 59.5 75.5
t28.5 73.5t-29 41q-71 -152 -177 -221.5t-253 -69.5q-188 0 -313 122q-138 133 -138 365q0 184 104 314q115 143 312 143q102 0 185 -42t134 -124h8q99 146 275 146q1 2 1 10q0 31 -53 31t-114 -27.5t-110 -82.5q-127 134 -320 134zM1081 559l-60 -108q9 -19 35.5 -19
t44 24.5t17.5 49.5q0 53 -37 53zM483 440q10 -13 23 -13l66 106q-12 22 -38.5 22t-43.5 -23.5t-17 -51t10 -40.5z" />
    <glyph glyph-name="uni0934" unicode="&#x934;" horiz-adv-x="1588" 
d="M442 997q-54 0 -91.5 -6t-101.5 -24h-254q-61 85 -61 180q0 51 14.5 92.5t46.5 91.5h1593q34 -53 47.5 -92t13.5 -92q0 -95 -61 -180h-210v-72q83 -47 133 -135q57 -103 57 -254q0 -229 -132 -363.5t-332 -134.5q-84 0 -152.5 26.5t-106.5 74.5q29 26 57 74.5t28 74.5
t-29 41q-145 -291 -430 -291q-188 0 -313 122q-138 133 -138 365q0 184 104 314q115 143 312 143q102 0 185 -42t134 -124h8q99 146 275 146q1 2 1 10q0 31 -53 31t-114 -27.5t-110 -82.5q-127 134 -320 134zM1089 560q-7 0 -8 -1l-60 -108q9 -19 35.5 -19t44 24.5
t17.5 54.5q0 49 -29 49zM483 440q10 -13 23 -13l66 106q-12 22 -38.5 22t-43.5 -23.5t-17 -51t10 -40.5zM683 2q40 40 94.5 40t96.5 -40q39 -41 39 -96t-39.5 -94.5t-96 -39.5t-94.5 40q-40 38 -40 94t40 96z" />
    <glyph glyph-name="uni0935" unicode="&#x935;" horiz-adv-x="1066" 
d="M717 249q0 13 -10 23q-34 -26 -103 -46.5t-141 -20.5q-190 0 -314 112q-129 114 -129 295t127 294.5t316 113.5q107 0 201 -39q5 8 5 15q0 33 -63 51t-141 18q-189 0 -330 -98h-160q-61 85 -61 180q0 51 14.5 92.5t46.5 91.5h1115q34 -53 47.5 -92t13.5 -92
q0 -95 -61 -180h-50v-582q0 -68 14.5 -111.5t43.5 -78.5q-19 -96 -91 -149.5t-168 -53.5t-163 39q-84 46 -111 137q152 28 152 81zM557 556q10 0 12 1v124q-2 1 -22 1t-37 -18t-17 -46t17.5 -45t46.5 -17z" />
    <glyph glyph-name="uni0936" unicode="&#x936;" horiz-adv-x="1474" 
d="M550 1380q223 0 355 -142q13 56 62 93h531q34 -53 47.5 -92t13.5 -92q0 -95 -61 -180h-50v-582q0 -66 13 -109.5t44 -80.5q-18 -95 -89 -149t-175 -54q-67 0 -127.5 23.5t-99.5 73.5q24 59 24 141q-45 23 -78 52v231q61 61 94 155t33 174t-13.5 103t-36.5 23q-8 0 -11 -1
q8 -58 8 -116q0 -178 -130.5 -319t-324.5 -153q0 -39 49 -39q75 0 158 43q87 -111 199 -178q0 -106 -78 -187t-217.5 -81t-243.5 98q-83 78 -190 272q-113 13 -174.5 85t-61.5 173q0 66 35 125t90 87q35 -39 92.5 -61t120.5 -22q101 0 176.5 58.5t75.5 147.5q0 32 -12 55.5
t-37 23.5q-43 0 -43 -42.5t35 -66.5q-10 -59 -63 -95t-128 -36q-121 0 -193 80q-68 73 -68 188q0 153 120 261q127 112 329 112z" />
    <glyph glyph-name="uni0937" unicode="&#x937;" horiz-adv-x="1063" 
d="M550 260v41q71 8 146 48.5t75 80.5q0 19 -14 30q-49 -56 -132.5 -88t-176.5 -32q-194 0 -308 116t-114 308q0 110 16 203h-68q-61 85 -61 180q0 51 14.5 92.5t46.5 91.5h1113q34 -53 47.5 -92t13.5 -92q0 -95 -61 -180h-50v-582q0 -68 14.5 -111.5t43.5 -78.5
q-19 -96 -91 -149.5t-181.5 -53.5t-182.5 60q-90 73 -90 208zM665 679q22 0 34 17q-46 26 -110 82.5t-119 119.5q-58 64 -78 103q-20 -11 -20 -34q0 -36 55.5 -104t127.5 -126t110 -58z" />
    <glyph glyph-name="uni0938" unicode="&#x938;" horiz-adv-x="1460" 
d="M711 438q89 -83 250 -83q12 -36 12 -84q0 -145 -69.5 -218t-202.5 -73q-151 0 -274 114q-120 109 -189 307q-80 20 -149 97.5t-69 179.5q0 135 86 216q77 71 175 71t157 -52q11 8 11 23q0 28 -47.5 51t-126.5 23t-152 -43h-133q-61 85 -61 180q0 51 14.5 92.5t46.5 91.5
h1494q34 -53 47.5 -92t13.5 -92q0 -95 -61 -180h-50v-582q0 -66 13 -109.5t44 -80.5q-19 -96 -91 -149.5t-173 -53.5q-71 0 -134 26.5t-101 81.5q34 75 34 153t-25 153q-5 -1 -20 -1h-18q-75 0 -142.5 25t-101.5 68q-91 -52 -223 -52q2 -24 15 -34.5t44 -10.5q77 0 156 37z
M881 797q15 -9 32.5 -9t32.5 9v170h-67q14 -34 14 -87t-12 -83z" />
    <glyph glyph-name="uni0939" unicode="&#x939;" horiz-adv-x="1125" 
d="M86 967h-97q-62 86 -62 180q0 55 15 95t47 89h1145q34 -53 47.5 -92t13.5 -92q0 -95 -61 -180h-105v-97q0 -107 -67 -143q-99 51 -232 51q-75 0 -117.5 -18t-42.5 -41q0 -7 3 -14q81 28 153 28q176 0 277.5 -97.5t101.5 -256.5q0 -106 -42.5 -179.5t-116.5 -108.5
q-29 91 -152 137l-152 59v49q0 23 -14 39t-36 16t-36 -15t-14 -44q0 -42 45 -71q26 -17 172 -71q82 -30 120 -72t38 -121q0 -55 -26.5 -112.5t-80.5 -99.5q-202 11 -363 68q-188 64 -289 174q-118 126 -118 301q0 87 44.5 169.5t105.5 110.5q-47 29 -76 79t-29 108
q0 129 111 199q100 63 258 63q75 0 141 -12q11 -2 17 -3q3 4 3 12q0 24 -28 35q-39 13 -133 13q-248 0 -368 -135z" />
    <glyph glyph-name="uni093A" unicode="&#x93a;" 
d="M-274 1142q-123 0 -230 79v446q89 68 228 68t236 -68v-446q-63 -43 -115.5 -61t-118.5 -18z" />
    <glyph glyph-name="uni093B" unicode="&#x93b;" horiz-adv-x="530" 
d="M25 1331v336q89 68 228 68t236 -68v-336h65q34 -53 47.5 -92t13.5 -92q0 -95 -61 -180h-50v-582q0 -66 13 -109.5t44 -80.5q-18 -95 -89 -149t-180.5 -54t-180.5 60q-84 71 -84 208v707h-52q-61 85 -61 180q0 51 14.5 92.5t46.5 91.5h50z" />
    <glyph glyph-name="uni093C" unicode="&#x93c;" 
d="M-643 -61q40 40 94.5 40t96.5 -40q39 -41 39 -96t-39.5 -94.5t-96 -39.5t-94.5 40q-40 38 -40 94t40 96z" />
    <glyph glyph-name="uni093D" unicode="&#x93d;" horiz-adv-x="1048" 
d="M40 328q0 85 49 148.5t131 79.5q55 -48 140.5 -98t130.5 -50q29 0 34 27q-11 5 -47 17t-113 57t-149.5 124t-103.5 193q-17 60 -17 130q0 143 71 233q114 142 386 142h326q42 -81 42 -172t-34 -145q-42 -67 -139 -67h-155q-10 -10 -10 -25q0 -27 27 -48t78.5 -48
t75.5 -40q81 -46 135 -100q110 -113 110 -284q0 -196 -137 -302t-370 -106q-195 0 -322 86q-139 92 -139 248z" />
    <glyph glyph-name="uni093E" unicode="&#x93e;" horiz-adv-x="530" 
d="M27 967h-52q-61 85 -61 180q0 51 14.5 92.5t46.5 91.5h579q34 -53 47.5 -92t13.5 -92q0 -95 -61 -180h-50v-582q0 -66 13 -109.5t44 -80.5q-18 -95 -89 -149t-180.5 -54t-180.5 60q-84 71 -84 208v707z" />
    <glyph glyph-name="uni093F" unicode="&#x93f;" horiz-adv-x="530" 
d="M27 967h-52q-61 85 -61 180q0 51 14.5 92.5t46.5 91.5h92q-11 31 -11 83q0 196 158 318q171 132 474 132q186 0 395 -69q167 -55 325 -144t251 -170q-63 -219 -244 -219q-70 0 -196 56q-37 16 -113 53q-223 108 -383 108q-98 0 -159.5 -39t-61.5 -109h52q34 -53 47.5 -92
t13.5 -92q0 -95 -61 -180h-50v-582q0 -66 13 -109.5t44 -80.5q-18 -95 -89 -149t-180.5 -54t-180.5 60q-84 71 -84 208v707z" />
    <glyph glyph-name="uni0940" unicode="&#x940;" horiz-adv-x="530" 
d="M-134 1331h176q2 16 2 25q0 98 -99 98q-45 0 -68.5 -22.5t-23.5 -53.5t13 -47zM27 967h-252q-155 48 -248.5 167.5t-93.5 262.5q0 205 150 323q139 109 358.5 109t375.5 -125q168 -135 168 -350v-23h69q34 -53 47.5 -92t13.5 -92q0 -95 -61 -180h-50v-582
q0 -66 13 -109.5t44 -80.5q-18 -95 -89 -149t-180.5 -54t-180.5 60q-84 71 -84 208v707z" />
    <glyph glyph-name="uni0941" unicode="&#x941;" 
d="M-40 0q107 -91 107 -259q0 -181 -115 -299q-124 -126 -330 -126q-182 0 -303 95q-131 102 -131 273q0 101 59 155.5t145 54.5q25 0 45 -5q-4 -25 -4 -59q0 -119 77 -190q44 -40 91 -40q30 0 30 30q-77 22 -115 87q-31 53 -31 124q0 114 81 185q73 65 188 65q58 0 119 -23
l-68 -62q0 -46 45.5 -46t109.5 40z" />
    <glyph glyph-name="uni0942" unicode="&#x942;" 
d="M-293 94q101 0 161 -49l-63 -39q0 -46 45 -46q38 0 90 28q66 -38 123 -143q27 -49 86.5 -196t100.5 -206q-22 -78 -86.5 -122.5t-149.5 -44.5t-151.5 44.5t-98.5 130.5q65 14 121.5 77.5t56.5 120.5q0 42 -45 42q-7 -74 -61 -135q-65 -74 -170 -74q-127 0 -213 83
q-91 85 -91 225.5t106 226.5q97 77 239 77z" />
    <glyph glyph-name="uni0943" unicode="&#x943;" 
d="M66 -77q0 -44 -23.5 -84.5t-65.5 -56.5q-53 10 -100 10q-76 0 -76 -39q0 -18 21 -29.5t58 -11.5q94 0 161 50q102 -40 102 -178q0 -101 -82.5 -165t-241.5 -64q-188 0 -309 101q-129 106 -129 287q0 129 72 221q61 78 160.5 117.5t203.5 39.5t176.5 -51t72.5 -147z" />
    <glyph glyph-name="uni0944" unicode="&#x944;" 
d="M-27 -161q-43 8 -86 8q-74 0 -74 -37q0 -16 16.5 -27t47.5 -11q84 0 142 42q90 -39 90 -142q0 -75 -61.5 -119.5t-174.5 -44.5q-61 0 -61 -35q0 -17 17 -28t48 -11q75 0 142 42q90 -33 90 -142q0 -83 -70 -134q-78 -55 -215 -55q-164 0 -266.5 76t-102.5 219
q0 164 155 218q-7 30 -36 30q-43 0 -84 -41q-52 65 -52 154q0 159 131 248q107 73 233.5 73t185.5 -43.5t59 -112.5q0 -88 -74 -127z" />
    <glyph glyph-name="uni0945" unicode="&#x945;" 
d="M-663 1634q0 85 52.5 134t103.5 49q25 -44 81 -75.5t122 -31.5t120.5 28t81.5 79q52 0 108 -49.5t56 -133.5q0 -102 -88 -172q-100 -80 -275 -80t-273 80q-89 71 -89 172z" />
    <glyph glyph-name="uni0946" unicode="&#x946;" 
d="M-580 1376q-168 0 -248 77q-69 65 -69 169q0 134 110 224l92 -11q8 -34 38 -51q47 -25 194 -37q158 -13 250 -52q107 -45 148 -143q21 -50 21 -118.5t-27 -115.5v-24q0 -64 -39.5 -102.5t-107.5 -38.5t-105 38t-37 96v44q15 3 15 16q0 33 -92 33z" />
    <glyph glyph-name="uni0947" unicode="&#x947;" 
d="M-337 1358q0 9 -6 18q-154 0 -266 36q-142 45 -205 136q0 148 100 238q90 81 218 81q196 0 317 -164q113 -153 113 -383v-28q0 -69 -42 -109.5t-112.5 -40.5t-111.5 41t-41 101v47q36 0 36 27z" />
    <glyph glyph-name="uni0948" unicode="&#x948;" 
d="M-257 1571q20 8 20 34.5t-24.5 64.5t-65.5 74q-101 84 -226 90q1 86 61 139.5t150 53.5q149 0 244 -108q92 -108 92 -282q0 -144 -67 -310v-22q0 -79 -49.5 -126.5t-132 -47.5t-128 47.5t-45.5 116.5v36q40 0 40 28q0 7 -3 15q-128 0 -236 27q-139 33 -204 96
q0 127 77 209t179 82q207 0 318 -217z" />
    <glyph glyph-name="uni0949" unicode="&#x949;" horiz-adv-x="530" 
d="M27 967h-52q-61 85 -61 180q0 51 14.5 92.5t46.5 91.5h579q34 -53 47.5 -92t13.5 -92q0 -95 -61 -180h-50v-582q0 -66 13 -109.5t44 -80.5q-18 -95 -89 -149t-180.5 -54t-180.5 60q-84 71 -84 208v707zM-149 1634q0 85 52.5 134t103.5 49q25 -44 81 -75.5t122 -31.5
t120.5 28t81.5 79q52 0 108 -49.5t56 -133.5q0 -102 -88 -172q-100 -80 -275 -80t-273 80q-89 71 -89 172z" />
    <glyph glyph-name="uni094A" unicode="&#x94a;" horiz-adv-x="530" 
d="M-31 1376q-168 0 -248 77q-69 65 -69 169q0 134 110 224l92 -11q8 -34 38 -51q47 -25 194 -37q158 -13 250 -52q107 -45 148 -143q21 -50 21 -113t-21 -108h70q34 -53 47.5 -92t13.5 -92q0 -95 -61 -180h-50v-582q0 -66 13 -109.5t44 -80.5q-18 -95 -89 -149t-180.5 -54
t-180.5 60q-84 71 -84 208v707h-52q-61 85 -61 180q0 51 14.5 92.5t46.5 91.5h214q15 3 15 16q0 33 -92 33z" />
    <glyph glyph-name="uni094B" unicode="&#x94b;" horiz-adv-x="530" 
d="M157 1331q36 0 36 27q0 9 -6 18q-154 0 -266 36q-142 45 -205 136q0 148 100 238q90 81 218 81q193 0 314 -160q111 -147 116 -376h90q34 -53 47.5 -92t13.5 -92q0 -95 -61 -180h-50v-582q0 -66 13 -109.5t44 -80.5q-18 -95 -89 -149t-180.5 -54t-180.5 60
q-84 71 -84 208v707h-52q-61 85 -61 180q0 51 14.5 92.5t46.5 91.5h182z" />
    <glyph glyph-name="uni094C" unicode="&#x94c;" horiz-adv-x="530" 
d="M281 1571q20 8 20 34.5t-24.5 64.5t-65.5 74q-101 84 -226 90q1 86 61 139.5t150 53.5q149 0 244 -108q92 -108 92 -282q0 -140 -66 -306h88q34 -53 47.5 -92t13.5 -92q0 -95 -61 -180h-50v-582q0 -66 13 -109.5t44 -80.5q-18 -95 -89 -149t-180.5 -54t-180.5 60
q-84 71 -84 208v707h-52q-61 85 -61 180q0 51 14.5 92.5t46.5 91.5h135q40 0 40 28q0 7 -3 15q-128 0 -236 27q-139 33 -204 96q0 127 77 209t179 82q207 0 318 -217z" />
    <glyph glyph-name="uni094D" unicode="&#x94d;" 
d="M-83 -525q-103 0 -202 99l-163 165q-3 23 -3 43q0 83 62 128q50 37 118.5 37t120 -29.5t103.5 -97.5l156 -204q-15 -60 -65 -100.5t-127 -40.5z" />
    <glyph glyph-name="uni094E" unicode="&#x94e;" horiz-adv-x="530" 
d="M27 967h-52q-61 85 -61 180q0 51 14.5 92.5t46.5 91.5h579q34 -53 47.5 -92t13.5 -92q0 -95 -61 -180h-50v-582q0 -66 13 -109.5t44 -80.5q-18 -95 -89 -149t-180.5 -54t-180.5 60q-84 71 -84 208v707z" />
    <glyph glyph-name="uni094F" unicode="&#x94f;" horiz-adv-x="531" 
d="M-31 1376q-168 0 -248 77q-69 65 -69 169q0 134 110 224l92 -11q7 -59 50.5 -88.5t143.5 -46.5l113 -19q62 -12 93.5 -33.5t37.5 -75.5q30 0 30 30q0 40 -32 71q-40 37 -117 49l-83 13q-86 12 -130.5 43.5t-44.5 99.5t58 123l92 -11q4 -39 37 -54q20 -9 68 -15l60 -7
q172 -22 252.5 -102.5t80.5 -206.5q0 -76 -29.5 -148.5t-78.5 -125.5h100q34 -53 47.5 -92t13.5 -92q0 -95 -61 -180h-51v-582q0 -66 13 -109.5t44 -80.5q-18 -95 -89 -149t-180.5 -54t-180.5 60q-84 71 -84 208v707h-52q-61 85 -61 180q0 51 14.5 92.5t46.5 91.5h184
q15 3 15 16q0 33 -92 33z" />
    <glyph glyph-name="uni0950" unicode="&#x950;" horiz-adv-x="1967" 
d="M1130 1422q0 61 42 103t102.5 42t102 -41.5t41.5 -101.5t-39.5 -102.5t-101 -42.5t-104.5 41t-43 102zM1078 1431q0 -96 54.5 -146.5t142 -50.5t142.5 52.5t55 147.5v17q53 0 109 -45q66 -55 66 -140t-71 -156q-41 7 -86 7q-94 0 -161 -31t-107 -76q-146 12 -236 92
q-84 73 -84 160.5t64 142.5q52 45 112 47v-21zM852 1304q-2 -22 -2 -34q0 -206 270 -287q7 -29 7 -68q0 -70 -31 -130t-93 -97q10 -19 42 -19t70 54q17 26 46 86q59 124 108 175q86 88 223 88q207 0 333 -139q122 -137 122 -365q0 -125 -45 -230q-53 -118 -151.5 -188.5
t-250.5 -70.5q-119 0 -200.5 71t-81.5 183q0 19 3 42q142 1 233 85t91 200q0 23 -8 35t-35 12q0 -132 -82.5 -209.5t-206.5 -77.5q-29 0 -46 4q0 -12 1 -17v-17q0 -199 -141 -310q-126 -98 -307.5 -98t-321.5 87q-71 45 -140 113q-21 22 -68.5 72t-86.5 84.5t-80 55.5
q-3 22 -3 43q0 114 67.5 175t165.5 61q75 0 141 -46q11 -113 92.5 -175.5t190.5 -62.5q59 0 59 34q0 8 -3 17q-21 -6 -49 -6q-105 0 -173 62.5t-68 166t71 170.5t163 67q33 0 46 -3q3 6 3 13q0 34 -58 34q-83 0 -152 -43t-100 -115q-114 0 -185.5 71.5t-71.5 182.5
q48 70 92 119q164 182 394 182q92 0 207 -37z" />
    <glyph glyph-name="uni0951" unicode="&#x951;" 
d="M-277 1913q129 0 213 -48v-446q-84 -48 -213 -48t-211 48v446q82 48 211 48z" />
    <glyph glyph-name="uni0952" unicode="&#x952;" 
d="M43 -209q0 -82 -53 -159h-655q-53 75 -53 158t53 163h655q53 -80 53 -162z" />
    <glyph glyph-name="uni0953" unicode="&#x953;" 
d="M-608 1824q56 0 94.5 -22.5t74.5 -68.5l143 -184q0 -78 -54 -132q-52 -50 -119 -50t-106.5 22.5t-76.5 69.5l-143 184q0 83 55.5 132t131.5 49z" />
    <glyph glyph-name="uni0954" unicode="&#x954;" 
d="M-795 1549l143 184q36 46 74.5 68.5t94.5 22.5q76 0 131.5 -49t55.5 -132l-143 -184q-37 -47 -76.5 -69.5t-106.5 -22.5t-120 51t-53 131z" />
    <glyph glyph-name="uni0955" unicode="&#x955;" 
d="M-302 1542q117 0 210 37.5t138 117.5h35q53 -80 53 -162q0 -46 -12.5 -80.5t-40.5 -74.5h-766q-28 40 -40.5 74.5t-12.5 80.5q0 82 53 162h35q45 -80 142 -118q89 -37 206 -37zM-302 1587q-155 0 -248 69q-83 62 -83 152q0 120 131 164q25 -43 77.5 -72.5t123 -29.5
t122.5 29t77 73q131 -44 131 -164q0 -90 -83 -152q-93 -69 -248 -69z" />
    <glyph glyph-name="uni0956" unicode="&#x956;" 
d="M-592 -188q0 85 52.5 134t103.5 49q25 -44 81 -75.5t122 -31.5t120.5 28t81.5 79q52 0 108 -49.5t56 -133.5q0 -102 -88 -172q-100 -80 -275 -80t-273 80q-89 71 -89 172z" />
    <glyph glyph-name="uni0957" unicode="&#x957;" 
d="M-511 -398q38 -25 115.5 -46t166.5 -21q164 0 278 67q39 -36 39 -104q0 -87 -81.5 -145t-236 -58t-236.5 57.5t-82 140t37 109.5zM-592 -188q0 85 52.5 134t103.5 49q25 -44 81 -75.5t122 -31.5t120.5 28t81.5 79q52 0 108 -49.5t56 -133.5q0 -99 -93 -165.5t-270 -66.5
t-269.5 67t-92.5 165z" />
    <glyph glyph-name="uni0958" unicode="&#x958;" horiz-adv-x="1648" 
d="M549 539q9 0 12 1v124q-3 1 -15 1q-28 0 -44.5 -19t-16.5 -46t17.5 -44t46.5 -17zM269 244q55 0 96 -39q40 -42 40 -97.5t-40 -95.5q-40 -38 -97 -38t-95.5 39.5t-38.5 95t40 95.5t95 40zM1118 166q-24 -76 -78 -118q-71 -56 -180 -56t-182 56q-96 71 -96 204v45
q-52 0 -52 -59q0 -26 8 -56q-37 -16 -93 -20q-21 60 -67 92.5t-108.5 32.5t-107.5 -36q-67 55 -104.5 139t-37.5 183q0 171 105 291q113 131 299 131q126 0 209 -61q7 10 7 22q0 32 -61.5 58t-154.5 26q-145 0 -258 -73h-191q-61 85 -61 180q0 51 14.5 92.5t46.5 91.5h1676
q37 -57 49.5 -94t12.5 -90q0 -94 -62 -180h-164q-110 73 -252 73q-91 0 -153 -25.5t-62 -63.5q0 -13 8 -21q91 65 207 65q173 0 287 -129q51 -57 78.5 -131.5t27.5 -150.5q0 -189 -100.5 -300.5t-239.5 -111.5q-118 0 -183 63.5t-65 177.5q0 73 30 150q19 -12 37.5 -12
t30.5 15.5t12 41t-14.5 41.5t-36.5 16t-34 -5q-30 -30 -54 -100.5t-24 -146.5q0 -171 131 -247z" />
    <glyph glyph-name="uni0959" unicode="&#x959;" horiz-adv-x="1574" 
d="M386 250q55 0 96 -39q40 -42 40 -97.5t-40 -95.5q-40 -38 -97 -38t-95.5 39.5t-38.5 95t40 95.5t95 40zM446 848q42 18 42 57t-23 62h-490q-61 85 -61 180q0 51 14.5 92.5t46.5 91.5h1622q32 -49 47 -89t15 -95q0 -94 -62 -180h-51v-582q0 -68 14.5 -111.5t43.5 -78.5
q-19 -96 -91 -149.5t-174 -53.5q-57 0 -113 18.5t-91 53.5q39 56 39 115t-42 63q0 -127 -84 -205t-231 -78t-262 77q17 38 17 77q0 79 -52.5 130.5t-132.5 51.5q-35 0 -65 -11q-18 24 -22.5 31.5t-15 21.5t-16.5 23q-99 14 -173.5 95t-74.5 193.5t68.5 193t182 80.5
t175.5 -74zM1008 352q63 0 99 15t36 41q0 10 -6 18q-52 -29 -129 -29q-118 0 -195 72q-78 70 -78 180.5t78 191.5t213 81q78 0 118 -22q6 4 6 12q0 26 -35 41q-37 14 -102 14q-151 0 -241 -88t-90 -224q0 -84 33 -143q-48 -57 -178 -57q-33 0 -50 4q-1 -1 -1 -7
q0 -41 83 -41q104 0 172 57q93 -116 267 -116z" />
    <glyph glyph-name="uni095A" unicode="&#x95a;" horiz-adv-x="1167" 
d="M677 924q-22 40 -47.5 62t-44.5 22t-32 -15q62 -50 94.5 -141.5t32.5 -205t-52 -210.5q-61 -110 -178 -145q-35 24 -94 24t-102 -34q-108 20 -171 95q-63 72 -63 160.5t33 159.5q25 -12 53 -12q47 0 74 30.5t27 87.5t-21.5 100t-50.5 65h-160q-61 85 -61 180
q0 51 14.5 92.5t46.5 91.5h1216q34 -53 47.5 -92t13.5 -92q0 -95 -61 -180h-50v-582q0 -66 13 -109.5t44 -80.5q-19 -96 -91 -149.5t-181 -53.5t-183 60q-90 73 -90 208v109q80 122 80 287t-56 268zM358 270q55 0 96 -39q40 -42 40 -97.5t-40 -95.5q-40 -38 -97 -38
t-95.5 39.5t-38.5 95t40 95.5t95 40z" />
    <glyph glyph-name="uni095B" unicode="&#x95b;" horiz-adv-x="1382" 
d="M202 315q-41 0 -83 -20q-99 118 -99 262q0 122 79 198t206 76q-4 -20 -4 -53q0 -127 73 -208t185 -81q55 0 55 41q-125 0 -192.5 67.5t-67.5 184.5q0 34 10 76.5t25 63.5h555q0 24 -14 34.5t-56 10.5h-899q-61 85 -61 180q0 51 14.5 92.5t46.5 91.5h1431q34 -53 47.5 -92
t13.5 -92q0 -95 -61 -180h-50v-582q0 -66 13 -109.5t44 -80.5q-19 -96 -91 -149.5t-165.5 -53.5t-165.5 38t-102 117q127 116 127 265q0 65 -23 111q-23 44 -55 44q-13 0 -20 -4q45 -69 45 -151q0 -124 -94 -214q-107 -100 -291 -100q-95 0 -190 27q0 83 -50.5 136.5
t-135.5 53.5zM201 270q55 0 96 -39q40 -42 40 -97.5t-40 -95.5q-40 -38 -97 -38t-95.5 39.5t-38.5 95t40 95.5t95 40z" />
    <glyph glyph-name="uni095C" unicode="&#x95c;" horiz-adv-x="1090" 
d="M628 389q0 3 -2 13q-23 -3 -77 -3q-103 0 -192 46q-102 52 -143 143q-70 -12 -119 -43q-67 91 -67 192q0 140 95 225t239 85q96 0 180 -23q3 8 3 14q0 32 -75 47q-40 7 -102 7q-201 0 -304 -125h-97q-61 85 -61 180q0 51 14.5 92.5t46.5 91.5h1131q32 -49 47 -89t15 -95
q0 -94 -62 -180h-108v-119q0 -41 -17 -75t-46 -46q-99 51 -225 51q-169 0 -169 -57q0 -8 5 -16q66 28 152 28t170.5 -30t140.5 -101q69 -88 69 -219q0 -156 -90 -259.5t-257 -140.5q-18 53 -63.5 86t-109.5 33t-107.5 -34t-59.5 -86q-160 33 -258.5 124.5t-98.5 221.5
q0 74 34 123q38 57 128 84q34 -65 113 -114q107 -67 241 -67q86 0 86 35zM552 57q55 0 96 -39q40 -42 40 -97.5t-40 -95.5q-40 -38 -97 -38t-95.5 39.5t-38.5 95t40 95.5t95 40z" />
    <glyph glyph-name="uni095D" unicode="&#x95d;" horiz-adv-x="1166" 
d="M617 57q55 0 96 -39q40 -42 40 -97.5t-40 -95.5q-40 -38 -97 -38t-95.5 39.5t-38.5 95t40 95.5t95 40zM577 1108q0 -36 -20 -52t-73 -28q-115 -22 -199 -61h-299q-62 86 -62 180q0 55 15 95t47 89h1188q32 -49 47 -89t15 -95q0 -94 -62 -180h-151q4 -36 4 -84
q0 -99 -57 -147q-78 30 -160 30q-165 0 -266.5 -86.5t-101.5 -220.5q0 -59 18.5 -99.5t50.5 -40.5q7 0 12 3q-28 54 -28 127q0 113 89 192.5t234.5 79.5t236.5 -100.5t91 -239.5q0 -161 -94 -263.5t-260 -135.5q-22 56 -66.5 88t-107.5 32t-108 -31.5t-66 -86.5
q-194 43 -309 172.5t-115 304.5t82 295q64 93 187 156q89 44 204 67q135 27 135 108q0 26 -9 37t-28 11h-14v-27zM769 332q74 0 74 47q0 15 -10 25t-28 10t-30 -14.5t-12 -33t6 -34.5z" />
    <glyph glyph-name="uni095E" unicode="&#x95e;" horiz-adv-x="1652" 
d="M1093 185q-16 -77 -74 -128q-74 -65 -190 -65t-189 60q-90 73 -90 208v41q58 9 116 34q75 34 75 72q0 15 -10 28q-49 -44 -127 -69.5t-156 -25.5q-194 0 -308 116t-114 308q0 110 16 203h-68q-61 85 -61 180q0 51 14.5 92.5t46.5 91.5h1681q32 -49 47 -89t15 -95
q0 -94 -62 -180h-164q-112 73 -252 73q-91 0 -152 -27.5t-61 -60.5q0 -14 6 -22q91 65 207 65q173 0 287 -129q51 -57 78.5 -131.5t27.5 -150.5q0 -189 -100.5 -300.5t-239.5 -111.5q-118 0 -183 63.5t-65 177.5q0 73 30 150q19 -12 37.5 -12t30.5 15.5t12 41t-18 40.5
t-36.5 15t-30.5 -3q-30 -30 -54 -100.5t-24 -146.5q0 -147 102 -228zM552 967h-57q-9 -34 -9 -95q0 -94 66 -104v199zM375 270q55 0 96 -39q40 -42 40 -97.5t-40 -95.5q-40 -38 -97 -38t-95.5 39.5t-38.5 95t40 95.5t95 40z" />
    <glyph glyph-name="uni095F" unicode="&#x95f;" horiz-adv-x="1206" 
d="M303 270q55 0 96 -39q40 -42 40 -97.5t-40 -95.5q-40 -38 -97 -38t-95.5 39.5t-38.5 95t40 95.5t95 40zM547 174q-43 0 -68 4q-15 63 -62.5 100t-108.5 37t-107 -31q-181 135 -181 367q0 85 39 166q28 -18 72 -18t71 24.5t27 61.5q0 57 -59 82h-180q-61 85 -61 180
q0 51 14.5 92.5t46.5 91.5h1240q34 -53 47.5 -92t13.5 -92q0 -95 -61 -180h-50v-582q0 -70 12.5 -112.5t42.5 -77.5q-19 -96 -91 -149.5t-165.5 -53.5t-165.5 39t-100 110q66 12 126 51.5t60 75.5q0 19 -14 25q-59 -57 -138.5 -88t-199.5 -31zM659 971q-17 0 -24 -15
q26 -28 45 -75t19 -96q0 -97 -63.5 -152t-160.5 -55v-7q0 -35 51 -35q83 0 150 62q76 69 76 187q0 74 -31.5 130t-61.5 56z" />
    </font>
</defs>
</svg>
